<mxfile host="65bd71144e" pages="18">
    <diagram id="WrfOyPTYKlQQvffiSIZa" name="Backup Manage">
        <mxGraphModel dx="1796" dy="1915" grid="1" gridSize="10" guides="1" tooltips="1" connect="1" arrows="1" fold="1" page="1" pageScale="1" pageWidth="850" pageHeight="1100" math="0" shadow="0">
            <root>
                <mxCell id="0"/>
                <mxCell id="1" parent="0"/>
                <mxCell id="rirupHPmU7Hzg7xjt6_u-78" value="" style="rounded=1;whiteSpace=wrap;html=1;arcSize=9;" parent="1" vertex="1">
                    <mxGeometry x="2107.5" y="-380" width="245" height="200" as="geometry"/>
                </mxCell>
                <mxCell id="fiti7JrLuvurXyNItbaH-1" value="" style="verticalLabelPosition=bottom;verticalAlign=top;html=1;shadow=0;dashed=0;strokeWidth=1;shape=mxgraph.android.phone2;strokeColor=#c0c0c0;" parent="1" vertex="1">
                    <mxGeometry x="180" y="10" width="300" height="610" as="geometry"/>
                </mxCell>
                <mxCell id="PbUtSizprNqcajoERMSW-1" value="Backup&amp;nbsp;" style="strokeWidth=1;html=1;shadow=0;dashed=0;shape=mxgraph.android.action_bar;fillColor=#E6E6E6;strokeColor=#c0c0c0;strokeWidth=2;whiteSpace=wrap;" parent="1" vertex="1">
                    <mxGeometry x="191.5" y="65" width="277" height="30" as="geometry"/>
                </mxCell>
                <mxCell id="PbUtSizprNqcajoERMSW-2" value="Enable Backup" style="text;html=1;strokeColor=none;fillColor=none;align=center;verticalAlign=middle;whiteSpace=wrap;rounded=0;" parent="1" vertex="1">
                    <mxGeometry x="200" y="110" width="110" height="30" as="geometry"/>
                </mxCell>
                <mxCell id="yN_y4U4SN4uoI7MPvF37-1" value="" style="verticalLabelPosition=bottom;verticalAlign=top;html=1;shadow=0;dashed=0;strokeWidth=1;shape=mxgraph.android.switch_on;fillColor=#E6E6E6;sketch=0;" parent="1" vertex="1">
                    <mxGeometry x="410" y="115" width="50" height="20" as="geometry"/>
                </mxCell>
                <mxCell id="yN_y4U4SN4uoI7MPvF37-4" value="" style="rounded=0;whiteSpace=wrap;html=1;" parent="1" vertex="1">
                    <mxGeometry x="200" y="140" width="260" height="100" as="geometry"/>
                </mxCell>
                <mxCell id="yN_y4U4SN4uoI7MPvF37-5" value="DMCX Network" style="text;html=1;strokeColor=none;fillColor=none;align=center;verticalAlign=middle;whiteSpace=wrap;rounded=0;fontStyle=1" parent="1" vertex="1">
                    <mxGeometry x="247.5" y="140" width="110" height="30" as="geometry"/>
                </mxCell>
                <mxCell id="LVZBZjYkI6xPKc0Sp6R4-2" value="300GB of 2T" style="text;html=1;strokeColor=none;fillColor=none;align=right;verticalAlign=middle;whiteSpace=wrap;rounded=0;" parent="1" vertex="1">
                    <mxGeometry x="370" y="140" width="80" height="30" as="geometry"/>
                </mxCell>
                <mxCell id="vv6pmgr18ZiBRCS9MdXh-1" value="" style="rounded=0;whiteSpace=wrap;html=1;strokeWidth=0;fillColor=#d5e8d4;strokeColor=#82b366;spacing=2;" parent="1" vertex="1">
                    <mxGeometry x="260" y="165" width="80" height="5" as="geometry"/>
                </mxCell>
                <mxCell id="vv6pmgr18ZiBRCS9MdXh-2" value="" style="rounded=0;whiteSpace=wrap;html=1;strokeWidth=0;fillColor=#fff2cc;strokeColor=#d6b656;spacing=2;" parent="1" vertex="1">
                    <mxGeometry x="340" y="165" width="20" height="5" as="geometry"/>
                </mxCell>
                <mxCell id="vv6pmgr18ZiBRCS9MdXh-4" value="My AppData" style="text;html=1;strokeColor=none;fillColor=none;align=left;verticalAlign=middle;whiteSpace=wrap;rounded=0;fontSize=10;" parent="1" vertex="1">
                    <mxGeometry x="300" y="170" width="60" height="15" as="geometry"/>
                </mxCell>
                <mxCell id="vv6pmgr18ZiBRCS9MdXh-6" value="My Data" style="text;html=1;strokeColor=none;fillColor=none;align=left;verticalAlign=middle;whiteSpace=wrap;rounded=0;fontSize=10;" parent="1" vertex="1">
                    <mxGeometry x="370" y="170" width="60" height="15" as="geometry"/>
                </mxCell>
                <mxCell id="vv6pmgr18ZiBRCS9MdXh-8" value="" style="rounded=0;whiteSpace=wrap;html=1;strokeWidth=0;fillColor=#e1d5e7;strokeColor=#9673a6;spacing=2;" parent="1" vertex="1">
                    <mxGeometry x="360" y="165" width="20" height="5" as="geometry"/>
                </mxCell>
                <mxCell id="vv6pmgr18ZiBRCS9MdXh-11" value="" style="rounded=0;whiteSpace=wrap;html=1;strokeWidth=0;spacing=2;" parent="1" vertex="1">
                    <mxGeometry x="380" y="165" width="70" height="5" as="geometry"/>
                </mxCell>
                <mxCell id="vv6pmgr18ZiBRCS9MdXh-12" value="amount: 3000 GWT,expiration date:2024-12" style="text;html=1;strokeColor=none;fillColor=none;align=center;verticalAlign=middle;whiteSpace=wrap;rounded=0;fontSize=10;" parent="1" vertex="1">
                    <mxGeometry x="236" y="210" width="204" height="30" as="geometry"/>
                </mxCell>
                <mxCell id="vv6pmgr18ZiBRCS9MdXh-13" value="Manage" style="text;html=1;strokeColor=none;fillColor=none;align=center;verticalAlign=middle;whiteSpace=wrap;rounded=0;fontStyle=5;fontColor=#0000FF;" parent="1" vertex="1">
                    <mxGeometry x="275" y="190" width="110" height="30" as="geometry"/>
                </mxCell>
                <mxCell id="vv6pmgr18ZiBRCS9MdXh-15" value="Backup Tasks" style="text;html=1;strokeColor=none;fillColor=none;align=left;verticalAlign=middle;whiteSpace=wrap;rounded=0;fontStyle=1" parent="1" vertex="1">
                    <mxGeometry x="200" y="312" width="102" height="30" as="geometry"/>
                </mxCell>
                <mxCell id="vv6pmgr18ZiBRCS9MdXh-16" value="" style="rounded=1;whiteSpace=wrap;html=1;" parent="1" vertex="1">
                    <mxGeometry x="200" y="337" width="260" height="60" as="geometry"/>
                </mxCell>
                <mxCell id="vv6pmgr18ZiBRCS9MdXh-17" value="" style="html=1;verticalLabelPosition=bottom;labelBackgroundColor=#ffffff;verticalAlign=top;shadow=0;dashed=0;strokeWidth=2;shape=mxgraph.ios7.misc.more;strokeColor=#a0a0a0;" parent="1" vertex="1">
                    <mxGeometry x="448" y="348" width="5" height="39" as="geometry"/>
                </mxCell>
                <mxCell id="vv6pmgr18ZiBRCS9MdXh-18" value="" style="html=1;verticalLabelPosition=bottom;labelBackgroundColor=#ffffff;verticalAlign=top;shadow=0;dashed=0;strokeWidth=2;shape=mxgraph.ios7.misc.loading_circle;" parent="1" vertex="1">
                    <mxGeometry x="206" y="342" width="30" height="30" as="geometry"/>
                </mxCell>
                <mxCell id="vv6pmgr18ZiBRCS9MdXh-19" value="" style="rounded=0;whiteSpace=wrap;html=1;strokeWidth=0;fillColor=#d5e8d4;strokeColor=#82b366;spacing=2;" parent="1" vertex="1">
                    <mxGeometry x="247.5" y="362" width="80" height="5" as="geometry"/>
                </mxCell>
                <mxCell id="vv6pmgr18ZiBRCS9MdXh-20" value="" style="rounded=0;whiteSpace=wrap;html=1;strokeWidth=0;spacing=2;" parent="1" vertex="1">
                    <mxGeometry x="327.5" y="362" width="112.5" height="5" as="geometry"/>
                </mxCell>
                <mxCell id="vv6pmgr18ZiBRCS9MdXh-21" value="Backup Whole System" style="text;html=1;strokeColor=none;fillColor=none;align=left;verticalAlign=middle;whiteSpace=wrap;rounded=0;fontStyle=1" parent="1" vertex="1">
                    <mxGeometry x="245.5" y="336" width="132.5" height="30" as="geometry"/>
                </mxCell>
                <mxCell id="vv6pmgr18ZiBRCS9MdXh-23" value="只展示&lt;br&gt;1. 正在运行的任务&lt;br&gt;2. 最近3天结束的任务" style="text;html=1;strokeColor=none;fillColor=none;align=left;verticalAlign=middle;whiteSpace=wrap;rounded=0;" parent="1" vertex="1">
                    <mxGeometry x="50" y="353" width="120" height="70" as="geometry"/>
                </mxCell>
                <mxCell id="vv6pmgr18ZiBRCS9MdXh-24" value="eta:2 hours" style="text;html=1;strokeColor=none;fillColor=none;align=center;verticalAlign=middle;whiteSpace=wrap;rounded=0;fontSize=10;" parent="1" vertex="1">
                    <mxGeometry x="380" y="336" width="73" height="30" as="geometry"/>
                </mxCell>
                <mxCell id="vv6pmgr18ZiBRCS9MdXh-25" value="Upload to DMCX Network..." style="text;html=1;strokeColor=none;fillColor=none;align=left;verticalAlign=middle;whiteSpace=wrap;rounded=0;fontSize=11;" parent="1" vertex="1">
                    <mxGeometry x="210" y="367" width="140" height="30" as="geometry"/>
                </mxCell>
                <mxCell id="vv6pmgr18ZiBRCS9MdXh-26" value="2.32 GB / 4GB" style="text;html=1;strokeColor=none;fillColor=none;align=center;verticalAlign=middle;whiteSpace=wrap;rounded=0;fontSize=10;" parent="1" vertex="1">
                    <mxGeometry x="375" y="366" width="73" height="30" as="geometry"/>
                </mxCell>
                <mxCell id="vv6pmgr18ZiBRCS9MdXh-27" value="" style="rounded=1;whiteSpace=wrap;html=1;" parent="1" vertex="1">
                    <mxGeometry x="200" y="408" width="260" height="49" as="geometry"/>
                </mxCell>
                <mxCell id="vv6pmgr18ZiBRCS9MdXh-28" value="" style="html=1;verticalLabelPosition=bottom;labelBackgroundColor=#ffffff;verticalAlign=top;shadow=0;dashed=0;strokeWidth=2;shape=mxgraph.ios7.misc.more;strokeColor=#a0a0a0;" parent="1" vertex="1">
                    <mxGeometry x="448" y="412" width="5" height="39" as="geometry"/>
                </mxCell>
                <mxCell id="vv6pmgr18ZiBRCS9MdXh-32" value="Backup Whole System" style="text;html=1;strokeColor=none;fillColor=none;align=left;verticalAlign=middle;whiteSpace=wrap;rounded=0;fontStyle=1" parent="1" vertex="1">
                    <mxGeometry x="245.5" y="407" width="132.5" height="30" as="geometry"/>
                </mxCell>
                <mxCell id="vv6pmgr18ZiBRCS9MdXh-34" value="Complete at 08-02 23:22:11" style="text;html=1;strokeColor=none;fillColor=none;align=left;verticalAlign=middle;whiteSpace=wrap;rounded=0;fontSize=11;" parent="1" vertex="1">
                    <mxGeometry x="245.5" y="423.5" width="140" height="30" as="geometry"/>
                </mxCell>
                <mxCell id="vv6pmgr18ZiBRCS9MdXh-35" value="&amp;nbsp;4GB" style="text;html=1;strokeColor=none;fillColor=none;align=right;verticalAlign=middle;whiteSpace=wrap;rounded=0;fontSize=10;" parent="1" vertex="1">
                    <mxGeometry x="381.5" y="423" width="60" height="30" as="geometry"/>
                </mxCell>
                <mxCell id="vv6pmgr18ZiBRCS9MdXh-37" value="" style="sketch=0;html=1;aspect=fixed;strokeColor=none;shadow=0;align=center;fillColor=#2D9C5E;verticalAlign=top;labelPosition=center;verticalLabelPosition=bottom;shape=mxgraph.gcp2.check" parent="1" vertex="1">
                    <mxGeometry x="206" y="417" width="37.5" height="30" as="geometry"/>
                </mxCell>
                <mxCell id="vv6pmgr18ZiBRCS9MdXh-38" value="3 hours" style="text;html=1;strokeColor=none;fillColor=none;align=right;verticalAlign=middle;whiteSpace=wrap;rounded=0;fontSize=10;" parent="1" vertex="1">
                    <mxGeometry x="367" y="412.5" width="73" height="19" as="geometry"/>
                </mxCell>
                <mxCell id="vv6pmgr18ZiBRCS9MdXh-39" value="Last success backup: 8/02/2024 at 23:22 PM" style="text;html=1;strokeColor=none;fillColor=none;align=center;verticalAlign=middle;whiteSpace=wrap;rounded=0;" parent="1" vertex="1">
                    <mxGeometry x="206" y="238" width="250" height="30" as="geometry"/>
                </mxCell>
                <mxCell id="vv6pmgr18ZiBRCS9MdXh-40" value="Backup Now!" style="text;html=1;align=center;verticalAlign=middle;whiteSpace=wrap;rounded=0;fontStyle=1;fillColor=default;strokeColor=default;" parent="1" vertex="1">
                    <mxGeometry x="271" y="280" width="120" height="30" as="geometry"/>
                </mxCell>
                <mxCell id="vv6pmgr18ZiBRCS9MdXh-42" value="Show All" style="text;html=1;strokeColor=none;fillColor=none;align=center;verticalAlign=middle;whiteSpace=wrap;rounded=0;fontStyle=4" parent="1" vertex="1">
                    <mxGeometry x="297.5" y="463" width="60" height="30" as="geometry"/>
                </mxCell>
                <mxCell id="vv6pmgr18ZiBRCS9MdXh-43" value="another backup source info&lt;br&gt;（like udisk .eta)" style="rounded=0;whiteSpace=wrap;html=1;" parent="1" vertex="1">
                    <mxGeometry x="490" y="138" width="240" height="102" as="geometry"/>
                </mxCell>
                <mxCell id="vv6pmgr18ZiBRCS9MdXh-44" value="Add Backup target to enable backup" style="rounded=0;whiteSpace=wrap;html=1;" parent="1" vertex="1">
                    <mxGeometry x="-80" y="139" width="240" height="102" as="geometry"/>
                </mxCell>
                <mxCell id="vv6pmgr18ZiBRCS9MdXh-45" value="if there is no bakcup target,show this card:" style="text;html=1;strokeColor=none;fillColor=none;align=center;verticalAlign=middle;whiteSpace=wrap;rounded=0;" parent="1" vertex="1">
                    <mxGeometry x="-50" y="105" width="170" height="30" as="geometry"/>
                </mxCell>
                <mxCell id="rirupHPmU7Hzg7xjt6_u-1" value="" style="dashed=0;align=center;fontSize=12;shape=rect;fillColor=#ffffff;strokeColor=#eeeeee;shadow=1;strokeWidth=1;verticalAlign=middle;fontFamily=Helvetica;fontColor=default;html=1;" parent="1" vertex="1">
                    <mxGeometry x="490" y="-60" width="100" height="180" as="geometry"/>
                </mxCell>
                <mxCell id="rirupHPmU7Hzg7xjt6_u-2" value="Edit Backup Task" style="text;fontColor=default;verticalAlign=middle;spacingLeft=13;fontSize=12;resizeWidth=1;whiteSpace=wrap;html=1;fontFamily=Helvetica;" parent="rirupHPmU7Hzg7xjt6_u-1" vertex="1">
                    <mxGeometry width="100" height="45" relative="1" as="geometry"/>
                </mxCell>
                <mxCell id="rirupHPmU7Hzg7xjt6_u-4" value="Add Backup source" style="text;fontColor=default;verticalAlign=middle;spacingLeft=13;fontSize=12;resizeWidth=1;whiteSpace=wrap;html=1;fontFamily=Helvetica;" parent="rirupHPmU7Hzg7xjt6_u-1" vertex="1">
                    <mxGeometry y="40" width="100" height="45" as="geometry"/>
                </mxCell>
                <mxCell id="rirupHPmU7Hzg7xjt6_u-8" value="All Tasks" style="text;fontColor=default;verticalAlign=middle;spacingLeft=13;fontSize=12;resizeWidth=1;whiteSpace=wrap;html=1;fontFamily=Helvetica;" parent="rirupHPmU7Hzg7xjt6_u-1" vertex="1">
                    <mxGeometry y="85" width="100" height="45" as="geometry"/>
                </mxCell>
                <mxCell id="rirupHPmU7Hzg7xjt6_u-9" value="" style="verticalLabelPosition=bottom;verticalAlign=top;html=1;shadow=0;dashed=0;strokeWidth=1;shape=mxgraph.android.phone2;strokeColor=#c0c0c0;" parent="1" vertex="1">
                    <mxGeometry x="800" width="300" height="610" as="geometry"/>
                </mxCell>
                <mxCell id="rirupHPmU7Hzg7xjt6_u-10" style="edgeStyle=orthogonalEdgeStyle;rounded=0;orthogonalLoop=1;jettySize=auto;html=1;exitX=1;exitY=0.5;exitDx=0;exitDy=0;entryX=-0.004;entryY=0.595;entryDx=0;entryDy=0;entryPerimeter=0;" parent="1" source="vv6pmgr18ZiBRCS9MdXh-16" target="rirupHPmU7Hzg7xjt6_u-9" edge="1">
                    <mxGeometry relative="1" as="geometry"/>
                </mxCell>
                <mxCell id="rirupHPmU7Hzg7xjt6_u-11" value="Task details" style="strokeWidth=1;html=1;shadow=0;dashed=0;shape=mxgraph.android.action_bar;fillColor=#E6E6E6;strokeColor=#c0c0c0;strokeWidth=2;whiteSpace=wrap;" parent="1" vertex="1">
                    <mxGeometry x="811.5" y="50" width="277" height="30" as="geometry"/>
                </mxCell>
                <mxCell id="rirupHPmU7Hzg7xjt6_u-12" value="" style="verticalLabelPosition=bottom;verticalAlign=top;html=1;shadow=0;dashed=0;strokeWidth=1;shape=mxgraph.android.phone2;strokeColor=#c0c0c0;" parent="1" vertex="1">
                    <mxGeometry x="800" y="-730" width="300" height="610" as="geometry"/>
                </mxCell>
                <mxCell id="rirupHPmU7Hzg7xjt6_u-14" value="Add DMCX&amp;nbsp; - Step 1" style="strokeWidth=1;html=1;shadow=0;dashed=0;shape=mxgraph.android.action_bar;fillColor=#E6E6E6;strokeColor=#c0c0c0;strokeWidth=2;whiteSpace=wrap;" parent="1" vertex="1">
                    <mxGeometry x="811.5" y="-680" width="277" height="30" as="geometry"/>
                </mxCell>
                <mxCell id="rirupHPmU7Hzg7xjt6_u-15" value="Set DMCX Account for Backup" style="text;html=1;strokeColor=none;fillColor=none;align=center;verticalAlign=middle;whiteSpace=wrap;rounded=0;fontStyle=1" parent="1" vertex="1">
                    <mxGeometry x="860" y="-640" width="180" height="30" as="geometry"/>
                </mxCell>
                <mxCell id="rirupHPmU7Hzg7xjt6_u-16" value="Why we need set a dmcx acount?&lt;br&gt;Why weneed set a dmcx acount?&lt;br&gt;Why we need set a dmcx acount?" style="text;html=1;strokeColor=none;fillColor=none;align=center;verticalAlign=middle;whiteSpace=wrap;rounded=0;" parent="1" vertex="1">
                    <mxGeometry x="835" y="-545" width="230" height="70" as="geometry"/>
                </mxCell>
                <mxCell id="rirupHPmU7Hzg7xjt6_u-17" value="I do not have any DMCX acount&lt;br&gt;create DMCX for me&amp;nbsp;" style="rounded=0;whiteSpace=wrap;html=1;" parent="1" vertex="1">
                    <mxGeometry x="850" y="-310" width="210" height="40" as="geometry"/>
                </mxCell>
                <mxCell id="rirupHPmU7Hzg7xjt6_u-18" value="Import my DMCX account&amp;nbsp;" style="rounded=0;whiteSpace=wrap;html=1;" parent="1" vertex="1">
                    <mxGeometry x="850" y="-250" width="210" height="40" as="geometry"/>
                </mxCell>
                <mxCell id="rirupHPmU7Hzg7xjt6_u-19" value="" style="verticalLabelPosition=bottom;verticalAlign=top;html=1;shadow=0;dashed=0;strokeWidth=1;shape=mxgraph.android.phone2;strokeColor=#c0c0c0;" parent="1" vertex="1">
                    <mxGeometry x="1380" y="-730" width="300" height="610" as="geometry"/>
                </mxCell>
                <mxCell id="rirupHPmU7Hzg7xjt6_u-21" value="Add DMCX - Step 2" style="strokeWidth=1;html=1;shadow=0;dashed=0;shape=mxgraph.android.action_bar;fillColor=#E6E6E6;strokeColor=#c0c0c0;strokeWidth=2;whiteSpace=wrap;" parent="1" vertex="1">
                    <mxGeometry x="1391.5" y="-675" width="277" height="30" as="geometry"/>
                </mxCell>
                <mxCell id="rirupHPmU7Hzg7xjt6_u-22" value="DMCX Account Q-Code" style="whiteSpace=wrap;html=1;aspect=fixed;" parent="1" vertex="1">
                    <mxGeometry x="1487.5" y="-535" width="85" height="85" as="geometry"/>
                </mxCell>
                <mxCell id="rirupHPmU7Hzg7xjt6_u-23" value="$address" style="text;html=1;strokeColor=none;fillColor=none;align=center;verticalAlign=middle;whiteSpace=wrap;rounded=0;" parent="1" vertex="1">
                    <mxGeometry x="1500" y="-620" width="60" height="30" as="geometry"/>
                </mxCell>
                <mxCell id="rirupHPmU7Hzg7xjt6_u-24" value="根据备份计划充值" style="text;html=1;strokeColor=none;fillColor=none;align=center;verticalAlign=middle;whiteSpace=wrap;rounded=0;fontStyle=1" parent="1" vertex="1">
                    <mxGeometry x="1440" y="-645" width="180" height="30" as="geometry"/>
                </mxCell>
                <mxCell id="rirupHPmU7Hzg7xjt6_u-26" value="0.00 GWT" style="text;html=1;strokeColor=none;fillColor=none;align=center;verticalAlign=middle;whiteSpace=wrap;rounded=0;fontStyle=1;fontSize=16;" parent="1" vertex="1">
                    <mxGeometry x="1475" y="-590" width="110" height="30" as="geometry"/>
                </mxCell>
                <mxCell id="rirupHPmU7Hzg7xjt6_u-28" value="" style="shape=image;verticalLabelPosition=bottom;labelBackgroundColor=default;verticalAlign=top;aspect=fixed;imageAspect=0;image=data:image/png,iVBORw0KGgoAAAANSUhEUgAAAEcAAABLCAYAAAAicppkAAAAAXNSR0IArs4c6QAAAARnQU1BAACxjwv8YQUAAAAJcEhZcwAADsMAAA7DAcdvqGQAAB6gSURBVHhe7VsHmF5VmX5v+cv0mWSSSQUS0kgjwVCiISEUAxoVCyvrupT1Yd19HsvuWtayYlldLItlRVFRVBQL6IK0BVyMBkICSMkQkkB6SE8myfS/3LLve+69M/8/LRMC7LqPXzjz33vq973na+fei5WyakMMQZZlIQyH7PInSFb8O7Rcdvz7ZxqAjgnOn4LWSLtVejXiWCSZ+sil8X3m+H+hOWH8z7JOYCM5VMNL4f2zWfVQf2CHDU6v6g5Nw+kzPEpUfPD5yFFZsxFvwGFlNyTeJ2YkueL2RAMTetk152XxUbZNnmkm5G4oU1FLX7GHRWbO0nk1S2mJaNjgSOgTFdws3bv2IMTU4bTXIPjA1+Cf/1auqarBBokn8zNwORZpsPmvb+dovSHznMRETgQUM4P+cIpM2kYm5aC9y0PQM2ep4KxLpRHc8BCCilpe+8DWDXDu/CGsJ1cAQRD1OW6KGUioz215RS8/JwSO2gdqM6PYlnYtnD6pDhed3oALTx+DKeOq4ToWDh0t4vZVB3Dj/ZvQ0lYwbEWz8G+2Et4ND8PJhAhoV0EYENQsin+4B/ZdN8HaszXqfAIbNlw6ZoZ8vGQTmQpqyMWnj8Y33zMH1fUuuP+ATx+if0KOCpB26rG3pQNz/uk+dOX9nn1DtgreN1fDzrYhtNKsdwwOJswGWeDum+Hc9x0g102ApEkDkNYYSqpoz4fuQ3rZwLEptUzlqqWn4PN/OR71NIuAjjVwvTh/cCI/KLIIBtuKXgUefHIf3nX9oyXgVKJ4w+9gp/LsU0H5KUmsJZZXzb8BQn8f3B9/E9ajd/NebT2jIzqW8K8WONIEAfPG+aPx6b+YhemNWaRcRzPD5857qcO89shItgccCx7YSjEt2Blg2t8/gp37cxGvAufG3zBSUWssNhrlUNygeXEaO7SRo7k6cBFsex7Or24A1q/SpFyjRBRzH132p+Gh85J9TjL9opkj8eG3TMfS2Q2RhvTEv8iMQmmJuSdgoamhqAEcAcYBgWvjqm+swy8f3mN6oULgPMi+hI4Am6WjP2ZNi3OEWoS/IivwYT39MKz//DasfTtNXc8uxD8vlYYdyhMSSw4dy9TxNbjlIwtx56cWYcnsEVIfU0IyFhVtORkng7ZAiRkVPIZpaoAuPfqiJbMaI1+UkJwU28OQFyoxaZNMlDO+RscFmjK1yF+wCP51v4D/lvcAtQ2cN17jBOm4wamrTOGGq+dg9fWL8ba5dajyitSC3s0S2bxWiaaPpNbf3sWiOiMsfcr8SfWRcphKtnoB7MCFwzaH90kRGJY2IRrOsQRO4Z1toU8zXX4Fwi/cDnv+hVzM1YCo43GTxtHko5uBScwnJqV1RtemseEri3Hlkibe5+GnPPhOScQw2pJQ36k1j9pZjGapjn04f1Ndmn6K17EwKV/g0Az7UOkG9JD4M/kPicB5FQ68a/4FwRd+gvDkU1kZCdpbBqCyat1oIZn/cVA246KmljvCbUwb/8EpyLH8iCmcc0ABDEULqph/HCyR5Fpr0mlUZgRGNNijKfnI85b3piP7E4CA/outcHyP1Wy3Gc6tIuukQbz1udsElfEMQcN4eB+5Ef41n0bYOJZ9OI8BX6UPlfHcezNscDRl2nFgO3SSFEhMOCwGELITlYGWTmqkMRIu2mX9VZQWvxlqjZLDGG7+YzQjAMb3sJPRXnXmoJCVns0GU5filC55sZAioKnAI0AEi2BGyzDizT8f4WdugfXmK7m7SgWGT4zCCfNDk/plUnSShuOI4vhhrqIyFCXrRL9SWhN1tD8ULgImJqMxbGd9QI0JpTmscim3k88jXWxBze6tqNm+GSN2bUVj60HUFjvp55gbcbfMPw4wPorT2WEKwRv+BsXP345g3rmcpNdkTZ9BMDhmnmOG8U8tHfHdH16Ms6ZnuSkRQMnAnqkpkC/156XWc+QUTa/SIqLg9NihTd/iOch3O5j8gfvRyjNXmOFR4Wu/5gQ8WxlnGwkpqmBkSh3ZjNbbvgrsepF9KllL0xozEZh9LiYsuBAHmE951BCBagSnWbrUIIfAdTOxtJl4Wvf+GPZ9N3FsLzCRb034i+iYZjWyJo2f/uM8rP3+RTh9RgUTu14xpekWAVEJzO6GeHZnK89MO/D01o5Isw2VL1pK4qkr7yFXlKdQP05aJNNyJX2Gpfx2dD36W1i7tqPKYQcvxz4dwCGetx69F3tv/jdkmleistCOlMnCGcHopIvU0JSfQ9ojUGTKveSvgbmLuJSA0SID8zckOOfPq8Par5yHt5wxDo28d6iygayAahnIR2hn7Bp4+TTufKYF5177KJZ8eg0+/rONuPjzq7FhfxfVXKFeu6hnNPRRpkS7JVI+1NZVQK4Qm6txYgTKeHb6HRaZskrF4aMortvIdh49lP9kKKlfBaudc7d1Aft2o+OuH8O/67toDPbCcjrJNHMtaleXwzOeNpHJZ0F+65IruDjX4e5EWiMSX728DQnOqaOqUU/NsXgO4vJmlw3PMfmsWLl+L5b/+ypccf2TWLu9jUkd12R9nrnKTfc/T03z6EB7dag/hdh2sCtiSXOzuNQkp8CaKN73UMehg0DLfriuS21gm8y2tgapSZNpjlUIOcayCuje+BD2/ux6ZI8cNBoDvxAljyRuL/lzETZNByrrTd1gNCQ4FTzfJCSzkT9JSNd3rNlHDVmJlRsOmsX92LRE+nliUys1rQBPTpKCqkRL9gqtZPe5PTSNEhw8yswgRGIjO9hxsQqRJvjFAuvpVCsaUf/ea1F35cdw6vuuQ2rR5Qiqm7gE19i6Bd0/uwG13bk4IRVPSjo1pzw7NXIi8yATFExrSYloSHDctKJTlL+s29GOf/j+up4dEExt3XIMWtT89KEQuTzHelR7PxvXJSQkIjS411i7s613Dv7aQqZURWNyJFQgLZB6uqidNgeoGoODYRW2p6uAJeeh6ZqPUiNORloPyw4egv/8M0w8CKbRGJqnxhpzZR01MKKSnSmhIcHJVmSx/sU2XPDZVVhy7Sq0dir/oHNjhLE9G94AWWxCEnpsfYoOkCZSonEiRRCHx4MiGPkqqwj80bglItsj80Er1UePO7g9Gs9iuQRZa0ozLBepk6egPU+zSfF85YYoZC20NjSi5rL3ojBqCpBPwasbTw+jFFUHXV6xOGbDJXoCSt+NiDavHzjJns6cWI8tu9tw7r+swuoXjqDIA6LNzJjnaTkbFAse/riZAgyoNaIQZ0+tQ4FRJXC0c+UkxfDtPAr0B3sO58h03ECydWYChZZAUinZHudzqugjVKQ45KHAoGBkDCW4oh0dLfkrjj0ZjW97J+wpM5AbOc5EVWmOKUYjdTzRb1/moyATUXx8MFFHhddNDRX41Dtm4pEvLOV11jjWiEJzfOigJtzz5D7M/+hK/Pz3O/pP3yOkhTedOZo+hxm1lYrrRNQEMuhx911q4JPrjqClg0eBHqIWcBOkXZFlyV8xd+LBMqxihltTz/yJ83ndyHQz8SvjgHlW3jeRr6WmDu6l76RGcawxw2geleikrw2TeSXjE8b1G9WVac6Fc8dgx48uw4cvnQwnleOuRj5FAgu8ts4iLvjkClz2jSew+zCzUdMaUQKKNlrXOqTOnZBBhZeBS58TzaER8mLaY+UeNfji7c+zLh4c//qU3SX/cqQhD6GUjiVAPk2zYsJn8QgjBS4e2AfXCBsvyvEOVSnNYwWKlShkxiJMsaPRPs0RFwOSZEs2PhoeycD2mAw4Sayfekol8rR1X3k6B/qx1jTVZ/DfH1+ExbMb8dyLzF3MGNPUQ6X3WuR9y08hwBTGll8q72yzc4bmdKBrH1ZvaiGvWl8tZmYKJk3RlXY4LjSbPOeqnTIdXpv8TAXadmyj72J/M1bJKE2B12lqZFUuw2CgJ4nRnEkUFckDyUHEAw0lGJT2K9OcWqqr1cZdK3K3vSyaaipwy/vOwIavn4dzZtUgKIrJqG9pIldKqr5o7mi8f9kULkRwzFql6kuSBvFUfefDe1DkBpS0kHhHvpUaRVqjB2bRb5HOo3ryLJrWGN5XIzy0H+G2zXAElsdDJp28jr9F7keBqufY7dGTQj3cJ0hJ0RKWHFH5wv2oDJwUbd22PbS0d+OTv1iHWROrcdnCJmR54JRJ5LkIpzX4yGymjasx40SqEzDLTh+FH/z9GWRMUyfTl3Mhuz/IjPZff72N13FlD3ESjnWoJTrpyz9E4ZfXzLaPuGnUXPgmXnOgx8Cw8r8xnlZUyeyTsBgnryzYnPA4zjhellKtEK99RB+Qynp4VN0frNiK6R98CN+4dwt3iqFUh8M4i9Iu11Y6uOKS8Xjq28tw9rSRBhBpUW2liw+94yTc+vF5qK12TV1pMQBxfpWQ9zc+uA9H6MN62Y1YNmjR1wXUmsh5crfjVm1LnvmNM3UO3KaxbGP2fXALDtz1E1S174Cb62SiSICoLUkxp3qjeVEJi2wvEjxG28jkSkh8Gl4jKgPnul9txgdu3oACbV6UYv5geOWkmmfuSTV49ltL8bWrpqKBZhF6RSP4m89qwp6bluPzfzUb6QIdLessAWqAkH33MqG5mre149/u2BLX9DJjiAKBuUsUrcrbskWbDt5GZzqDurdezrDOWEX/mNuxGgd/czOamHSioIfysaYYgFmnIkp+SX1WjXDRRW+XgXUrabddi6acwm/XH8a8D6/E5r2daEg7dKZZqquLhdNG4PEvLcRPPnA67T2HsItJoknHBW5vCXnY9Fl0WPRSaVzz3eaSDSrhRkTA7a0bGeo1Ug/TlFcRBGptkUAXqck+B7emR6D20vdwOE0+x8le3INdP/0q3N/fhqY9WzHBP4oJbjeyPG+5PgtN0FFJ3GaybMxHdFvOi+Pa2c+Uq79QjH5nTKilNm3Cl369mX6oiAtnNWDhlFGcT08DbcybVIdRNRmeuqUpZiSB4E/yEDyahgzRUfK6m+esd3/paazeeLh0E/uRtY0n74Wvp9w0T64T9aUmSAvjQ2zIDDnkwbFu7Dh079jFKEUXUOBZrnUv2jc1o21jM9q3bwZOOY28MaPnHGIxYpPM0BSs5odh0akbMrwKA/3wD4vpm5Dq9YJu+tgq3Pqh+Vj53AGsotYkgmQrldCplyo4uZlD930pajd9TL8CCvRfH7t5PR54ihEmnm8wstoOAb/8BgMao5D6GgWM1+XgxGwK3JGOSTNRe/kVCE46hV1StMoOjjsI58AuhJvWUvMYfs3j2V6eBqTYhEtby8AZWZ3CF/5iClZ/cTHezCilqKHTeEL6MECCmRxB0WIYJMfaSQf7iR8144cP7DkmMAnZz66B851P0tG20KzkPGmeJVFH5y3dF+hc2xrGoO6yq1GpKJZpYHtFlKMRqHT7LiaGSSoRFW1Yf2Jdn2rHRuYz8TV++MEz8M4lNbCyaQrl49YVe5gJ54wznjepFp9ePh1VWcZNQlquMewQ32ppPdhW5loM6Ye4u5de9yTueIwaE3XpT/RHZZwZG+VM7UfhP3IXrD07YE0/i86X/RTxyJva9YDfgM30I6yqQq5iBBrnLQbqx9E/sW+xC9aIJliNJzGN1HEzXoUsyllbzY/AaonNagAqe4b8q3+ezyPEKCqMEigXSz/1mIlc1181B/PpX1z6Er3t7KWe5XpIvshHDTLFVjQfeBF/+dXN2Lqve2CNEcB6m3HOMgQTp9Fu00DbUdgbnoC18WlORiA0UP0qahG+dhm886kdDMc6iad4RAiMD5Im019oShYTKMmJr5RANTpulJAe3gVFcvrz62C98GwsQn8Gy8C565NnYtHMGri03Y27O7F+ZzuWLxhHc1ISqGWlNGImsUYN7Z00CpsBugjo15knXX/ndhT6ZcAizpXJUNg3wL34SkZfPb6kwPFjBDdNzd2xCdYDP4fdvKZniIAKR/GU/frLEMw4m6k8nbBezXCBhD/DQ0yqS8yQLVElSQ46NOB8EdamBBxRbx9RDzia6IHPnYNTRtfixns24DsP7MZDnz0Hp02oM9pSDk5/EgN6Erii+QCuvW0znt3RNgAoJO5aOG0u/Le9G2HjGazgfE4HJ+BvGO+wAYLJp9qa18O573sAtdD0SUCYPAPW8mvgNYxmFU3QnOHUEPmiBBjzaYzyrVLQdKoXOL/4Uh9wRLqJ1jDgJIJfuXQ0fvS7/SYSa67Hv7wUU8dXRAuY5zl6P1kKTsSAQNl3pICrvvU01jx/xMxdwguJFWK2pgHBX30C1mmvYYcj9LEjqCyMJjoeKJ9JiAwo7a9hFtuFCjjVzI/uug0WcxgUGcHkBMUzFwnPWIpgGRPCLE2MHlSO25ylYpnEu96fllJ/cMqYJUVjy8wqXq+H1l5/EUaPD1DB/OTme/Zh7rQqvO5UahLR1csCKzsKbUe68bffeQr3rz1AG48y6TLSpCn6lbe/F+GZF0UHSvOSP88mfaXDVD4WRMcGvZ1wzVtMKhQFLdJmikE375mr5Gl6D/wY1poHOZ5AJJrEjNlfcimCc9/A7LpAjdMjEuVWBIoThSZasXu8jMCxEnA2rxsAnIjKwBEliEsjNv7HxXhi215cxyTw+V3duPNT87F4Rh0yzDm60lX42Peacfuju6KXcZwlmciotC5YGSx+O9wL3oWgNsP9iOr1SYo4VSRTxqv3S3ryZ17fkGmL5qVTs4TSITLUydr805zUqv07Yd39I0CCmVoW/YwaC3/xWxDOoLkGdOCc23JlstJKrccfXXFTLGbL5eDEjYYiSQYEJ7HPs6bW44lNR3sAu/dz52JuUwq3rNiP6+95gVlz9PizbAItohP59AUIl14GTJ7HiKJXO3rap4Mge+jzEh0gOa8fdtKndcM9vA3ta1aiegbHjZ2OvFvFUwM1xahaxHrCR3IdPPMI7N/fyVBPf2SIZqa/U2YTpHcCY8cgVeGhwPOWcfbRcP5G4Di//HI/cLREIn8/cEop6hjfkK59+3Se2neYZ76aq7TNEAeEjROBS65AOGsh5QrgZWiE7GvR5MS5Frap8hmG13ShE5Xt+9HSvBqFP/6WU3Zyk2uACdNQd+a5yI2fCj8Owz0MxwDpK1M58ywn9+7/NR3k/TyfdLKjomPcZ+F5CM48H2H1GA6k9igYiri+Aee2fx/ErKLxQ4LTlzTE7FjfyaQpeqN4ydXILH4Xcv5R85xTZyoDGLtIloRpgZWl0/X3bkTxZ4xEeao+6Fd4yg4K3fQhHCG/NPONqD1rCcJsLc9lFI5mJwPR+p5e93IeuxDClT+iafq3fo15y9P073LwnENAcoy/7CrYc18HPx1FLdvJIsgHcG/7Cs9xzw0KjuNYvRnycKhsGi4sCs+5CM7ffRbeyVN4mubuKf9gvR3wUOpV8Ja7L3DM4wu2UCq9dXTsDvgvPAN0tSJdkYEnaZldUwr2JzgHX0R+3VqCF6Bm9FjzPj1N86BnMpojmXQAlVYEGjv7tbBmLwR2bWMyqQ81xRxTgi1rYa97FBg3CWHdCGbvHJMnSA/dCnj934wk4AzpkEtJ9T116iPGpp8Bn0lcatIkZtJ67qy26N2QwYCnd4YqbbUBx5ABgPdM+lJugLq9O3Hop9+jorVBGJq+6iLnxItM3qGWZOFPaET1gsWwJsxEkK5AQV+Tsl1OXY9RxZ+Zmc7bPDvf3Azr/ptgHTlolov+sD/zo/Dk2bD37gA2Pq6GPhTzp6vBwBH1BciQQGqawNziHbBmXEgh9Cqly9RH7QSGTlSHiDRP4q6nT/nld5j1cofzcrBKKo3sNrOYPNxnHkPbKobnYrsq+V+AEdV1ONLKCMbxIVOJMMMQ7fHcN2oasotfh3DcZEZ+pgLmk9xobXJGpuX0o8fnsLpgP3I3nFUrgE7NHQGUCH8s6mdWpeD0o8pqhOdfCu/q9yMcfyqZ1s5RLUs1Sos7IbJ+AdmDB+Bs3YTwhRdRSx+e1ZeVFRzDdreYRRX7FCqpaSNGI2htRXhoF4HTRAHGTpmK7JxF6D7ayTuCr5BMM0wVO9D99DOwu7tQ2zQSRfkPbVj8zzg35k6h3u2kuCmTZyGYfw6sA/thHT0Utw+PjOYMBkip5qiP95Fvwx5Rr9fUDMG0AamzzMCYivpEn8FVUnuc7U/h6IOMInom48uNUmoJXplG/QyaxoTTYDWNQUea2hBUoyG3Ewfv/S6wrwVZRhLfSaNy0dtRPWsG9mx6CuFjf2DeeJiKQZ+mF1vURKQqUTlvERqWLMJun9pYrKJ2kTnpkDZOTOkcZZGHAhPMA1vh3vRlYq+8aiDiHBQlkdtozpDaIqL6B7PPRnD2MkYFOjKOTZ7qa8Ko8C/7pZm4dd99K3LProZTaONO60ApJ8A8x2dWzGjk79+P7i2bkF/7DKPLBtht+80pfvJJY3Fg8zYKw8hDf1Q4cAiF6VNoxhNRP+9M+F0O/CPyLykGRx+23w5vz060bX8BmclTCTKPOibhc/iPkY2bpjuRTuJubRPC9X+E1dEa15ZSfwyGBw73wKLNhguWGlWNoTA7Izeof4lGW/QzlS5DbUc7gpYWVBIU1XncQTGoTTGZSAWZ7TwK//B+BHu2oItCtuzluY7Rw9eXoox4dncR3uEupGbMQwc1ZQS1raZpKjxm0cV25kTIMCeah1rmMlblCHIjj66QH8vDX7pnrukzQoWo5WYWf38HfVvp6+dSKsdh2D7HItP2+sdh1TcCjU2soaBRS1SM1BKbmlVbg+rJp8GuyKKzZTczYWoCd7FnbqreiJMnoG7KqbBHjmPkyVKxigiZxIX6wkKPL5i3hG6Wc41DduJUAm+hQIBydSNRdcoUFDI1qJo+F5nZixA0NKFA4D19WKDopc/PxBPXMxtBM3K3NyN/yxcRtpd/0dHD/wB0nNFKC/KHzti+/EPwamjjKcYljun5OMmoj5y0g1QhjxHeUbQ+vgL5LZspfBcPkzmmMITQpwA1IzDxgkuQYVad7+xA14F9OPriDgSHeHZyc8jMPRdphl09PDMHVDeDolXBPaDPCAgg13YL+h9KeODliTzkAddmjuQQHM/OI618qZ1+6t4fINzMfGkAkryRmH1lZdtxh3JD7KPz0pyz4V/6bgQZRgx9vqoX+Bwipyyf5CtTpTZl/RxGex3Y+V93MbHbTp3rojgER9GrqoI5HDXptW8GmubhMEHLpJlEFg8RiFHsx3OQMnCNUBogKGgm0VdirCWPEc/UGGqk4xM8Hlb9dDvSd9yGsHkVO5GPoWQx1L/9uMEpb+efmjo66osRLH0rUxwmdqyTUigTjt42imHuKsN22smhaudOdD/+BJPiTUyGeVQANUAP0MNqZCbMZuR5PVqdSqZCGeQYEWmkFFprSiN1Oo/AERiiUnA4Ec3Khf3ECtir7obVQRPqkaGXb3NpqkvlK2mP6/uBI0oAODY4ao9WshlRUhddjq4pcyhM5BSl/qYLTUxfUrm8T9E8MkEehS1r0LnuSap9C9vbiJHeMNDBputQPX8JijMZnVI1mllLkeQ99GhEIAn6qN5Mz0VsOfzNz8Je+RtgN48PsYD9qAeYngtS6XUvDXi2KgWgLw0GXNjVDp8qrG+EMZon8yqerqMWrkKBWMwnIvIHOg81jMLIaTMRdnQxsuWYFFK7zOdu3SgcYvKYqoY9OvkqS2upyKwi0glLJH9jH94H647vm2xYD+ijvidOQ2pOQqVAlILTX4vYruSLMoSvuQDeouWoqmtALkjT1LLcnzxFYkJmHosSLD/Q627zqKHjsd/B37YOzvx5qD5tLgq1o5m3ZTmvmdaQ+R9DpJV0tOm8ngVxrsd/Q225RwubOclU3HsA6pmrn8jlFM/xksHpS301ySwgR01fFJx1CfFQnkPmGUWU9+hrb0vOSV3JbJoJY0YfULsp5Jn5mnM91UbBuGdDeNiUg1diZz21BvjDLwmsHneUrj0wf+V0LHDin4HAefkoFqppPILzlsOdeyYK5hmvIhtz2MhmDK/GiQtgASEtkAnp/TcbBY7aUgzV3qbn4Dx0O7Cf5zCzIa8A+4YtbswrC04JMRwHp56GgAfXcNTJ1B6l+OKCwvOwZt5ICgSTACqDVQQTiMKLjB7aC+vR+2CveyIG5ZUkbRD/S9t13JRXBx+jFVrrtZcgWLAMqepGeHTAFg+ZAiKguVkEx3OZRNLEpGFhWw720w8zNP+X+TxFYA6PzPaTXops0VijOYnavnrExV0XwUVXI/2aBcjl8zwqVLC6lwdLr1U28PB6508iQOVsTb356VUe3Z8Q64OD+OqZVT8iU/QtYV09UgvOhz/pdB5HanmAz0X5yh9/Z0wpASWh/zVwXk0N6olAWk/X+lWYVqqf3A9ALzs4Zi1d9J+kn+aUMT0IDaeP6FUBe0hwIj4jOn4+okRjAEoA6EuD1Q9ErwowryANCs5ggr3iAv8fon7gSPiBAJDGlJrTYCAdj2YNRsqLB6OIj/hGLAy5V0mHITsNSoNqzkulE9cs+qn4ajA60RWGR8D/AK9CSS2ewmVCAAAAAElFTkSuQmCC;" parent="1" vertex="1">
                    <mxGeometry x="210" y="145" width="37.87" height="40" as="geometry"/>
                </mxCell>
                <mxCell id="rirupHPmU7Hzg7xjt6_u-29" value="0.00 OKB" style="text;html=1;strokeColor=none;fillColor=none;align=center;verticalAlign=middle;whiteSpace=wrap;rounded=0;fontStyle=1;fontSize=16;" parent="1" vertex="1">
                    <mxGeometry x="1474" y="-567" width="110" height="30" as="geometry"/>
                </mxCell>
                <mxCell id="rirupHPmU7Hzg7xjt6_u-30" value="我待备份的数据大小" style="text;html=1;strokeColor=none;fillColor=none;align=center;verticalAlign=middle;whiteSpace=wrap;rounded=0;" parent="1" vertex="1">
                    <mxGeometry x="1398" y="-390" width="135" height="30" as="geometry"/>
                </mxCell>
                <mxCell id="rirupHPmU7Hzg7xjt6_u-35" value="20000" style="text;html=1;strokeColor=default;fillColor=none;align=center;verticalAlign=middle;whiteSpace=wrap;rounded=0;" parent="1" vertex="1">
                    <mxGeometry x="1533" y="-385" width="97" height="20" as="geometry"/>
                </mxCell>
                <mxCell id="rirupHPmU7Hzg7xjt6_u-36" value="GB" style="text;html=1;strokeColor=none;fillColor=none;align=center;verticalAlign=middle;whiteSpace=wrap;rounded=0;" parent="1" vertex="1">
                    <mxGeometry x="1620" y="-390" width="60" height="30" as="geometry"/>
                </mxCell>
                <mxCell id="rirupHPmU7Hzg7xjt6_u-37" value="预计备份时长" style="text;html=1;strokeColor=none;fillColor=none;align=left;verticalAlign=middle;whiteSpace=wrap;rounded=0;" parent="1" vertex="1">
                    <mxGeometry x="1410" y="-360" width="135" height="30" as="geometry"/>
                </mxCell>
                <mxCell id="rirupHPmU7Hzg7xjt6_u-38" value="" style="verticalLabelPosition=bottom;verticalAlign=top;html=1;shadow=0;dashed=0;strokeWidth=1;shape=mxgraph.android.progressScrubberPressed;dx=0.3;fillColor=#33b5e5;" parent="1" vertex="1">
                    <mxGeometry x="1410" y="-330" width="250" height="16" as="geometry"/>
                </mxCell>
                <mxCell id="rirupHPmU7Hzg7xjt6_u-39" value="24 个月" style="text;html=1;strokeColor=none;fillColor=none;align=right;verticalAlign=middle;whiteSpace=wrap;rounded=0;" parent="1" vertex="1">
                    <mxGeometry x="1525" y="-360" width="135" height="30" as="geometry"/>
                </mxCell>
                <mxCell id="rirupHPmU7Hzg7xjt6_u-40" value="预期需要 30000 GWT, 0.05个OKB&lt;br&gt;备份时消费，未消费的GWT/OKB可随时提取" style="text;html=1;strokeColor=none;fillColor=none;align=center;verticalAlign=middle;whiteSpace=wrap;rounded=0;" parent="1" vertex="1">
                    <mxGeometry x="1415" y="-304" width="240" height="44" as="geometry"/>
                </mxCell>
                <mxCell id="rirupHPmU7Hzg7xjt6_u-41" value="已充值,下一步" style="rounded=0;whiteSpace=wrap;html=1;" parent="1" vertex="1">
                    <mxGeometry x="1430" y="-250" width="210" height="40" as="geometry"/>
                </mxCell>
                <mxCell id="rirupHPmU7Hzg7xjt6_u-42" value="&lt;span&gt;&lt;font color=&quot;#3399ff&quot;&gt;How to buy GWT/OKB?&lt;/font&gt;&lt;/span&gt;" style="text;html=1;strokeColor=none;fillColor=none;align=center;verticalAlign=middle;whiteSpace=wrap;rounded=0;fontStyle=4" parent="1" vertex="1">
                    <mxGeometry x="1454" y="-210" width="150" height="30" as="geometry"/>
                </mxCell>
                <mxCell id="rirupHPmU7Hzg7xjt6_u-43" value="" style="verticalLabelPosition=bottom;verticalAlign=top;html=1;shadow=0;dashed=0;strokeWidth=1;shape=mxgraph.android.phone2;strokeColor=#c0c0c0;" parent="1" vertex="1">
                    <mxGeometry x="1750" y="-730" width="300" height="610" as="geometry"/>
                </mxCell>
                <mxCell id="rirupHPmU7Hzg7xjt6_u-44" value="Add DMCX - Step 3" style="strokeWidth=1;html=1;shadow=0;dashed=0;shape=mxgraph.android.action_bar;fillColor=#E6E6E6;strokeColor=#c0c0c0;strokeWidth=2;whiteSpace=wrap;" parent="1" vertex="1">
                    <mxGeometry x="1761.5" y="-674" width="277" height="30" as="geometry"/>
                </mxCell>
                <mxCell id="rirupHPmU7Hzg7xjt6_u-45" value="Done" style="rounded=0;whiteSpace=wrap;html=1;" parent="1" vertex="1">
                    <mxGeometry x="1795" y="-250" width="210" height="40" as="geometry"/>
                </mxCell>
                <mxCell id="rirupHPmU7Hzg7xjt6_u-47" value="" style="verticalLabelPosition=bottom;verticalAlign=top;html=1;shadow=0;dashed=0;strokeWidth=1;shape=mxgraph.android.phone2;strokeColor=#c0c0c0;" parent="1" vertex="1">
                    <mxGeometry x="1160" y="-365" width="160" height="235" as="geometry"/>
                </mxCell>
                <mxCell id="rirupHPmU7Hzg7xjt6_u-48" value="Import UI" style="text;html=1;align=center;verticalAlign=middle;resizable=0;points=[];autosize=1;strokeColor=none;fillColor=none;" parent="1" vertex="1">
                    <mxGeometry x="1200" y="-270" width="70" height="30" as="geometry"/>
                </mxCell>
                <mxCell id="rirupHPmU7Hzg7xjt6_u-49" value="" style="verticalLabelPosition=bottom;verticalAlign=top;html=1;shadow=0;dashed=0;strokeWidth=1;shape=mxgraph.android.phone2;strokeColor=#c0c0c0;" parent="1" vertex="1">
                    <mxGeometry x="1160" y="-720" width="150" height="240" as="geometry"/>
                </mxCell>
                <mxCell id="rirupHPmU7Hzg7xjt6_u-50" value="Create Acount OK&lt;br&gt;Ask user backup Acount" style="text;html=1;align=center;verticalAlign=middle;resizable=0;points=[];autosize=1;strokeColor=none;fillColor=none;" parent="1" vertex="1">
                    <mxGeometry x="1160" y="-625" width="150" height="40" as="geometry"/>
                </mxCell>
                <mxCell id="rirupHPmU7Hzg7xjt6_u-51" value="Set Requiment For Supply" style="text;html=1;strokeColor=none;fillColor=none;align=center;verticalAlign=middle;whiteSpace=wrap;rounded=0;fontStyle=1" parent="1" vertex="1">
                    <mxGeometry x="1810" y="-640" width="180" height="30" as="geometry"/>
                </mxCell>
                <mxCell id="rirupHPmU7Hzg7xjt6_u-53" value="Price：" style="text;html=1;strokeColor=none;fillColor=none;align=center;verticalAlign=middle;whiteSpace=wrap;rounded=0;" parent="1" vertex="1">
                    <mxGeometry x="1790" y="-600" width="60" height="30" as="geometry"/>
                </mxCell>
                <mxCell id="rirupHPmU7Hzg7xjt6_u-54" value="Pledge Rate:" style="text;html=1;strokeColor=none;fillColor=none;align=center;verticalAlign=middle;whiteSpace=wrap;rounded=0;" parent="1" vertex="1">
                    <mxGeometry x="1795" y="-560" width="80" height="30" as="geometry"/>
                </mxCell>
                <mxCell id="rirupHPmU7Hzg7xjt6_u-55" value="Stroage Time:" style="text;html=1;strokeColor=none;fillColor=none;align=left;verticalAlign=middle;whiteSpace=wrap;rounded=0;" parent="1" vertex="1">
                    <mxGeometry x="1795" y="-520" width="80" height="30" as="geometry"/>
                </mxCell>
                <mxCell id="rirupHPmU7Hzg7xjt6_u-56" value="Copys" style="text;html=1;strokeColor=none;fillColor=none;align=left;verticalAlign=middle;whiteSpace=wrap;rounded=0;" parent="1" vertex="1">
                    <mxGeometry x="1795" y="-480" width="80" height="30" as="geometry"/>
                </mxCell>
                <mxCell id="rirupHPmU7Hzg7xjt6_u-59" value="&amp;lt;1.2, &amp;gt;0.2" style="text;html=1;strokeColor=default;fillColor=none;align=center;verticalAlign=middle;whiteSpace=wrap;rounded=0;" parent="1" vertex="1">
                    <mxGeometry x="1920" y="-595" width="97" height="20" as="geometry"/>
                </mxCell>
                <mxCell id="rirupHPmU7Hzg7xjt6_u-60" value="3" style="text;html=1;strokeColor=default;fillColor=none;align=center;verticalAlign=middle;whiteSpace=wrap;rounded=0;" parent="1" vertex="1">
                    <mxGeometry x="1920" y="-555" width="97" height="20" as="geometry"/>
                </mxCell>
                <mxCell id="rirupHPmU7Hzg7xjt6_u-61" value="24 Month" style="text;html=1;strokeColor=default;fillColor=none;align=center;verticalAlign=middle;whiteSpace=wrap;rounded=0;" parent="1" vertex="1">
                    <mxGeometry x="1920" y="-515" width="97" height="20" as="geometry"/>
                </mxCell>
                <mxCell id="rirupHPmU7Hzg7xjt6_u-62" value="2" style="text;html=1;strokeColor=default;fillColor=none;align=center;verticalAlign=middle;whiteSpace=wrap;rounded=0;" parent="1" vertex="1">
                    <mxGeometry x="1920" y="-475" width="97" height="20" as="geometry"/>
                </mxCell>
                <mxCell id="rirupHPmU7Hzg7xjt6_u-63" value="说明原理，该备份源是如何可靠的，可能得到的奖励，在丢失数据后得到矿工的保证金" style="text;html=1;strokeColor=none;fillColor=none;align=center;verticalAlign=middle;whiteSpace=wrap;rounded=0;" parent="1" vertex="1">
                    <mxGeometry x="1780" y="-374" width="240" height="64" as="geometry"/>
                </mxCell>
                <mxCell id="rirupHPmU7Hzg7xjt6_u-64" value="" style="verticalLabelPosition=bottom;verticalAlign=top;html=1;shadow=0;dashed=0;strokeWidth=1;shape=mxgraph.android.phone2;strokeColor=#c0c0c0;" parent="1" vertex="1">
                    <mxGeometry x="2080" y="-730" width="300" height="610" as="geometry"/>
                </mxCell>
                <mxCell id="rirupHPmU7Hzg7xjt6_u-65" value="DMCX Settings" style="strokeWidth=1;html=1;shadow=0;dashed=0;shape=mxgraph.android.action_bar;fillColor=#E6E6E6;strokeColor=#c0c0c0;strokeWidth=2;whiteSpace=wrap;" parent="1" vertex="1">
                    <mxGeometry x="2091.5" y="-674" width="277" height="30" as="geometry"/>
                </mxCell>
                <mxCell id="rirupHPmU7Hzg7xjt6_u-66" value="" style="dashed=0;align=center;fontSize=12;shape=rect;fillColor=#ffffff;strokeColor=#eeeeee;shadow=1;strokeWidth=1;verticalAlign=middle;fontFamily=Helvetica;fontColor=default;html=1;" parent="1" vertex="1">
                    <mxGeometry x="2380" y="-680" width="100" height="180" as="geometry"/>
                </mxCell>
                <mxCell id="rirupHPmU7Hzg7xjt6_u-67" value="Logout" style="text;fontColor=default;verticalAlign=middle;spacingLeft=13;fontSize=12;resizeWidth=1;whiteSpace=wrap;html=1;fontFamily=Helvetica;" parent="rirupHPmU7Hzg7xjt6_u-66" vertex="1">
                    <mxGeometry width="100" height="45" relative="1" as="geometry"/>
                </mxCell>
                <mxCell id="rirupHPmU7Hzg7xjt6_u-68" value="Export Account" style="text;fontColor=default;verticalAlign=middle;spacingLeft=13;fontSize=12;resizeWidth=1;whiteSpace=wrap;html=1;fontFamily=Helvetica;" parent="rirupHPmU7Hzg7xjt6_u-66" vertex="1">
                    <mxGeometry y="40" width="100" height="45" as="geometry"/>
                </mxCell>
                <mxCell id="rirupHPmU7Hzg7xjt6_u-69" value="Disable" style="text;fontColor=default;verticalAlign=middle;spacingLeft=13;fontSize=12;resizeWidth=1;whiteSpace=wrap;html=1;fontFamily=Helvetica;" parent="rirupHPmU7Hzg7xjt6_u-66" vertex="1">
                    <mxGeometry y="85" width="100" height="45" as="geometry"/>
                </mxCell>
                <mxCell id="rirupHPmU7Hzg7xjt6_u-70" value="" style="shape=image;verticalLabelPosition=bottom;labelBackgroundColor=default;verticalAlign=top;aspect=fixed;imageAspect=0;image=data:image/png,iVBORw0KGgoAAAANSUhEUgAAAEcAAABLCAYAAAAicppkAAAAAXNSR0IArs4c6QAAAARnQU1BAACxjwv8YQUAAAAJcEhZcwAADsMAAA7DAcdvqGQAAB6gSURBVHhe7VsHmF5VmX5v+cv0mWSSSQUS0kgjwVCiISEUAxoVCyvrupT1Yd19HsvuWtayYlldLItlRVFRVBQL6IK0BVyMBkICSMkQkkB6SE8myfS/3LLve+69M/8/LRMC7LqPXzjz33vq973na+fei5WyakMMQZZlIQyH7PInSFb8O7Rcdvz7ZxqAjgnOn4LWSLtVejXiWCSZ+sil8X3m+H+hOWH8z7JOYCM5VMNL4f2zWfVQf2CHDU6v6g5Nw+kzPEpUfPD5yFFZsxFvwGFlNyTeJ2YkueL2RAMTetk152XxUbZNnmkm5G4oU1FLX7GHRWbO0nk1S2mJaNjgSOgTFdws3bv2IMTU4bTXIPjA1+Cf/1auqarBBokn8zNwORZpsPmvb+dovSHznMRETgQUM4P+cIpM2kYm5aC9y0PQM2ep4KxLpRHc8BCCilpe+8DWDXDu/CGsJ1cAQRD1OW6KGUioz215RS8/JwSO2gdqM6PYlnYtnD6pDhed3oALTx+DKeOq4ToWDh0t4vZVB3Dj/ZvQ0lYwbEWz8G+2Et4ND8PJhAhoV0EYENQsin+4B/ZdN8HaszXqfAIbNlw6ZoZ8vGQTmQpqyMWnj8Y33zMH1fUuuP+ATx+if0KOCpB26rG3pQNz/uk+dOX9nn1DtgreN1fDzrYhtNKsdwwOJswGWeDum+Hc9x0g102ApEkDkNYYSqpoz4fuQ3rZwLEptUzlqqWn4PN/OR71NIuAjjVwvTh/cCI/KLIIBtuKXgUefHIf3nX9oyXgVKJ4w+9gp/LsU0H5KUmsJZZXzb8BQn8f3B9/E9ajd/NebT2jIzqW8K8WONIEAfPG+aPx6b+YhemNWaRcRzPD5857qcO89shItgccCx7YSjEt2Blg2t8/gp37cxGvAufG3zBSUWssNhrlUNygeXEaO7SRo7k6cBFsex7Or24A1q/SpFyjRBRzH132p+Gh85J9TjL9opkj8eG3TMfS2Q2RhvTEv8iMQmmJuSdgoamhqAEcAcYBgWvjqm+swy8f3mN6oULgPMi+hI4Am6WjP2ZNi3OEWoS/IivwYT39MKz//DasfTtNXc8uxD8vlYYdyhMSSw4dy9TxNbjlIwtx56cWYcnsEVIfU0IyFhVtORkng7ZAiRkVPIZpaoAuPfqiJbMaI1+UkJwU28OQFyoxaZNMlDO+RscFmjK1yF+wCP51v4D/lvcAtQ2cN17jBOm4wamrTOGGq+dg9fWL8ba5dajyitSC3s0S2bxWiaaPpNbf3sWiOiMsfcr8SfWRcphKtnoB7MCFwzaH90kRGJY2IRrOsQRO4Z1toU8zXX4Fwi/cDnv+hVzM1YCo43GTxtHko5uBScwnJqV1RtemseEri3Hlkibe5+GnPPhOScQw2pJQ36k1j9pZjGapjn04f1Ndmn6K17EwKV/g0Az7UOkG9JD4M/kPicB5FQ68a/4FwRd+gvDkU1kZCdpbBqCyat1oIZn/cVA246KmljvCbUwb/8EpyLH8iCmcc0ABDEULqph/HCyR5Fpr0mlUZgRGNNijKfnI85b3piP7E4CA/outcHyP1Wy3Gc6tIuukQbz1udsElfEMQcN4eB+5Ef41n0bYOJZ9OI8BX6UPlfHcezNscDRl2nFgO3SSFEhMOCwGELITlYGWTmqkMRIu2mX9VZQWvxlqjZLDGG7+YzQjAMb3sJPRXnXmoJCVns0GU5filC55sZAioKnAI0AEi2BGyzDizT8f4WdugfXmK7m7SgWGT4zCCfNDk/plUnSShuOI4vhhrqIyFCXrRL9SWhN1tD8ULgImJqMxbGd9QI0JpTmscim3k88jXWxBze6tqNm+GSN2bUVj60HUFjvp55gbcbfMPw4wPorT2WEKwRv+BsXP345g3rmcpNdkTZ9BMDhmnmOG8U8tHfHdH16Ms6ZnuSkRQMnAnqkpkC/156XWc+QUTa/SIqLg9NihTd/iOch3O5j8gfvRyjNXmOFR4Wu/5gQ8WxlnGwkpqmBkSh3ZjNbbvgrsepF9KllL0xozEZh9LiYsuBAHmE951BCBagSnWbrUIIfAdTOxtJl4Wvf+GPZ9N3FsLzCRb034i+iYZjWyJo2f/uM8rP3+RTh9RgUTu14xpekWAVEJzO6GeHZnK89MO/D01o5Isw2VL1pK4qkr7yFXlKdQP05aJNNyJX2Gpfx2dD36W1i7tqPKYQcvxz4dwCGetx69F3tv/jdkmleistCOlMnCGcHopIvU0JSfQ9ojUGTKveSvgbmLuJSA0SID8zckOOfPq8Par5yHt5wxDo28d6iygayAahnIR2hn7Bp4+TTufKYF5177KJZ8eg0+/rONuPjzq7FhfxfVXKFeu6hnNPRRpkS7JVI+1NZVQK4Qm6txYgTKeHb6HRaZskrF4aMortvIdh49lP9kKKlfBaudc7d1Aft2o+OuH8O/67toDPbCcjrJNHMtaleXwzOeNpHJZ0F+65IruDjX4e5EWiMSX728DQnOqaOqUU/NsXgO4vJmlw3PMfmsWLl+L5b/+ypccf2TWLu9jUkd12R9nrnKTfc/T03z6EB7dag/hdh2sCtiSXOzuNQkp8CaKN73UMehg0DLfriuS21gm8y2tgapSZNpjlUIOcayCuje+BD2/ux6ZI8cNBoDvxAljyRuL/lzETZNByrrTd1gNCQ4FTzfJCSzkT9JSNd3rNlHDVmJlRsOmsX92LRE+nliUys1rQBPTpKCqkRL9gqtZPe5PTSNEhw8yswgRGIjO9hxsQqRJvjFAuvpVCsaUf/ea1F35cdw6vuuQ2rR5Qiqm7gE19i6Bd0/uwG13bk4IRVPSjo1pzw7NXIi8yATFExrSYloSHDctKJTlL+s29GOf/j+up4dEExt3XIMWtT89KEQuTzHelR7PxvXJSQkIjS411i7s613Dv7aQqZURWNyJFQgLZB6uqidNgeoGoODYRW2p6uAJeeh6ZqPUiNORloPyw4egv/8M0w8CKbRGJqnxhpzZR01MKKSnSmhIcHJVmSx/sU2XPDZVVhy7Sq0dir/oHNjhLE9G94AWWxCEnpsfYoOkCZSonEiRRCHx4MiGPkqqwj80bglItsj80Er1UePO7g9Gs9iuQRZa0ozLBepk6egPU+zSfF85YYoZC20NjSi5rL3ojBqCpBPwasbTw+jFFUHXV6xOGbDJXoCSt+NiDavHzjJns6cWI8tu9tw7r+swuoXjqDIA6LNzJjnaTkbFAse/riZAgyoNaIQZ0+tQ4FRJXC0c+UkxfDtPAr0B3sO58h03ECydWYChZZAUinZHudzqugjVKQ45KHAoGBkDCW4oh0dLfkrjj0ZjW97J+wpM5AbOc5EVWmOKUYjdTzRb1/moyATUXx8MFFHhddNDRX41Dtm4pEvLOV11jjWiEJzfOigJtzz5D7M/+hK/Pz3O/pP3yOkhTedOZo+hxm1lYrrRNQEMuhx911q4JPrjqClg0eBHqIWcBOkXZFlyV8xd+LBMqxihltTz/yJ83ndyHQz8SvjgHlW3jeRr6WmDu6l76RGcawxw2geleikrw2TeSXjE8b1G9WVac6Fc8dgx48uw4cvnQwnleOuRj5FAgu8ts4iLvjkClz2jSew+zCzUdMaUQKKNlrXOqTOnZBBhZeBS58TzaER8mLaY+UeNfji7c+zLh4c//qU3SX/cqQhD6GUjiVAPk2zYsJn8QgjBS4e2AfXCBsvyvEOVSnNYwWKlShkxiJMsaPRPs0RFwOSZEs2PhoeycD2mAw4Sayfekol8rR1X3k6B/qx1jTVZ/DfH1+ExbMb8dyLzF3MGNPUQ6X3WuR9y08hwBTGll8q72yzc4bmdKBrH1ZvaiGvWl8tZmYKJk3RlXY4LjSbPOeqnTIdXpv8TAXadmyj72J/M1bJKE2B12lqZFUuw2CgJ4nRnEkUFckDyUHEAw0lGJT2K9OcWqqr1cZdK3K3vSyaaipwy/vOwIavn4dzZtUgKIrJqG9pIldKqr5o7mi8f9kULkRwzFql6kuSBvFUfefDe1DkBpS0kHhHvpUaRVqjB2bRb5HOo3ryLJrWGN5XIzy0H+G2zXAElsdDJp28jr9F7keBqufY7dGTQj3cJ0hJ0RKWHFH5wv2oDJwUbd22PbS0d+OTv1iHWROrcdnCJmR54JRJ5LkIpzX4yGymjasx40SqEzDLTh+FH/z9GWRMUyfTl3Mhuz/IjPZff72N13FlD3ESjnWoJTrpyz9E4ZfXzLaPuGnUXPgmXnOgx8Cw8r8xnlZUyeyTsBgnryzYnPA4zjhellKtEK99RB+Qynp4VN0frNiK6R98CN+4dwt3iqFUh8M4i9Iu11Y6uOKS8Xjq28tw9rSRBhBpUW2liw+94yTc+vF5qK12TV1pMQBxfpWQ9zc+uA9H6MN62Y1YNmjR1wXUmsh5crfjVm1LnvmNM3UO3KaxbGP2fXALDtz1E1S174Cb62SiSICoLUkxp3qjeVEJi2wvEjxG28jkSkh8Gl4jKgPnul9txgdu3oACbV6UYv5geOWkmmfuSTV49ltL8bWrpqKBZhF6RSP4m89qwp6bluPzfzUb6QIdLessAWqAkH33MqG5mre149/u2BLX9DJjiAKBuUsUrcrbskWbDt5GZzqDurdezrDOWEX/mNuxGgd/czOamHSioIfysaYYgFmnIkp+SX1WjXDRRW+XgXUrabddi6acwm/XH8a8D6/E5r2daEg7dKZZqquLhdNG4PEvLcRPPnA67T2HsItJoknHBW5vCXnY9Fl0WPRSaVzz3eaSDSrhRkTA7a0bGeo1Ug/TlFcRBGptkUAXqck+B7emR6D20vdwOE0+x8le3INdP/0q3N/fhqY9WzHBP4oJbjeyPG+5PgtN0FFJ3GaybMxHdFvOi+Pa2c+Uq79QjH5nTKilNm3Cl369mX6oiAtnNWDhlFGcT08DbcybVIdRNRmeuqUpZiSB4E/yEDyahgzRUfK6m+esd3/paazeeLh0E/uRtY0n74Wvp9w0T64T9aUmSAvjQ2zIDDnkwbFu7Dh079jFKEUXUOBZrnUv2jc1o21jM9q3bwZOOY28MaPnHGIxYpPM0BSs5odh0akbMrwKA/3wD4vpm5Dq9YJu+tgq3Pqh+Vj53AGsotYkgmQrldCplyo4uZlD930pajd9TL8CCvRfH7t5PR54ihEmnm8wstoOAb/8BgMao5D6GgWM1+XgxGwK3JGOSTNRe/kVCE46hV1StMoOjjsI58AuhJvWUvMYfs3j2V6eBqTYhEtby8AZWZ3CF/5iClZ/cTHezCilqKHTeEL6MECCmRxB0WIYJMfaSQf7iR8144cP7DkmMAnZz66B851P0tG20KzkPGmeJVFH5y3dF+hc2xrGoO6yq1GpKJZpYHtFlKMRqHT7LiaGSSoRFW1Yf2Jdn2rHRuYz8TV++MEz8M4lNbCyaQrl49YVe5gJ54wznjepFp9ePh1VWcZNQlquMewQ32ppPdhW5loM6Ye4u5de9yTueIwaE3XpT/RHZZwZG+VM7UfhP3IXrD07YE0/i86X/RTxyJva9YDfgM30I6yqQq5iBBrnLQbqx9E/sW+xC9aIJliNJzGN1HEzXoUsyllbzY/AaonNagAqe4b8q3+ezyPEKCqMEigXSz/1mIlc1181B/PpX1z6Er3t7KWe5XpIvshHDTLFVjQfeBF/+dXN2Lqve2CNEcB6m3HOMgQTp9Fu00DbUdgbnoC18WlORiA0UP0qahG+dhm886kdDMc6iad4RAiMD5Im019oShYTKMmJr5RANTpulJAe3gVFcvrz62C98GwsQn8Gy8C565NnYtHMGri03Y27O7F+ZzuWLxhHc1ISqGWlNGImsUYN7Z00CpsBugjo15knXX/ndhT6ZcAizpXJUNg3wL34SkZfPb6kwPFjBDdNzd2xCdYDP4fdvKZniIAKR/GU/frLEMw4m6k8nbBezXCBhD/DQ0yqS8yQLVElSQ46NOB8EdamBBxRbx9RDzia6IHPnYNTRtfixns24DsP7MZDnz0Hp02oM9pSDk5/EgN6Erii+QCuvW0znt3RNgAoJO5aOG0u/Le9G2HjGazgfE4HJ+BvGO+wAYLJp9qa18O573sAtdD0SUCYPAPW8mvgNYxmFU3QnOHUEPmiBBjzaYzyrVLQdKoXOL/4Uh9wRLqJ1jDgJIJfuXQ0fvS7/SYSa67Hv7wUU8dXRAuY5zl6P1kKTsSAQNl3pICrvvU01jx/xMxdwguJFWK2pgHBX30C1mmvYYcj9LEjqCyMJjoeKJ9JiAwo7a9hFtuFCjjVzI/uug0WcxgUGcHkBMUzFwnPWIpgGRPCLE2MHlSO25ylYpnEu96fllJ/cMqYJUVjy8wqXq+H1l5/EUaPD1DB/OTme/Zh7rQqvO5UahLR1csCKzsKbUe68bffeQr3rz1AG48y6TLSpCn6lbe/F+GZF0UHSvOSP88mfaXDVD4WRMcGvZ1wzVtMKhQFLdJmikE375mr5Gl6D/wY1poHOZ5AJJrEjNlfcimCc9/A7LpAjdMjEuVWBIoThSZasXu8jMCxEnA2rxsAnIjKwBEliEsjNv7HxXhi215cxyTw+V3duPNT87F4Rh0yzDm60lX42Peacfuju6KXcZwlmciotC5YGSx+O9wL3oWgNsP9iOr1SYo4VSRTxqv3S3ryZ17fkGmL5qVTs4TSITLUydr805zUqv07Yd39I0CCmVoW/YwaC3/xWxDOoLkGdOCc23JlstJKrccfXXFTLGbL5eDEjYYiSQYEJ7HPs6bW44lNR3sAu/dz52JuUwq3rNiP6+95gVlz9PizbAItohP59AUIl14GTJ7HiKJXO3rap4Mge+jzEh0gOa8fdtKndcM9vA3ta1aiegbHjZ2OvFvFUwM1xahaxHrCR3IdPPMI7N/fyVBPf2SIZqa/U2YTpHcCY8cgVeGhwPOWcfbRcP5G4Di//HI/cLREIn8/cEop6hjfkK59+3Se2neYZ76aq7TNEAeEjROBS65AOGsh5QrgZWiE7GvR5MS5Frap8hmG13ShE5Xt+9HSvBqFP/6WU3Zyk2uACdNQd+a5yI2fCj8Owz0MxwDpK1M58ywn9+7/NR3k/TyfdLKjomPcZ+F5CM48H2H1GA6k9igYiri+Aee2fx/ErKLxQ4LTlzTE7FjfyaQpeqN4ydXILH4Xcv5R85xTZyoDGLtIloRpgZWl0/X3bkTxZ4xEeao+6Fd4yg4K3fQhHCG/NPONqD1rCcJsLc9lFI5mJwPR+p5e93IeuxDClT+iafq3fo15y9P073LwnENAcoy/7CrYc18HPx1FLdvJIsgHcG/7Cs9xzw0KjuNYvRnycKhsGi4sCs+5CM7ffRbeyVN4mubuKf9gvR3wUOpV8Ja7L3DM4wu2UCq9dXTsDvgvPAN0tSJdkYEnaZldUwr2JzgHX0R+3VqCF6Bm9FjzPj1N86BnMpojmXQAlVYEGjv7tbBmLwR2bWMyqQ81xRxTgi1rYa97FBg3CWHdCGbvHJMnSA/dCnj934wk4AzpkEtJ9T116iPGpp8Bn0lcatIkZtJ67qy26N2QwYCnd4YqbbUBx5ABgPdM+lJugLq9O3Hop9+jorVBGJq+6iLnxItM3qGWZOFPaET1gsWwJsxEkK5AQV+Tsl1OXY9RxZ+Zmc7bPDvf3Azr/ptgHTlolov+sD/zo/Dk2bD37gA2Pq6GPhTzp6vBwBH1BciQQGqawNziHbBmXEgh9Cqly9RH7QSGTlSHiDRP4q6nT/nld5j1cofzcrBKKo3sNrOYPNxnHkPbKobnYrsq+V+AEdV1ONLKCMbxIVOJMMMQ7fHcN2oasotfh3DcZEZ+pgLmk9xobXJGpuX0o8fnsLpgP3I3nFUrgE7NHQGUCH8s6mdWpeD0o8pqhOdfCu/q9yMcfyqZ1s5RLUs1Sos7IbJ+AdmDB+Bs3YTwhRdRSx+e1ZeVFRzDdreYRRX7FCqpaSNGI2htRXhoF4HTRAHGTpmK7JxF6D7ayTuCr5BMM0wVO9D99DOwu7tQ2zQSRfkPbVj8zzg35k6h3u2kuCmTZyGYfw6sA/thHT0Utw+PjOYMBkip5qiP95Fvwx5Rr9fUDMG0AamzzMCYivpEn8FVUnuc7U/h6IOMInom48uNUmoJXplG/QyaxoTTYDWNQUea2hBUoyG3Ewfv/S6wrwVZRhLfSaNy0dtRPWsG9mx6CuFjf2DeeJiKQZ+mF1vURKQqUTlvERqWLMJun9pYrKJ2kTnpkDZOTOkcZZGHAhPMA1vh3vRlYq+8aiDiHBQlkdtozpDaIqL6B7PPRnD2MkYFOjKOTZ7qa8Ko8C/7pZm4dd99K3LProZTaONO60ApJ8A8x2dWzGjk79+P7i2bkF/7DKPLBtht+80pfvJJY3Fg8zYKw8hDf1Q4cAiF6VNoxhNRP+9M+F0O/CPyLykGRx+23w5vz060bX8BmclTCTKPOibhc/iPkY2bpjuRTuJubRPC9X+E1dEa15ZSfwyGBw73wKLNhguWGlWNoTA7Izeof4lGW/QzlS5DbUc7gpYWVBIU1XncQTGoTTGZSAWZ7TwK//B+BHu2oItCtuzluY7Rw9eXoox4dncR3uEupGbMQwc1ZQS1raZpKjxm0cV25kTIMCeah1rmMlblCHIjj66QH8vDX7pnrukzQoWo5WYWf38HfVvp6+dSKsdh2D7HItP2+sdh1TcCjU2soaBRS1SM1BKbmlVbg+rJp8GuyKKzZTczYWoCd7FnbqreiJMnoG7KqbBHjmPkyVKxigiZxIX6wkKPL5i3hG6Wc41DduJUAm+hQIBydSNRdcoUFDI1qJo+F5nZixA0NKFA4D19WKDopc/PxBPXMxtBM3K3NyN/yxcRtpd/0dHD/wB0nNFKC/KHzti+/EPwamjjKcYljun5OMmoj5y0g1QhjxHeUbQ+vgL5LZspfBcPkzmmMITQpwA1IzDxgkuQYVad7+xA14F9OPriDgSHeHZyc8jMPRdphl09PDMHVDeDolXBPaDPCAgg13YL+h9KeODliTzkAddmjuQQHM/OI618qZ1+6t4fINzMfGkAkryRmH1lZdtxh3JD7KPz0pyz4V/6bgQZRgx9vqoX+Bwipyyf5CtTpTZl/RxGex3Y+V93MbHbTp3rojgER9GrqoI5HDXptW8GmubhMEHLpJlEFg8RiFHsx3OQMnCNUBogKGgm0VdirCWPEc/UGGqk4xM8Hlb9dDvSd9yGsHkVO5GPoWQx1L/9uMEpb+efmjo66osRLH0rUxwmdqyTUigTjt42imHuKsN22smhaudOdD/+BJPiTUyGeVQANUAP0MNqZCbMZuR5PVqdSqZCGeQYEWmkFFprSiN1Oo/AERiiUnA4Ec3Khf3ECtir7obVQRPqkaGXb3NpqkvlK2mP6/uBI0oAODY4ao9WshlRUhddjq4pcyhM5BSl/qYLTUxfUrm8T9E8MkEehS1r0LnuSap9C9vbiJHeMNDBputQPX8JijMZnVI1mllLkeQ99GhEIAn6qN5Mz0VsOfzNz8Je+RtgN48PsYD9qAeYngtS6XUvDXi2KgWgLw0GXNjVDp8qrG+EMZon8yqerqMWrkKBWMwnIvIHOg81jMLIaTMRdnQxsuWYFFK7zOdu3SgcYvKYqoY9OvkqS2upyKwi0glLJH9jH94H647vm2xYD+ijvidOQ2pOQqVAlILTX4vYruSLMoSvuQDeouWoqmtALkjT1LLcnzxFYkJmHosSLD/Q627zqKHjsd/B37YOzvx5qD5tLgq1o5m3ZTmvmdaQ+R9DpJV0tOm8ngVxrsd/Q225RwubOclU3HsA6pmrn8jlFM/xksHpS301ySwgR01fFJx1CfFQnkPmGUWU9+hrb0vOSV3JbJoJY0YfULsp5Jn5mnM91UbBuGdDeNiUg1diZz21BvjDLwmsHneUrj0wf+V0LHDin4HAefkoFqppPILzlsOdeyYK5hmvIhtz2MhmDK/GiQtgASEtkAnp/TcbBY7aUgzV3qbn4Dx0O7Cf5zCzIa8A+4YtbswrC04JMRwHp56GgAfXcNTJ1B6l+OKCwvOwZt5ICgSTACqDVQQTiMKLjB7aC+vR+2CveyIG5ZUkbRD/S9t13JRXBx+jFVrrtZcgWLAMqepGeHTAFg+ZAiKguVkEx3OZRNLEpGFhWw720w8zNP+X+TxFYA6PzPaTXops0VijOYnavnrExV0XwUVXI/2aBcjl8zwqVLC6lwdLr1U28PB6508iQOVsTb356VUe3Z8Q64OD+OqZVT8iU/QtYV09UgvOhz/pdB5HanmAz0X5yh9/Z0wpASWh/zVwXk0N6olAWk/X+lWYVqqf3A9ALzs4Zi1d9J+kn+aUMT0IDaeP6FUBe0hwIj4jOn4+okRjAEoA6EuD1Q9ErwowryANCs5ggr3iAv8fon7gSPiBAJDGlJrTYCAdj2YNRsqLB6OIj/hGLAy5V0mHITsNSoNqzkulE9cs+qn4ajA60RWGR8D/AK9CSS2ewmVCAAAAAElFTkSuQmCC;" parent="1" vertex="1">
                    <mxGeometry x="920" y="-605" width="47.34" height="50" as="geometry"/>
                </mxCell>
                <mxCell id="rirupHPmU7Hzg7xjt6_u-71" value="" style="shape=image;verticalLabelPosition=bottom;labelBackgroundColor=default;verticalAlign=top;aspect=fixed;imageAspect=0;image=data:image/png,iVBORw0KGgoAAAANSUhEUgAAAEcAAABLCAYAAAAicppkAAAAAXNSR0IArs4c6QAAAARnQU1BAACxjwv8YQUAAAAJcEhZcwAADsMAAA7DAcdvqGQAAB6gSURBVHhe7VsHmF5VmX5v+cv0mWSSSQUS0kgjwVCiISEUAxoVCyvrupT1Yd19HsvuWtayYlldLItlRVFRVBQL6IK0BVyMBkICSMkQkkB6SE8myfS/3LLve+69M/8/LRMC7LqPXzjz33vq973na+fei5WyakMMQZZlIQyH7PInSFb8O7Rcdvz7ZxqAjgnOn4LWSLtVejXiWCSZ+sil8X3m+H+hOWH8z7JOYCM5VMNL4f2zWfVQf2CHDU6v6g5Nw+kzPEpUfPD5yFFZsxFvwGFlNyTeJ2YkueL2RAMTetk152XxUbZNnmkm5G4oU1FLX7GHRWbO0nk1S2mJaNjgSOgTFdws3bv2IMTU4bTXIPjA1+Cf/1auqarBBokn8zNwORZpsPmvb+dovSHznMRETgQUM4P+cIpM2kYm5aC9y0PQM2ep4KxLpRHc8BCCilpe+8DWDXDu/CGsJ1cAQRD1OW6KGUioz215RS8/JwSO2gdqM6PYlnYtnD6pDhed3oALTx+DKeOq4ToWDh0t4vZVB3Dj/ZvQ0lYwbEWz8G+2Et4ND8PJhAhoV0EYENQsin+4B/ZdN8HaszXqfAIbNlw6ZoZ8vGQTmQpqyMWnj8Y33zMH1fUuuP+ATx+if0KOCpB26rG3pQNz/uk+dOX9nn1DtgreN1fDzrYhtNKsdwwOJswGWeDum+Hc9x0g102ApEkDkNYYSqpoz4fuQ3rZwLEptUzlqqWn4PN/OR71NIuAjjVwvTh/cCI/KLIIBtuKXgUefHIf3nX9oyXgVKJ4w+9gp/LsU0H5KUmsJZZXzb8BQn8f3B9/E9ajd/NebT2jIzqW8K8WONIEAfPG+aPx6b+YhemNWaRcRzPD5857qcO89shItgccCx7YSjEt2Blg2t8/gp37cxGvAufG3zBSUWssNhrlUNygeXEaO7SRo7k6cBFsex7Or24A1q/SpFyjRBRzH132p+Gh85J9TjL9opkj8eG3TMfS2Q2RhvTEv8iMQmmJuSdgoamhqAEcAcYBgWvjqm+swy8f3mN6oULgPMi+hI4Am6WjP2ZNi3OEWoS/IivwYT39MKz//DasfTtNXc8uxD8vlYYdyhMSSw4dy9TxNbjlIwtx56cWYcnsEVIfU0IyFhVtORkng7ZAiRkVPIZpaoAuPfqiJbMaI1+UkJwU28OQFyoxaZNMlDO+RscFmjK1yF+wCP51v4D/lvcAtQ2cN17jBOm4wamrTOGGq+dg9fWL8ba5dajyitSC3s0S2bxWiaaPpNbf3sWiOiMsfcr8SfWRcphKtnoB7MCFwzaH90kRGJY2IRrOsQRO4Z1toU8zXX4Fwi/cDnv+hVzM1YCo43GTxtHko5uBScwnJqV1RtemseEri3Hlkibe5+GnPPhOScQw2pJQ36k1j9pZjGapjn04f1Ndmn6K17EwKV/g0Az7UOkG9JD4M/kPicB5FQ68a/4FwRd+gvDkU1kZCdpbBqCyat1oIZn/cVA246KmljvCbUwb/8EpyLH8iCmcc0ABDEULqph/HCyR5Fpr0mlUZgRGNNijKfnI85b3piP7E4CA/outcHyP1Wy3Gc6tIuukQbz1udsElfEMQcN4eB+5Ef41n0bYOJZ9OI8BX6UPlfHcezNscDRl2nFgO3SSFEhMOCwGELITlYGWTmqkMRIu2mX9VZQWvxlqjZLDGG7+YzQjAMb3sJPRXnXmoJCVns0GU5filC55sZAioKnAI0AEi2BGyzDizT8f4WdugfXmK7m7SgWGT4zCCfNDk/plUnSShuOI4vhhrqIyFCXrRL9SWhN1tD8ULgImJqMxbGd9QI0JpTmscim3k88jXWxBze6tqNm+GSN2bUVj60HUFjvp55gbcbfMPw4wPorT2WEKwRv+BsXP345g3rmcpNdkTZ9BMDhmnmOG8U8tHfHdH16Ms6ZnuSkRQMnAnqkpkC/156XWc+QUTa/SIqLg9NihTd/iOch3O5j8gfvRyjNXmOFR4Wu/5gQ8WxlnGwkpqmBkSh3ZjNbbvgrsepF9KllL0xozEZh9LiYsuBAHmE951BCBagSnWbrUIIfAdTOxtJl4Wvf+GPZ9N3FsLzCRb034i+iYZjWyJo2f/uM8rP3+RTh9RgUTu14xpekWAVEJzO6GeHZnK89MO/D01o5Isw2VL1pK4qkr7yFXlKdQP05aJNNyJX2Gpfx2dD36W1i7tqPKYQcvxz4dwCGetx69F3tv/jdkmleistCOlMnCGcHopIvU0JSfQ9ojUGTKveSvgbmLuJSA0SID8zckOOfPq8Par5yHt5wxDo28d6iygayAahnIR2hn7Bp4+TTufKYF5177KJZ8eg0+/rONuPjzq7FhfxfVXKFeu6hnNPRRpkS7JVI+1NZVQK4Qm6txYgTKeHb6HRaZskrF4aMortvIdh49lP9kKKlfBaudc7d1Aft2o+OuH8O/67toDPbCcjrJNHMtaleXwzOeNpHJZ0F+65IruDjX4e5EWiMSX728DQnOqaOqUU/NsXgO4vJmlw3PMfmsWLl+L5b/+ypccf2TWLu9jUkd12R9nrnKTfc/T03z6EB7dag/hdh2sCtiSXOzuNQkp8CaKN73UMehg0DLfriuS21gm8y2tgapSZNpjlUIOcayCuje+BD2/ux6ZI8cNBoDvxAljyRuL/lzETZNByrrTd1gNCQ4FTzfJCSzkT9JSNd3rNlHDVmJlRsOmsX92LRE+nliUys1rQBPTpKCqkRL9gqtZPe5PTSNEhw8yswgRGIjO9hxsQqRJvjFAuvpVCsaUf/ea1F35cdw6vuuQ2rR5Qiqm7gE19i6Bd0/uwG13bk4IRVPSjo1pzw7NXIi8yATFExrSYloSHDctKJTlL+s29GOf/j+up4dEExt3XIMWtT89KEQuTzHelR7PxvXJSQkIjS411i7s613Dv7aQqZURWNyJFQgLZB6uqidNgeoGoODYRW2p6uAJeeh6ZqPUiNORloPyw4egv/8M0w8CKbRGJqnxhpzZR01MKKSnSmhIcHJVmSx/sU2XPDZVVhy7Sq0dir/oHNjhLE9G94AWWxCEnpsfYoOkCZSonEiRRCHx4MiGPkqqwj80bglItsj80Er1UePO7g9Gs9iuQRZa0ozLBepk6egPU+zSfF85YYoZC20NjSi5rL3ojBqCpBPwasbTw+jFFUHXV6xOGbDJXoCSt+NiDavHzjJns6cWI8tu9tw7r+swuoXjqDIA6LNzJjnaTkbFAse/riZAgyoNaIQZ0+tQ4FRJXC0c+UkxfDtPAr0B3sO58h03ECydWYChZZAUinZHudzqugjVKQ45KHAoGBkDCW4oh0dLfkrjj0ZjW97J+wpM5AbOc5EVWmOKUYjdTzRb1/moyATUXx8MFFHhddNDRX41Dtm4pEvLOV11jjWiEJzfOigJtzz5D7M/+hK/Pz3O/pP3yOkhTedOZo+hxm1lYrrRNQEMuhx911q4JPrjqClg0eBHqIWcBOkXZFlyV8xd+LBMqxihltTz/yJ83ndyHQz8SvjgHlW3jeRr6WmDu6l76RGcawxw2geleikrw2TeSXjE8b1G9WVac6Fc8dgx48uw4cvnQwnleOuRj5FAgu8ts4iLvjkClz2jSew+zCzUdMaUQKKNlrXOqTOnZBBhZeBS58TzaER8mLaY+UeNfji7c+zLh4c//qU3SX/cqQhD6GUjiVAPk2zYsJn8QgjBS4e2AfXCBsvyvEOVSnNYwWKlShkxiJMsaPRPs0RFwOSZEs2PhoeycD2mAw4Sayfekol8rR1X3k6B/qx1jTVZ/DfH1+ExbMb8dyLzF3MGNPUQ6X3WuR9y08hwBTGll8q72yzc4bmdKBrH1ZvaiGvWl8tZmYKJk3RlXY4LjSbPOeqnTIdXpv8TAXadmyj72J/M1bJKE2B12lqZFUuw2CgJ4nRnEkUFckDyUHEAw0lGJT2K9OcWqqr1cZdK3K3vSyaaipwy/vOwIavn4dzZtUgKIrJqG9pIldKqr5o7mi8f9kULkRwzFql6kuSBvFUfefDe1DkBpS0kHhHvpUaRVqjB2bRb5HOo3ryLJrWGN5XIzy0H+G2zXAElsdDJp28jr9F7keBqufY7dGTQj3cJ0hJ0RKWHFH5wv2oDJwUbd22PbS0d+OTv1iHWROrcdnCJmR54JRJ5LkIpzX4yGymjasx40SqEzDLTh+FH/z9GWRMUyfTl3Mhuz/IjPZff72N13FlD3ESjnWoJTrpyz9E4ZfXzLaPuGnUXPgmXnOgx8Cw8r8xnlZUyeyTsBgnryzYnPA4zjhellKtEK99RB+Qynp4VN0frNiK6R98CN+4dwt3iqFUh8M4i9Iu11Y6uOKS8Xjq28tw9rSRBhBpUW2liw+94yTc+vF5qK12TV1pMQBxfpWQ9zc+uA9H6MN62Y1YNmjR1wXUmsh5crfjVm1LnvmNM3UO3KaxbGP2fXALDtz1E1S174Cb62SiSICoLUkxp3qjeVEJi2wvEjxG28jkSkh8Gl4jKgPnul9txgdu3oACbV6UYv5geOWkmmfuSTV49ltL8bWrpqKBZhF6RSP4m89qwp6bluPzfzUb6QIdLessAWqAkH33MqG5mre149/u2BLX9DJjiAKBuUsUrcrbskWbDt5GZzqDurdezrDOWEX/mNuxGgd/czOamHSioIfysaYYgFmnIkp+SX1WjXDRRW+XgXUrabddi6acwm/XH8a8D6/E5r2daEg7dKZZqquLhdNG4PEvLcRPPnA67T2HsItJoknHBW5vCXnY9Fl0WPRSaVzz3eaSDSrhRkTA7a0bGeo1Ug/TlFcRBGptkUAXqck+B7emR6D20vdwOE0+x8le3INdP/0q3N/fhqY9WzHBP4oJbjeyPG+5PgtN0FFJ3GaybMxHdFvOi+Pa2c+Uq79QjH5nTKilNm3Cl369mX6oiAtnNWDhlFGcT08DbcybVIdRNRmeuqUpZiSB4E/yEDyahgzRUfK6m+esd3/paazeeLh0E/uRtY0n74Wvp9w0T64T9aUmSAvjQ2zIDDnkwbFu7Dh079jFKEUXUOBZrnUv2jc1o21jM9q3bwZOOY28MaPnHGIxYpPM0BSs5odh0akbMrwKA/3wD4vpm5Dq9YJu+tgq3Pqh+Vj53AGsotYkgmQrldCplyo4uZlD930pajd9TL8CCvRfH7t5PR54ihEmnm8wstoOAb/8BgMao5D6GgWM1+XgxGwK3JGOSTNRe/kVCE46hV1StMoOjjsI58AuhJvWUvMYfs3j2V6eBqTYhEtby8AZWZ3CF/5iClZ/cTHezCilqKHTeEL6MECCmRxB0WIYJMfaSQf7iR8144cP7DkmMAnZz66B851P0tG20KzkPGmeJVFH5y3dF+hc2xrGoO6yq1GpKJZpYHtFlKMRqHT7LiaGSSoRFW1Yf2Jdn2rHRuYz8TV++MEz8M4lNbCyaQrl49YVe5gJ54wznjepFp9ePh1VWcZNQlquMewQ32ppPdhW5loM6Ye4u5de9yTueIwaE3XpT/RHZZwZG+VM7UfhP3IXrD07YE0/i86X/RTxyJva9YDfgM30I6yqQq5iBBrnLQbqx9E/sW+xC9aIJliNJzGN1HEzXoUsyllbzY/AaonNagAqe4b8q3+ezyPEKCqMEigXSz/1mIlc1181B/PpX1z6Er3t7KWe5XpIvshHDTLFVjQfeBF/+dXN2Lqve2CNEcB6m3HOMgQTp9Fu00DbUdgbnoC18WlORiA0UP0qahG+dhm886kdDMc6iad4RAiMD5Im019oShYTKMmJr5RANTpulJAe3gVFcvrz62C98GwsQn8Gy8C565NnYtHMGri03Y27O7F+ZzuWLxhHc1ISqGWlNGImsUYN7Z00CpsBugjo15knXX/ndhT6ZcAizpXJUNg3wL34SkZfPb6kwPFjBDdNzd2xCdYDP4fdvKZniIAKR/GU/frLEMw4m6k8nbBezXCBhD/DQ0yqS8yQLVElSQ46NOB8EdamBBxRbx9RDzia6IHPnYNTRtfixns24DsP7MZDnz0Hp02oM9pSDk5/EgN6Erii+QCuvW0znt3RNgAoJO5aOG0u/Le9G2HjGazgfE4HJ+BvGO+wAYLJp9qa18O573sAtdD0SUCYPAPW8mvgNYxmFU3QnOHUEPmiBBjzaYzyrVLQdKoXOL/4Uh9wRLqJ1jDgJIJfuXQ0fvS7/SYSa67Hv7wUU8dXRAuY5zl6P1kKTsSAQNl3pICrvvU01jx/xMxdwguJFWK2pgHBX30C1mmvYYcj9LEjqCyMJjoeKJ9JiAwo7a9hFtuFCjjVzI/uug0WcxgUGcHkBMUzFwnPWIpgGRPCLE2MHlSO25ylYpnEu96fllJ/cMqYJUVjy8wqXq+H1l5/EUaPD1DB/OTme/Zh7rQqvO5UahLR1csCKzsKbUe68bffeQr3rz1AG48y6TLSpCn6lbe/F+GZF0UHSvOSP88mfaXDVD4WRMcGvZ1wzVtMKhQFLdJmikE375mr5Gl6D/wY1poHOZ5AJJrEjNlfcimCc9/A7LpAjdMjEuVWBIoThSZasXu8jMCxEnA2rxsAnIjKwBEliEsjNv7HxXhi215cxyTw+V3duPNT87F4Rh0yzDm60lX42Peacfuju6KXcZwlmciotC5YGSx+O9wL3oWgNsP9iOr1SYo4VSRTxqv3S3ryZ17fkGmL5qVTs4TSITLUydr805zUqv07Yd39I0CCmVoW/YwaC3/xWxDOoLkGdOCc23JlstJKrccfXXFTLGbL5eDEjYYiSQYEJ7HPs6bW44lNR3sAu/dz52JuUwq3rNiP6+95gVlz9PizbAItohP59AUIl14GTJ7HiKJXO3rap4Mge+jzEh0gOa8fdtKndcM9vA3ta1aiegbHjZ2OvFvFUwM1xahaxHrCR3IdPPMI7N/fyVBPf2SIZqa/U2YTpHcCY8cgVeGhwPOWcfbRcP5G4Di//HI/cLREIn8/cEop6hjfkK59+3Se2neYZ76aq7TNEAeEjROBS65AOGsh5QrgZWiE7GvR5MS5Frap8hmG13ShE5Xt+9HSvBqFP/6WU3Zyk2uACdNQd+a5yI2fCj8Owz0MxwDpK1M58ywn9+7/NR3k/TyfdLKjomPcZ+F5CM48H2H1GA6k9igYiri+Aee2fx/ErKLxQ4LTlzTE7FjfyaQpeqN4ydXILH4Xcv5R85xTZyoDGLtIloRpgZWl0/X3bkTxZ4xEeao+6Fd4yg4K3fQhHCG/NPONqD1rCcJsLc9lFI5mJwPR+p5e93IeuxDClT+iafq3fo15y9P073LwnENAcoy/7CrYc18HPx1FLdvJIsgHcG/7Cs9xzw0KjuNYvRnycKhsGi4sCs+5CM7ffRbeyVN4mubuKf9gvR3wUOpV8Ja7L3DM4wu2UCq9dXTsDvgvPAN0tSJdkYEnaZldUwr2JzgHX0R+3VqCF6Bm9FjzPj1N86BnMpojmXQAlVYEGjv7tbBmLwR2bWMyqQ81xRxTgi1rYa97FBg3CWHdCGbvHJMnSA/dCnj934wk4AzpkEtJ9T116iPGpp8Bn0lcatIkZtJ67qy26N2QwYCnd4YqbbUBx5ABgPdM+lJugLq9O3Hop9+jorVBGJq+6iLnxItM3qGWZOFPaET1gsWwJsxEkK5AQV+Tsl1OXY9RxZ+Zmc7bPDvf3Azr/ptgHTlolov+sD/zo/Dk2bD37gA2Pq6GPhTzp6vBwBH1BciQQGqawNziHbBmXEgh9Cqly9RH7QSGTlSHiDRP4q6nT/nld5j1cofzcrBKKo3sNrOYPNxnHkPbKobnYrsq+V+AEdV1ONLKCMbxIVOJMMMQ7fHcN2oasotfh3DcZEZ+pgLmk9xobXJGpuX0o8fnsLpgP3I3nFUrgE7NHQGUCH8s6mdWpeD0o8pqhOdfCu/q9yMcfyqZ1s5RLUs1Sos7IbJ+AdmDB+Bs3YTwhRdRSx+e1ZeVFRzDdreYRRX7FCqpaSNGI2htRXhoF4HTRAHGTpmK7JxF6D7ayTuCr5BMM0wVO9D99DOwu7tQ2zQSRfkPbVj8zzg35k6h3u2kuCmTZyGYfw6sA/thHT0Utw+PjOYMBkip5qiP95Fvwx5Rr9fUDMG0AamzzMCYivpEn8FVUnuc7U/h6IOMInom48uNUmoJXplG/QyaxoTTYDWNQUea2hBUoyG3Ewfv/S6wrwVZRhLfSaNy0dtRPWsG9mx6CuFjf2DeeJiKQZ+mF1vURKQqUTlvERqWLMJun9pYrKJ2kTnpkDZOTOkcZZGHAhPMA1vh3vRlYq+8aiDiHBQlkdtozpDaIqL6B7PPRnD2MkYFOjKOTZ7qa8Ko8C/7pZm4dd99K3LProZTaONO60ApJ8A8x2dWzGjk79+P7i2bkF/7DKPLBtht+80pfvJJY3Fg8zYKw8hDf1Q4cAiF6VNoxhNRP+9M+F0O/CPyLykGRx+23w5vz060bX8BmclTCTKPOibhc/iPkY2bpjuRTuJubRPC9X+E1dEa15ZSfwyGBw73wKLNhguWGlWNoTA7Izeof4lGW/QzlS5DbUc7gpYWVBIU1XncQTGoTTGZSAWZ7TwK//B+BHu2oItCtuzluY7Rw9eXoox4dncR3uEupGbMQwc1ZQS1raZpKjxm0cV25kTIMCeah1rmMlblCHIjj66QH8vDX7pnrukzQoWo5WYWf38HfVvp6+dSKsdh2D7HItP2+sdh1TcCjU2soaBRS1SM1BKbmlVbg+rJp8GuyKKzZTczYWoCd7FnbqreiJMnoG7KqbBHjmPkyVKxigiZxIX6wkKPL5i3hG6Wc41DduJUAm+hQIBydSNRdcoUFDI1qJo+F5nZixA0NKFA4D19WKDopc/PxBPXMxtBM3K3NyN/yxcRtpd/0dHD/wB0nNFKC/KHzti+/EPwamjjKcYljun5OMmoj5y0g1QhjxHeUbQ+vgL5LZspfBcPkzmmMITQpwA1IzDxgkuQYVad7+xA14F9OPriDgSHeHZyc8jMPRdphl09PDMHVDeDolXBPaDPCAgg13YL+h9KeODliTzkAddmjuQQHM/OI618qZ1+6t4fINzMfGkAkryRmH1lZdtxh3JD7KPz0pyz4V/6bgQZRgx9vqoX+Bwipyyf5CtTpTZl/RxGex3Y+V93MbHbTp3rojgER9GrqoI5HDXptW8GmubhMEHLpJlEFg8RiFHsx3OQMnCNUBogKGgm0VdirCWPEc/UGGqk4xM8Hlb9dDvSd9yGsHkVO5GPoWQx1L/9uMEpb+efmjo66osRLH0rUxwmdqyTUigTjt42imHuKsN22smhaudOdD/+BJPiTUyGeVQANUAP0MNqZCbMZuR5PVqdSqZCGeQYEWmkFFprSiN1Oo/AERiiUnA4Ec3Khf3ECtir7obVQRPqkaGXb3NpqkvlK2mP6/uBI0oAODY4ao9WshlRUhddjq4pcyhM5BSl/qYLTUxfUrm8T9E8MkEehS1r0LnuSap9C9vbiJHeMNDBputQPX8JijMZnVI1mllLkeQ99GhEIAn6qN5Mz0VsOfzNz8Je+RtgN48PsYD9qAeYngtS6XUvDXi2KgWgLw0GXNjVDp8qrG+EMZon8yqerqMWrkKBWMwnIvIHOg81jMLIaTMRdnQxsuWYFFK7zOdu3SgcYvKYqoY9OvkqS2upyKwi0glLJH9jH94H647vm2xYD+ijvidOQ2pOQqVAlILTX4vYruSLMoSvuQDeouWoqmtALkjT1LLcnzxFYkJmHosSLD/Q627zqKHjsd/B37YOzvx5qD5tLgq1o5m3ZTmvmdaQ+R9DpJV0tOm8ngVxrsd/Q225RwubOclU3HsA6pmrn8jlFM/xksHpS301ySwgR01fFJx1CfFQnkPmGUWU9+hrb0vOSV3JbJoJY0YfULsp5Jn5mnM91UbBuGdDeNiUg1diZz21BvjDLwmsHneUrj0wf+V0LHDin4HAefkoFqppPILzlsOdeyYK5hmvIhtz2MhmDK/GiQtgASEtkAnp/TcbBY7aUgzV3qbn4Dx0O7Cf5zCzIa8A+4YtbswrC04JMRwHp56GgAfXcNTJ1B6l+OKCwvOwZt5ICgSTACqDVQQTiMKLjB7aC+vR+2CveyIG5ZUkbRD/S9t13JRXBx+jFVrrtZcgWLAMqepGeHTAFg+ZAiKguVkEx3OZRNLEpGFhWw720w8zNP+X+TxFYA6PzPaTXops0VijOYnavnrExV0XwUVXI/2aBcjl8zwqVLC6lwdLr1U28PB6508iQOVsTb356VUe3Z8Q64OD+OqZVT8iU/QtYV09UgvOhz/pdB5HanmAz0X5yh9/Z0wpASWh/zVwXk0N6olAWk/X+lWYVqqf3A9ALzs4Zi1d9J+kn+aUMT0IDaeP6FUBe0hwIj4jOn4+okRjAEoA6EuD1Q9ErwowryANCs5ggr3iAv8fon7gSPiBAJDGlJrTYCAdj2YNRsqLB6OIj/hGLAy5V0mHITsNSoNqzkulE9cs+qn4ajA60RWGR8D/AK9CSS2ewmVCAAAAAElFTkSuQmCC;" parent="1" vertex="1">
                    <mxGeometry x="2206.33" y="-630" width="47.34" height="50" as="geometry"/>
                </mxCell>
                <mxCell id="rirupHPmU7Hzg7xjt6_u-72" value="introuce of dmcx,introuce of dmcx&lt;br&gt;introuce of dmcx&lt;br&gt;introuce of dmcxintrouce of dmcxintrouce&amp;nbsp;" style="text;html=1;strokeColor=none;fillColor=none;align=center;verticalAlign=middle;whiteSpace=wrap;rounded=0;" parent="1" vertex="1">
                    <mxGeometry x="2115" y="-615" width="230" height="130" as="geometry"/>
                </mxCell>
                <mxCell id="rirupHPmU7Hzg7xjt6_u-73" value="$address" style="text;html=1;strokeColor=none;fillColor=none;align=center;verticalAlign=middle;whiteSpace=wrap;rounded=0;" parent="1" vertex="1">
                    <mxGeometry x="2117.5" y="-380" width="60" height="30" as="geometry"/>
                </mxCell>
                <mxCell id="rirupHPmU7Hzg7xjt6_u-74" value="0.00 GWT" style="text;html=1;strokeColor=none;fillColor=none;align=center;verticalAlign=middle;whiteSpace=wrap;rounded=0;fontStyle=1;fontSize=16;" parent="1" vertex="1">
                    <mxGeometry x="2107.5" y="-360" width="110" height="30" as="geometry"/>
                </mxCell>
                <mxCell id="rirupHPmU7Hzg7xjt6_u-75" value="0.00 OKB" style="text;html=1;strokeColor=none;fillColor=none;align=center;verticalAlign=middle;whiteSpace=wrap;rounded=0;fontStyle=1;fontSize=16;" parent="1" vertex="1">
                    <mxGeometry x="2230" y="-360" width="110" height="30" as="geometry"/>
                </mxCell>
                <mxCell id="rirupHPmU7Hzg7xjt6_u-76" value="Already backup 2.32 TB on DMCX layer" style="text;html=1;strokeColor=none;fillColor=none;align=center;verticalAlign=middle;whiteSpace=wrap;rounded=0;fontStyle=1;fontSize=13;" parent="1" vertex="1">
                    <mxGeometry x="2080" y="-520" width="310" height="30" as="geometry"/>
                </mxCell>
                <mxCell id="rirupHPmU7Hzg7xjt6_u-77" value="32 GB backup copy lost and recoveryed" style="text;html=1;strokeColor=none;fillColor=none;align=center;verticalAlign=middle;whiteSpace=wrap;rounded=0;fontStyle=1;fontSize=13;" parent="1" vertex="1">
                    <mxGeometry x="2080" y="-500" width="310" height="30" as="geometry"/>
                </mxCell>
                <mxCell id="rirupHPmU7Hzg7xjt6_u-79" value="算力奖励 200 GWT&amp;nbsp;&lt;br&gt;&amp;nbsp;丢失补偿 200GWT" style="text;html=1;strokeColor=none;fillColor=none;align=center;verticalAlign=middle;whiteSpace=wrap;rounded=0;fontStyle=1;fontSize=16;" parent="1" vertex="1">
                    <mxGeometry x="2142.75" y="-327" width="172.5" height="30" as="geometry"/>
                </mxCell>
                <mxCell id="rirupHPmU7Hzg7xjt6_u-80" value="Edit Requiment of Supply" style="rounded=0;whiteSpace=wrap;html=1;" parent="1" vertex="1">
                    <mxGeometry x="2127.5" y="-430" width="210" height="40" as="geometry"/>
                </mxCell>
                <mxCell id="rirupHPmU7Hzg7xjt6_u-81" value="1000 GWT，0.01 OKB per month&lt;br&gt;223 backup sector in total , 8 lost" style="text;html=1;strokeColor=none;fillColor=none;align=center;verticalAlign=middle;whiteSpace=wrap;rounded=0;" parent="1" vertex="1">
                    <mxGeometry x="2117.5" y="-470" width="220" height="30" as="geometry"/>
                </mxCell>
                <mxCell id="rirupHPmU7Hzg7xjt6_u-82" style="edgeStyle=orthogonalEdgeStyle;rounded=0;orthogonalLoop=1;jettySize=auto;html=1;exitX=0;exitY=0.5;exitDx=0;exitDy=0;entryX=1.016;entryY=0.528;entryDx=0;entryDy=0;entryPerimeter=0;" parent="1" source="rirupHPmU7Hzg7xjt6_u-80" target="rirupHPmU7Hzg7xjt6_u-43" edge="1">
                    <mxGeometry relative="1" as="geometry"/>
                </mxCell>
                <mxCell id="rirupHPmU7Hzg7xjt6_u-84" value="Statements" style="text;html=1;strokeColor=none;fillColor=none;align=center;verticalAlign=middle;whiteSpace=wrap;rounded=0;" parent="1" vertex="1">
                    <mxGeometry x="2202.5" y="-280" width="60" height="30" as="geometry"/>
                </mxCell>
                <mxCell id="rirupHPmU7Hzg7xjt6_u-85" value="Statements" style="text;html=1;strokeColor=none;fillColor=none;align=center;verticalAlign=middle;whiteSpace=wrap;rounded=0;" parent="1" vertex="1">
                    <mxGeometry x="2205" y="-250" width="60" height="30" as="geometry"/>
                </mxCell>
                <mxCell id="rirupHPmU7Hzg7xjt6_u-86" value="Statements" style="text;html=1;strokeColor=none;fillColor=none;align=center;verticalAlign=middle;whiteSpace=wrap;rounded=0;" parent="1" vertex="1">
                    <mxGeometry x="2205" y="-220" width="60" height="30" as="geometry"/>
                </mxCell>
                <mxCell id="rirupHPmU7Hzg7xjt6_u-87" value="抢空投" style="rounded=0;whiteSpace=wrap;html=1;" parent="1" vertex="1">
                    <mxGeometry x="1470" y="-430" width="120" height="20" as="geometry"/>
                </mxCell>
                <mxCell id="rirupHPmU7Hzg7xjt6_u-89" value="" style="verticalLabelPosition=bottom;verticalAlign=top;html=1;shadow=0;dashed=0;strokeWidth=1;shape=mxgraph.android.phone2;strokeColor=#c0c0c0;" parent="1" vertex="1">
                    <mxGeometry x="500" y="650" width="300" height="610" as="geometry"/>
                </mxCell>
                <mxCell id="rirupHPmU7Hzg7xjt6_u-90" value="Backup Setting" style="strokeWidth=1;html=1;shadow=0;dashed=0;shape=mxgraph.android.action_bar;fillColor=#E6E6E6;strokeColor=#c0c0c0;strokeWidth=2;whiteSpace=wrap;" parent="1" vertex="1">
                    <mxGeometry x="511.5" y="700" width="277" height="30" as="geometry"/>
                </mxCell>
                <mxCell id="rirupHPmU7Hzg7xjt6_u-92" value="非管理员用户，默认不打开Backup.首次打开时会提示 非管理员数据备份的限制，以及管理员已经帮你备份了数据，但看不到你的数据" style="text;html=1;strokeColor=none;fillColor=none;align=center;verticalAlign=middle;whiteSpace=wrap;rounded=0;" parent="1" vertex="1">
                    <mxGeometry x="-4" y="-50" width="344" height="30" as="geometry"/>
                </mxCell>
                <mxCell id="rirupHPmU7Hzg7xjt6_u-93" value="Save Change" style="rounded=0;whiteSpace=wrap;html=1;" parent="1" vertex="1">
                    <mxGeometry x="550" y="1120" width="210" height="40" as="geometry"/>
                </mxCell>
                <mxCell id="rirupHPmU7Hzg7xjt6_u-94" value="Enable Backup" style="text;html=1;strokeColor=none;fillColor=none;align=center;verticalAlign=middle;whiteSpace=wrap;rounded=0;" parent="1" vertex="1">
                    <mxGeometry x="520" y="740" width="110" height="30" as="geometry"/>
                </mxCell>
                <mxCell id="rirupHPmU7Hzg7xjt6_u-95" value="" style="verticalLabelPosition=bottom;verticalAlign=top;html=1;shadow=0;dashed=0;strokeWidth=1;shape=mxgraph.android.switch_on;fillColor=#E6E6E6;sketch=0;" parent="1" vertex="1">
                    <mxGeometry x="730" y="745" width="50" height="20" as="geometry"/>
                </mxCell>
                <mxCell id="rirupHPmU7Hzg7xjt6_u-96" value="System Config （&amp;lt;1 GB）" style="rounded=1;fillColor=#F0F2F5;strokeColor=#D8DCE3;align=left;verticalAlign=middle;fontStyle=0;fontSize=12;labelPosition=right;verticalLabelPosition=middle;spacingLeft=10;html=1;shadow=0;dashed=0" parent="1" vertex="1">
                    <mxGeometry x="536" y="797" width="12" height="12" as="geometry"/>
                </mxCell>
                <mxCell id="rirupHPmU7Hzg7xjt6_u-101" value="System Data (4 GB)" style="rounded=1;fillColor=#F0F2F5;strokeColor=#D8DCE3;align=left;verticalAlign=middle;fontStyle=0;fontSize=12;labelPosition=right;verticalLabelPosition=middle;spacingLeft=10;html=1;shadow=0;dashed=0" parent="1" vertex="1">
                    <mxGeometry x="536" y="825" width="12" height="12" as="geometry"/>
                </mxCell>
                <mxCell id="rirupHPmU7Hzg7xjt6_u-102" value="My User Data (1.2 TB)" style="rounded=1;fillColor=#F0F2F5;strokeColor=#D8DCE3;align=left;verticalAlign=middle;fontStyle=0;fontSize=12;labelPosition=right;verticalLabelPosition=middle;spacingLeft=10;html=1;shadow=0;dashed=0" parent="1" vertex="1">
                    <mxGeometry x="536" y="857" width="12" height="12" as="geometry"/>
                </mxCell>
                <mxCell id="rirupHPmU7Hzg7xjt6_u-103" value="Select backup data and target" style="text;html=1;strokeColor=none;fillColor=none;align=left;verticalAlign=middle;whiteSpace=wrap;rounded=0;fontStyle=1" parent="1" vertex="1">
                    <mxGeometry x="535" y="765" width="205" height="30" as="geometry"/>
                </mxCell>
                <mxCell id="rirupHPmU7Hzg7xjt6_u-104" value="lily&#39;s Data (23 GB)" style="rounded=1;fillColor=#F0F2F5;strokeColor=#D8DCE3;align=left;verticalAlign=middle;fontStyle=0;fontSize=12;labelPosition=right;verticalLabelPosition=middle;spacingLeft=10;html=1;shadow=0;dashed=0" parent="1" vertex="1">
                    <mxGeometry x="538" y="935" width="12" height="12" as="geometry"/>
                </mxCell>
                <mxCell id="rirupHPmU7Hzg7xjt6_u-105" style="edgeStyle=orthogonalEdgeStyle;rounded=0;orthogonalLoop=1;jettySize=auto;html=1;exitX=1;exitY=0.5;exitDx=0;exitDy=0;entryX=0.793;entryY=0.002;entryDx=0;entryDy=0;entryPerimeter=0;" parent="1" source="rirupHPmU7Hzg7xjt6_u-2" target="rirupHPmU7Hzg7xjt6_u-89" edge="1">
                    <mxGeometry relative="1" as="geometry"/>
                </mxCell>
                <mxCell id="rirupHPmU7Hzg7xjt6_u-130" style="edgeStyle=orthogonalEdgeStyle;rounded=0;orthogonalLoop=1;jettySize=auto;html=1;exitX=1;exitY=0.5;exitDx=0;exitDy=0;entryX=0;entryY=0.25;entryDx=0;entryDy=0;" parent="1" source="rirupHPmU7Hzg7xjt6_u-106" target="rirupHPmU7Hzg7xjt6_u-107" edge="1">
                    <mxGeometry relative="1" as="geometry"/>
                </mxCell>
                <mxCell id="rirupHPmU7Hzg7xjt6_u-106" value="" style="shape=image;verticalLabelPosition=bottom;labelBackgroundColor=default;verticalAlign=top;aspect=fixed;imageAspect=0;image=data:image/png,iVBORw0KGgoAAAANSUhEUgAAAEcAAABLCAYAAAAicppkAAAAAXNSR0IArs4c6QAAAARnQU1BAACxjwv8YQUAAAAJcEhZcwAADsMAAA7DAcdvqGQAAB6gSURBVHhe7VsHmF5VmX5v+cv0mWSSSQUS0kgjwVCiISEUAxoVCyvrupT1Yd19HsvuWtayYlldLItlRVFRVBQL6IK0BVyMBkICSMkQkkB6SE8myfS/3LLve+69M/8/LRMC7LqPXzjz33vq973na+fei5WyakMMQZZlIQyH7PInSFb8O7Rcdvz7ZxqAjgnOn4LWSLtVejXiWCSZ+sil8X3m+H+hOWH8z7JOYCM5VMNL4f2zWfVQf2CHDU6v6g5Nw+kzPEpUfPD5yFFZsxFvwGFlNyTeJ2YkueL2RAMTetk152XxUbZNnmkm5G4oU1FLX7GHRWbO0nk1S2mJaNjgSOgTFdws3bv2IMTU4bTXIPjA1+Cf/1auqarBBokn8zNwORZpsPmvb+dovSHznMRETgQUM4P+cIpM2kYm5aC9y0PQM2ep4KxLpRHc8BCCilpe+8DWDXDu/CGsJ1cAQRD1OW6KGUioz215RS8/JwSO2gdqM6PYlnYtnD6pDhed3oALTx+DKeOq4ToWDh0t4vZVB3Dj/ZvQ0lYwbEWz8G+2Et4ND8PJhAhoV0EYENQsin+4B/ZdN8HaszXqfAIbNlw6ZoZ8vGQTmQpqyMWnj8Y33zMH1fUuuP+ATx+if0KOCpB26rG3pQNz/uk+dOX9nn1DtgreN1fDzrYhtNKsdwwOJswGWeDum+Hc9x0g102ApEkDkNYYSqpoz4fuQ3rZwLEptUzlqqWn4PN/OR71NIuAjjVwvTh/cCI/KLIIBtuKXgUefHIf3nX9oyXgVKJ4w+9gp/LsU0H5KUmsJZZXzb8BQn8f3B9/E9ajd/NebT2jIzqW8K8WONIEAfPG+aPx6b+YhemNWaRcRzPD5857qcO89shItgccCx7YSjEt2Blg2t8/gp37cxGvAufG3zBSUWssNhrlUNygeXEaO7SRo7k6cBFsex7Or24A1q/SpFyjRBRzH132p+Gh85J9TjL9opkj8eG3TMfS2Q2RhvTEv8iMQmmJuSdgoamhqAEcAcYBgWvjqm+swy8f3mN6oULgPMi+hI4Am6WjP2ZNi3OEWoS/IivwYT39MKz//DasfTtNXc8uxD8vlYYdyhMSSw4dy9TxNbjlIwtx56cWYcnsEVIfU0IyFhVtORkng7ZAiRkVPIZpaoAuPfqiJbMaI1+UkJwU28OQFyoxaZNMlDO+RscFmjK1yF+wCP51v4D/lvcAtQ2cN17jBOm4wamrTOGGq+dg9fWL8ba5dajyitSC3s0S2bxWiaaPpNbf3sWiOiMsfcr8SfWRcphKtnoB7MCFwzaH90kRGJY2IRrOsQRO4Z1toU8zXX4Fwi/cDnv+hVzM1YCo43GTxtHko5uBScwnJqV1RtemseEri3Hlkibe5+GnPPhOScQw2pJQ36k1j9pZjGapjn04f1Ndmn6K17EwKV/g0Az7UOkG9JD4M/kPicB5FQ68a/4FwRd+gvDkU1kZCdpbBqCyat1oIZn/cVA246KmljvCbUwb/8EpyLH8iCmcc0ABDEULqph/HCyR5Fpr0mlUZgRGNNijKfnI85b3piP7E4CA/outcHyP1Wy3Gc6tIuukQbz1udsElfEMQcN4eB+5Ef41n0bYOJZ9OI8BX6UPlfHcezNscDRl2nFgO3SSFEhMOCwGELITlYGWTmqkMRIu2mX9VZQWvxlqjZLDGG7+YzQjAMb3sJPRXnXmoJCVns0GU5filC55sZAioKnAI0AEi2BGyzDizT8f4WdugfXmK7m7SgWGT4zCCfNDk/plUnSShuOI4vhhrqIyFCXrRL9SWhN1tD8ULgImJqMxbGd9QI0JpTmscim3k88jXWxBze6tqNm+GSN2bUVj60HUFjvp55gbcbfMPw4wPorT2WEKwRv+BsXP345g3rmcpNdkTZ9BMDhmnmOG8U8tHfHdH16Ms6ZnuSkRQMnAnqkpkC/156XWc+QUTa/SIqLg9NihTd/iOch3O5j8gfvRyjNXmOFR4Wu/5gQ8WxlnGwkpqmBkSh3ZjNbbvgrsepF9KllL0xozEZh9LiYsuBAHmE951BCBagSnWbrUIIfAdTOxtJl4Wvf+GPZ9N3FsLzCRb034i+iYZjWyJo2f/uM8rP3+RTh9RgUTu14xpekWAVEJzO6GeHZnK89MO/D01o5Isw2VL1pK4qkr7yFXlKdQP05aJNNyJX2Gpfx2dD36W1i7tqPKYQcvxz4dwCGetx69F3tv/jdkmleistCOlMnCGcHopIvU0JSfQ9ojUGTKveSvgbmLuJSA0SID8zckOOfPq8Par5yHt5wxDo28d6iygayAahnIR2hn7Bp4+TTufKYF5177KJZ8eg0+/rONuPjzq7FhfxfVXKFeu6hnNPRRpkS7JVI+1NZVQK4Qm6txYgTKeHb6HRaZskrF4aMortvIdh49lP9kKKlfBaudc7d1Aft2o+OuH8O/67toDPbCcjrJNHMtaleXwzOeNpHJZ0F+65IruDjX4e5EWiMSX728DQnOqaOqUU/NsXgO4vJmlw3PMfmsWLl+L5b/+ypccf2TWLu9jUkd12R9nrnKTfc/T03z6EB7dag/hdh2sCtiSXOzuNQkp8CaKN73UMehg0DLfriuS21gm8y2tgapSZNpjlUIOcayCuje+BD2/ux6ZI8cNBoDvxAljyRuL/lzETZNByrrTd1gNCQ4FTzfJCSzkT9JSNd3rNlHDVmJlRsOmsX92LRE+nliUys1rQBPTpKCqkRL9gqtZPe5PTSNEhw8yswgRGIjO9hxsQqRJvjFAuvpVCsaUf/ea1F35cdw6vuuQ2rR5Qiqm7gE19i6Bd0/uwG13bk4IRVPSjo1pzw7NXIi8yATFExrSYloSHDctKJTlL+s29GOf/j+up4dEExt3XIMWtT89KEQuTzHelR7PxvXJSQkIjS411i7s613Dv7aQqZURWNyJFQgLZB6uqidNgeoGoODYRW2p6uAJeeh6ZqPUiNORloPyw4egv/8M0w8CKbRGJqnxhpzZR01MKKSnSmhIcHJVmSx/sU2XPDZVVhy7Sq0dir/oHNjhLE9G94AWWxCEnpsfYoOkCZSonEiRRCHx4MiGPkqqwj80bglItsj80Er1UePO7g9Gs9iuQRZa0ozLBepk6egPU+zSfF85YYoZC20NjSi5rL3ojBqCpBPwasbTw+jFFUHXV6xOGbDJXoCSt+NiDavHzjJns6cWI8tu9tw7r+swuoXjqDIA6LNzJjnaTkbFAse/riZAgyoNaIQZ0+tQ4FRJXC0c+UkxfDtPAr0B3sO58h03ECydWYChZZAUinZHudzqugjVKQ45KHAoGBkDCW4oh0dLfkrjj0ZjW97J+wpM5AbOc5EVWmOKUYjdTzRb1/moyATUXx8MFFHhddNDRX41Dtm4pEvLOV11jjWiEJzfOigJtzz5D7M/+hK/Pz3O/pP3yOkhTedOZo+hxm1lYrrRNQEMuhx911q4JPrjqClg0eBHqIWcBOkXZFlyV8xd+LBMqxihltTz/yJ83ndyHQz8SvjgHlW3jeRr6WmDu6l76RGcawxw2geleikrw2TeSXjE8b1G9WVac6Fc8dgx48uw4cvnQwnleOuRj5FAgu8ts4iLvjkClz2jSew+zCzUdMaUQKKNlrXOqTOnZBBhZeBS58TzaER8mLaY+UeNfji7c+zLh4c//qU3SX/cqQhD6GUjiVAPk2zYsJn8QgjBS4e2AfXCBsvyvEOVSnNYwWKlShkxiJMsaPRPs0RFwOSZEs2PhoeycD2mAw4Sayfekol8rR1X3k6B/qx1jTVZ/DfH1+ExbMb8dyLzF3MGNPUQ6X3WuR9y08hwBTGll8q72yzc4bmdKBrH1ZvaiGvWl8tZmYKJk3RlXY4LjSbPOeqnTIdXpv8TAXadmyj72J/M1bJKE2B12lqZFUuw2CgJ4nRnEkUFckDyUHEAw0lGJT2K9OcWqqr1cZdK3K3vSyaaipwy/vOwIavn4dzZtUgKIrJqG9pIldKqr5o7mi8f9kULkRwzFql6kuSBvFUfefDe1DkBpS0kHhHvpUaRVqjB2bRb5HOo3ryLJrWGN5XIzy0H+G2zXAElsdDJp28jr9F7keBqufY7dGTQj3cJ0hJ0RKWHFH5wv2oDJwUbd22PbS0d+OTv1iHWROrcdnCJmR54JRJ5LkIpzX4yGymjasx40SqEzDLTh+FH/z9GWRMUyfTl3Mhuz/IjPZff72N13FlD3ESjnWoJTrpyz9E4ZfXzLaPuGnUXPgmXnOgx8Cw8r8xnlZUyeyTsBgnryzYnPA4zjhellKtEK99RB+Qynp4VN0frNiK6R98CN+4dwt3iqFUh8M4i9Iu11Y6uOKS8Xjq28tw9rSRBhBpUW2liw+94yTc+vF5qK12TV1pMQBxfpWQ9zc+uA9H6MN62Y1YNmjR1wXUmsh5crfjVm1LnvmNM3UO3KaxbGP2fXALDtz1E1S174Cb62SiSICoLUkxp3qjeVEJi2wvEjxG28jkSkh8Gl4jKgPnul9txgdu3oACbV6UYv5geOWkmmfuSTV49ltL8bWrpqKBZhF6RSP4m89qwp6bluPzfzUb6QIdLessAWqAkH33MqG5mre149/u2BLX9DJjiAKBuUsUrcrbskWbDt5GZzqDurdezrDOWEX/mNuxGgd/czOamHSioIfysaYYgFmnIkp+SX1WjXDRRW+XgXUrabddi6acwm/XH8a8D6/E5r2daEg7dKZZqquLhdNG4PEvLcRPPnA67T2HsItJoknHBW5vCXnY9Fl0WPRSaVzz3eaSDSrhRkTA7a0bGeo1Ug/TlFcRBGptkUAXqck+B7emR6D20vdwOE0+x8le3INdP/0q3N/fhqY9WzHBP4oJbjeyPG+5PgtN0FFJ3GaybMxHdFvOi+Pa2c+Uq79QjH5nTKilNm3Cl369mX6oiAtnNWDhlFGcT08DbcybVIdRNRmeuqUpZiSB4E/yEDyahgzRUfK6m+esd3/paazeeLh0E/uRtY0n74Wvp9w0T64T9aUmSAvjQ2zIDDnkwbFu7Dh079jFKEUXUOBZrnUv2jc1o21jM9q3bwZOOY28MaPnHGIxYpPM0BSs5odh0akbMrwKA/3wD4vpm5Dq9YJu+tgq3Pqh+Vj53AGsotYkgmQrldCplyo4uZlD930pajd9TL8CCvRfH7t5PR54ihEmnm8wstoOAb/8BgMao5D6GgWM1+XgxGwK3JGOSTNRe/kVCE46hV1StMoOjjsI58AuhJvWUvMYfs3j2V6eBqTYhEtby8AZWZ3CF/5iClZ/cTHezCilqKHTeEL6MECCmRxB0WIYJMfaSQf7iR8144cP7DkmMAnZz66B851P0tG20KzkPGmeJVFH5y3dF+hc2xrGoO6yq1GpKJZpYHtFlKMRqHT7LiaGSSoRFW1Yf2Jdn2rHRuYz8TV++MEz8M4lNbCyaQrl49YVe5gJ54wznjepFp9ePh1VWcZNQlquMewQ32ppPdhW5loM6Ye4u5de9yTueIwaE3XpT/RHZZwZG+VM7UfhP3IXrD07YE0/i86X/RTxyJva9YDfgM30I6yqQq5iBBrnLQbqx9E/sW+xC9aIJliNJzGN1HEzXoUsyllbzY/AaonNagAqe4b8q3+ezyPEKCqMEigXSz/1mIlc1181B/PpX1z6Er3t7KWe5XpIvshHDTLFVjQfeBF/+dXN2Lqve2CNEcB6m3HOMgQTp9Fu00DbUdgbnoC18WlORiA0UP0qahG+dhm886kdDMc6iad4RAiMD5Im019oShYTKMmJr5RANTpulJAe3gVFcvrz62C98GwsQn8Gy8C565NnYtHMGri03Y27O7F+ZzuWLxhHc1ISqGWlNGImsUYN7Z00CpsBugjo15knXX/ndhT6ZcAizpXJUNg3wL34SkZfPb6kwPFjBDdNzd2xCdYDP4fdvKZniIAKR/GU/frLEMw4m6k8nbBezXCBhD/DQ0yqS8yQLVElSQ46NOB8EdamBBxRbx9RDzia6IHPnYNTRtfixns24DsP7MZDnz0Hp02oM9pSDk5/EgN6Erii+QCuvW0znt3RNgAoJO5aOG0u/Le9G2HjGazgfE4HJ+BvGO+wAYLJp9qa18O573sAtdD0SUCYPAPW8mvgNYxmFU3QnOHUEPmiBBjzaYzyrVLQdKoXOL/4Uh9wRLqJ1jDgJIJfuXQ0fvS7/SYSa67Hv7wUU8dXRAuY5zl6P1kKTsSAQNl3pICrvvU01jx/xMxdwguJFWK2pgHBX30C1mmvYYcj9LEjqCyMJjoeKJ9JiAwo7a9hFtuFCjjVzI/uug0WcxgUGcHkBMUzFwnPWIpgGRPCLE2MHlSO25ylYpnEu96fllJ/cMqYJUVjy8wqXq+H1l5/EUaPD1DB/OTme/Zh7rQqvO5UahLR1csCKzsKbUe68bffeQr3rz1AG48y6TLSpCn6lbe/F+GZF0UHSvOSP88mfaXDVD4WRMcGvZ1wzVtMKhQFLdJmikE375mr5Gl6D/wY1poHOZ5AJJrEjNlfcimCc9/A7LpAjdMjEuVWBIoThSZasXu8jMCxEnA2rxsAnIjKwBEliEsjNv7HxXhi215cxyTw+V3duPNT87F4Rh0yzDm60lX42Peacfuju6KXcZwlmciotC5YGSx+O9wL3oWgNsP9iOr1SYo4VSRTxqv3S3ryZ17fkGmL5qVTs4TSITLUydr805zUqv07Yd39I0CCmVoW/YwaC3/xWxDOoLkGdOCc23JlstJKrccfXXFTLGbL5eDEjYYiSQYEJ7HPs6bW44lNR3sAu/dz52JuUwq3rNiP6+95gVlz9PizbAItohP59AUIl14GTJ7HiKJXO3rap4Mge+jzEh0gOa8fdtKndcM9vA3ta1aiegbHjZ2OvFvFUwM1xahaxHrCR3IdPPMI7N/fyVBPf2SIZqa/U2YTpHcCY8cgVeGhwPOWcfbRcP5G4Di//HI/cLREIn8/cEop6hjfkK59+3Se2neYZ76aq7TNEAeEjROBS65AOGsh5QrgZWiE7GvR5MS5Frap8hmG13ShE5Xt+9HSvBqFP/6WU3Zyk2uACdNQd+a5yI2fCj8Owz0MxwDpK1M58ywn9+7/NR3k/TyfdLKjomPcZ+F5CM48H2H1GA6k9igYiri+Aee2fx/ErKLxQ4LTlzTE7FjfyaQpeqN4ydXILH4Xcv5R85xTZyoDGLtIloRpgZWl0/X3bkTxZ4xEeao+6Fd4yg4K3fQhHCG/NPONqD1rCcJsLc9lFI5mJwPR+p5e93IeuxDClT+iafq3fo15y9P073LwnENAcoy/7CrYc18HPx1FLdvJIsgHcG/7Cs9xzw0KjuNYvRnycKhsGi4sCs+5CM7ffRbeyVN4mubuKf9gvR3wUOpV8Ja7L3DM4wu2UCq9dXTsDvgvPAN0tSJdkYEnaZldUwr2JzgHX0R+3VqCF6Bm9FjzPj1N86BnMpojmXQAlVYEGjv7tbBmLwR2bWMyqQ81xRxTgi1rYa97FBg3CWHdCGbvHJMnSA/dCnj934wk4AzpkEtJ9T116iPGpp8Bn0lcatIkZtJ67qy26N2QwYCnd4YqbbUBx5ABgPdM+lJugLq9O3Hop9+jorVBGJq+6iLnxItM3qGWZOFPaET1gsWwJsxEkK5AQV+Tsl1OXY9RxZ+Zmc7bPDvf3Azr/ptgHTlolov+sD/zo/Dk2bD37gA2Pq6GPhTzp6vBwBH1BciQQGqawNziHbBmXEgh9Cqly9RH7QSGTlSHiDRP4q6nT/nld5j1cofzcrBKKo3sNrOYPNxnHkPbKobnYrsq+V+AEdV1ONLKCMbxIVOJMMMQ7fHcN2oasotfh3DcZEZ+pgLmk9xobXJGpuX0o8fnsLpgP3I3nFUrgE7NHQGUCH8s6mdWpeD0o8pqhOdfCu/q9yMcfyqZ1s5RLUs1Sos7IbJ+AdmDB+Bs3YTwhRdRSx+e1ZeVFRzDdreYRRX7FCqpaSNGI2htRXhoF4HTRAHGTpmK7JxF6D7ayTuCr5BMM0wVO9D99DOwu7tQ2zQSRfkPbVj8zzg35k6h3u2kuCmTZyGYfw6sA/thHT0Utw+PjOYMBkip5qiP95Fvwx5Rr9fUDMG0AamzzMCYivpEn8FVUnuc7U/h6IOMInom48uNUmoJXplG/QyaxoTTYDWNQUea2hBUoyG3Ewfv/S6wrwVZRhLfSaNy0dtRPWsG9mx6CuFjf2DeeJiKQZ+mF1vURKQqUTlvERqWLMJun9pYrKJ2kTnpkDZOTOkcZZGHAhPMA1vh3vRlYq+8aiDiHBQlkdtozpDaIqL6B7PPRnD2MkYFOjKOTZ7qa8Ko8C/7pZm4dd99K3LProZTaONO60ApJ8A8x2dWzGjk79+P7i2bkF/7DKPLBtht+80pfvJJY3Fg8zYKw8hDf1Q4cAiF6VNoxhNRP+9M+F0O/CPyLykGRx+23w5vz060bX8BmclTCTKPOibhc/iPkY2bpjuRTuJubRPC9X+E1dEa15ZSfwyGBw73wKLNhguWGlWNoTA7Izeof4lGW/QzlS5DbUc7gpYWVBIU1XncQTGoTTGZSAWZ7TwK//B+BHu2oItCtuzluY7Rw9eXoox4dncR3uEupGbMQwc1ZQS1raZpKjxm0cV25kTIMCeah1rmMlblCHIjj66QH8vDX7pnrukzQoWo5WYWf38HfVvp6+dSKsdh2D7HItP2+sdh1TcCjU2soaBRS1SM1BKbmlVbg+rJp8GuyKKzZTczYWoCd7FnbqreiJMnoG7KqbBHjmPkyVKxigiZxIX6wkKPL5i3hG6Wc41DduJUAm+hQIBydSNRdcoUFDI1qJo+F5nZixA0NKFA4D19WKDopc/PxBPXMxtBM3K3NyN/yxcRtpd/0dHD/wB0nNFKC/KHzti+/EPwamjjKcYljun5OMmoj5y0g1QhjxHeUbQ+vgL5LZspfBcPkzmmMITQpwA1IzDxgkuQYVad7+xA14F9OPriDgSHeHZyc8jMPRdphl09PDMHVDeDolXBPaDPCAgg13YL+h9KeODliTzkAddmjuQQHM/OI618qZ1+6t4fINzMfGkAkryRmH1lZdtxh3JD7KPz0pyz4V/6bgQZRgx9vqoX+Bwipyyf5CtTpTZl/RxGex3Y+V93MbHbTp3rojgER9GrqoI5HDXptW8GmubhMEHLpJlEFg8RiFHsx3OQMnCNUBogKGgm0VdirCWPEc/UGGqk4xM8Hlb9dDvSd9yGsHkVO5GPoWQx1L/9uMEpb+efmjo66osRLH0rUxwmdqyTUigTjt42imHuKsN22smhaudOdD/+BJPiTUyGeVQANUAP0MNqZCbMZuR5PVqdSqZCGeQYEWmkFFprSiN1Oo/AERiiUnA4Ec3Khf3ECtir7obVQRPqkaGXb3NpqkvlK2mP6/uBI0oAODY4ao9WshlRUhddjq4pcyhM5BSl/qYLTUxfUrm8T9E8MkEehS1r0LnuSap9C9vbiJHeMNDBputQPX8JijMZnVI1mllLkeQ99GhEIAn6qN5Mz0VsOfzNz8Je+RtgN48PsYD9qAeYngtS6XUvDXi2KgWgLw0GXNjVDp8qrG+EMZon8yqerqMWrkKBWMwnIvIHOg81jMLIaTMRdnQxsuWYFFK7zOdu3SgcYvKYqoY9OvkqS2upyKwi0glLJH9jH94H647vm2xYD+ijvidOQ2pOQqVAlILTX4vYruSLMoSvuQDeouWoqmtALkjT1LLcnzxFYkJmHosSLD/Q627zqKHjsd/B37YOzvx5qD5tLgq1o5m3ZTmvmdaQ+R9DpJV0tOm8ngVxrsd/Q225RwubOclU3HsA6pmrn8jlFM/xksHpS301ySwgR01fFJx1CfFQnkPmGUWU9+hrb0vOSV3JbJoJY0YfULsp5Jn5mnM91UbBuGdDeNiUg1diZz21BvjDLwmsHneUrj0wf+V0LHDin4HAefkoFqppPILzlsOdeyYK5hmvIhtz2MhmDK/GiQtgASEtkAnp/TcbBY7aUgzV3qbn4Dx0O7Cf5zCzIa8A+4YtbswrC04JMRwHp56GgAfXcNTJ1B6l+OKCwvOwZt5ICgSTACqDVQQTiMKLjB7aC+vR+2CveyIG5ZUkbRD/S9t13JRXBx+jFVrrtZcgWLAMqepGeHTAFg+ZAiKguVkEx3OZRNLEpGFhWw720w8zNP+X+TxFYA6PzPaTXops0VijOYnavnrExV0XwUVXI/2aBcjl8zwqVLC6lwdLr1U28PB6508iQOVsTb356VUe3Z8Q64OD+OqZVT8iU/QtYV09UgvOhz/pdB5HanmAz0X5yh9/Z0wpASWh/zVwXk0N6olAWk/X+lWYVqqf3A9ALzs4Zi1d9J+kn+aUMT0IDaeP6FUBe0hwIj4jOn4+okRjAEoA6EuD1Q9ErwowryANCs5ggr3iAv8fon7gSPiBAJDGlJrTYCAdj2YNRsqLB6OIj/hGLAy5V0mHITsNSoNqzkulE9cs+qn4ajA60RWGR8D/AK9CSS2ewmVCAAAAAElFTkSuQmCC;" parent="1" vertex="1">
                    <mxGeometry x="758.22" y="791.5" width="21.78" height="23" as="geometry"/>
                </mxCell>
                <mxCell id="rirupHPmU7Hzg7xjt6_u-107" value="" style="rounded=1;whiteSpace=wrap;html=1;" parent="1" vertex="1">
                    <mxGeometry x="960" y="680" width="210" height="220" as="geometry"/>
                </mxCell>
                <mxCell id="rirupHPmU7Hzg7xjt6_u-108" value="" style="shape=image;verticalLabelPosition=bottom;labelBackgroundColor=default;verticalAlign=top;aspect=fixed;imageAspect=0;image=data:image/png,iVBORw0KGgoAAAANSUhEUgAAAEcAAABLCAYAAAAicppkAAAAAXNSR0IArs4c6QAAAARnQU1BAACxjwv8YQUAAAAJcEhZcwAADsMAAA7DAcdvqGQAAB6gSURBVHhe7VsHmF5VmX5v+cv0mWSSSQUS0kgjwVCiISEUAxoVCyvrupT1Yd19HsvuWtayYlldLItlRVFRVBQL6IK0BVyMBkICSMkQkkB6SE8myfS/3LLve+69M/8/LRMC7LqPXzjz33vq973na+fei5WyakMMQZZlIQyH7PInSFb8O7Rcdvz7ZxqAjgnOn4LWSLtVejXiWCSZ+sil8X3m+H+hOWH8z7JOYCM5VMNL4f2zWfVQf2CHDU6v6g5Nw+kzPEpUfPD5yFFZsxFvwGFlNyTeJ2YkueL2RAMTetk152XxUbZNnmkm5G4oU1FLX7GHRWbO0nk1S2mJaNjgSOgTFdws3bv2IMTU4bTXIPjA1+Cf/1auqarBBokn8zNwORZpsPmvb+dovSHznMRETgQUM4P+cIpM2kYm5aC9y0PQM2ep4KxLpRHc8BCCilpe+8DWDXDu/CGsJ1cAQRD1OW6KGUioz215RS8/JwSO2gdqM6PYlnYtnD6pDhed3oALTx+DKeOq4ToWDh0t4vZVB3Dj/ZvQ0lYwbEWz8G+2Et4ND8PJhAhoV0EYENQsin+4B/ZdN8HaszXqfAIbNlw6ZoZ8vGQTmQpqyMWnj8Y33zMH1fUuuP+ATx+if0KOCpB26rG3pQNz/uk+dOX9nn1DtgreN1fDzrYhtNKsdwwOJswGWeDum+Hc9x0g102ApEkDkNYYSqpoz4fuQ3rZwLEptUzlqqWn4PN/OR71NIuAjjVwvTh/cCI/KLIIBtuKXgUefHIf3nX9oyXgVKJ4w+9gp/LsU0H5KUmsJZZXzb8BQn8f3B9/E9ajd/NebT2jIzqW8K8WONIEAfPG+aPx6b+YhemNWaRcRzPD5857qcO89shItgccCx7YSjEt2Blg2t8/gp37cxGvAufG3zBSUWssNhrlUNygeXEaO7SRo7k6cBFsex7Or24A1q/SpFyjRBRzH132p+Gh85J9TjL9opkj8eG3TMfS2Q2RhvTEv8iMQmmJuSdgoamhqAEcAcYBgWvjqm+swy8f3mN6oULgPMi+hI4Am6WjP2ZNi3OEWoS/IivwYT39MKz//DasfTtNXc8uxD8vlYYdyhMSSw4dy9TxNbjlIwtx56cWYcnsEVIfU0IyFhVtORkng7ZAiRkVPIZpaoAuPfqiJbMaI1+UkJwU28OQFyoxaZNMlDO+RscFmjK1yF+wCP51v4D/lvcAtQ2cN17jBOm4wamrTOGGq+dg9fWL8ba5dajyitSC3s0S2bxWiaaPpNbf3sWiOiMsfcr8SfWRcphKtnoB7MCFwzaH90kRGJY2IRrOsQRO4Z1toU8zXX4Fwi/cDnv+hVzM1YCo43GTxtHko5uBScwnJqV1RtemseEri3Hlkibe5+GnPPhOScQw2pJQ36k1j9pZjGapjn04f1Ndmn6K17EwKV/g0Az7UOkG9JD4M/kPicB5FQ68a/4FwRd+gvDkU1kZCdpbBqCyat1oIZn/cVA246KmljvCbUwb/8EpyLH8iCmcc0ABDEULqph/HCyR5Fpr0mlUZgRGNNijKfnI85b3piP7E4CA/outcHyP1Wy3Gc6tIuukQbz1udsElfEMQcN4eB+5Ef41n0bYOJZ9OI8BX6UPlfHcezNscDRl2nFgO3SSFEhMOCwGELITlYGWTmqkMRIu2mX9VZQWvxlqjZLDGG7+YzQjAMb3sJPRXnXmoJCVns0GU5filC55sZAioKnAI0AEi2BGyzDizT8f4WdugfXmK7m7SgWGT4zCCfNDk/plUnSShuOI4vhhrqIyFCXrRL9SWhN1tD8ULgImJqMxbGd9QI0JpTmscim3k88jXWxBze6tqNm+GSN2bUVj60HUFjvp55gbcbfMPw4wPorT2WEKwRv+BsXP345g3rmcpNdkTZ9BMDhmnmOG8U8tHfHdH16Ms6ZnuSkRQMnAnqkpkC/156XWc+QUTa/SIqLg9NihTd/iOch3O5j8gfvRyjNXmOFR4Wu/5gQ8WxlnGwkpqmBkSh3ZjNbbvgrsepF9KllL0xozEZh9LiYsuBAHmE951BCBagSnWbrUIIfAdTOxtJl4Wvf+GPZ9N3FsLzCRb034i+iYZjWyJo2f/uM8rP3+RTh9RgUTu14xpekWAVEJzO6GeHZnK89MO/D01o5Isw2VL1pK4qkr7yFXlKdQP05aJNNyJX2Gpfx2dD36W1i7tqPKYQcvxz4dwCGetx69F3tv/jdkmleistCOlMnCGcHopIvU0JSfQ9ojUGTKveSvgbmLuJSA0SID8zckOOfPq8Par5yHt5wxDo28d6iygayAahnIR2hn7Bp4+TTufKYF5177KJZ8eg0+/rONuPjzq7FhfxfVXKFeu6hnNPRRpkS7JVI+1NZVQK4Qm6txYgTKeHb6HRaZskrF4aMortvIdh49lP9kKKlfBaudc7d1Aft2o+OuH8O/67toDPbCcjrJNHMtaleXwzOeNpHJZ0F+65IruDjX4e5EWiMSX728DQnOqaOqUU/NsXgO4vJmlw3PMfmsWLl+L5b/+ypccf2TWLu9jUkd12R9nrnKTfc/T03z6EB7dag/hdh2sCtiSXOzuNQkp8CaKN73UMehg0DLfriuS21gm8y2tgapSZNpjlUIOcayCuje+BD2/ux6ZI8cNBoDvxAljyRuL/lzETZNByrrTd1gNCQ4FTzfJCSzkT9JSNd3rNlHDVmJlRsOmsX92LRE+nliUys1rQBPTpKCqkRL9gqtZPe5PTSNEhw8yswgRGIjO9hxsQqRJvjFAuvpVCsaUf/ea1F35cdw6vuuQ2rR5Qiqm7gE19i6Bd0/uwG13bk4IRVPSjo1pzw7NXIi8yATFExrSYloSHDctKJTlL+s29GOf/j+up4dEExt3XIMWtT89KEQuTzHelR7PxvXJSQkIjS411i7s613Dv7aQqZURWNyJFQgLZB6uqidNgeoGoODYRW2p6uAJeeh6ZqPUiNORloPyw4egv/8M0w8CKbRGJqnxhpzZR01MKKSnSmhIcHJVmSx/sU2XPDZVVhy7Sq0dir/oHNjhLE9G94AWWxCEnpsfYoOkCZSonEiRRCHx4MiGPkqqwj80bglItsj80Er1UePO7g9Gs9iuQRZa0ozLBepk6egPU+zSfF85YYoZC20NjSi5rL3ojBqCpBPwasbTw+jFFUHXV6xOGbDJXoCSt+NiDavHzjJns6cWI8tu9tw7r+swuoXjqDIA6LNzJjnaTkbFAse/riZAgyoNaIQZ0+tQ4FRJXC0c+UkxfDtPAr0B3sO58h03ECydWYChZZAUinZHudzqugjVKQ45KHAoGBkDCW4oh0dLfkrjj0ZjW97J+wpM5AbOc5EVWmOKUYjdTzRb1/moyATUXx8MFFHhddNDRX41Dtm4pEvLOV11jjWiEJzfOigJtzz5D7M/+hK/Pz3O/pP3yOkhTedOZo+hxm1lYrrRNQEMuhx911q4JPrjqClg0eBHqIWcBOkXZFlyV8xd+LBMqxihltTz/yJ83ndyHQz8SvjgHlW3jeRr6WmDu6l76RGcawxw2geleikrw2TeSXjE8b1G9WVac6Fc8dgx48uw4cvnQwnleOuRj5FAgu8ts4iLvjkClz2jSew+zCzUdMaUQKKNlrXOqTOnZBBhZeBS58TzaER8mLaY+UeNfji7c+zLh4c//qU3SX/cqQhD6GUjiVAPk2zYsJn8QgjBS4e2AfXCBsvyvEOVSnNYwWKlShkxiJMsaPRPs0RFwOSZEs2PhoeycD2mAw4Sayfekol8rR1X3k6B/qx1jTVZ/DfH1+ExbMb8dyLzF3MGNPUQ6X3WuR9y08hwBTGll8q72yzc4bmdKBrH1ZvaiGvWl8tZmYKJk3RlXY4LjSbPOeqnTIdXpv8TAXadmyj72J/M1bJKE2B12lqZFUuw2CgJ4nRnEkUFckDyUHEAw0lGJT2K9OcWqqr1cZdK3K3vSyaaipwy/vOwIavn4dzZtUgKIrJqG9pIldKqr5o7mi8f9kULkRwzFql6kuSBvFUfefDe1DkBpS0kHhHvpUaRVqjB2bRb5HOo3ryLJrWGN5XIzy0H+G2zXAElsdDJp28jr9F7keBqufY7dGTQj3cJ0hJ0RKWHFH5wv2oDJwUbd22PbS0d+OTv1iHWROrcdnCJmR54JRJ5LkIpzX4yGymjasx40SqEzDLTh+FH/z9GWRMUyfTl3Mhuz/IjPZff72N13FlD3ESjnWoJTrpyz9E4ZfXzLaPuGnUXPgmXnOgx8Cw8r8xnlZUyeyTsBgnryzYnPA4zjhellKtEK99RB+Qynp4VN0frNiK6R98CN+4dwt3iqFUh8M4i9Iu11Y6uOKS8Xjq28tw9rSRBhBpUW2liw+94yTc+vF5qK12TV1pMQBxfpWQ9zc+uA9H6MN62Y1YNmjR1wXUmsh5crfjVm1LnvmNM3UO3KaxbGP2fXALDtz1E1S174Cb62SiSICoLUkxp3qjeVEJi2wvEjxG28jkSkh8Gl4jKgPnul9txgdu3oACbV6UYv5geOWkmmfuSTV49ltL8bWrpqKBZhF6RSP4m89qwp6bluPzfzUb6QIdLessAWqAkH33MqG5mre149/u2BLX9DJjiAKBuUsUrcrbskWbDt5GZzqDurdezrDOWEX/mNuxGgd/czOamHSioIfysaYYgFmnIkp+SX1WjXDRRW+XgXUrabddi6acwm/XH8a8D6/E5r2daEg7dKZZqquLhdNG4PEvLcRPPnA67T2HsItJoknHBW5vCXnY9Fl0WPRSaVzz3eaSDSrhRkTA7a0bGeo1Ug/TlFcRBGptkUAXqck+B7emR6D20vdwOE0+x8le3INdP/0q3N/fhqY9WzHBP4oJbjeyPG+5PgtN0FFJ3GaybMxHdFvOi+Pa2c+Uq79QjH5nTKilNm3Cl369mX6oiAtnNWDhlFGcT08DbcybVIdRNRmeuqUpZiSB4E/yEDyahgzRUfK6m+esd3/paazeeLh0E/uRtY0n74Wvp9w0T64T9aUmSAvjQ2zIDDnkwbFu7Dh079jFKEUXUOBZrnUv2jc1o21jM9q3bwZOOY28MaPnHGIxYpPM0BSs5odh0akbMrwKA/3wD4vpm5Dq9YJu+tgq3Pqh+Vj53AGsotYkgmQrldCplyo4uZlD930pajd9TL8CCvRfH7t5PR54ihEmnm8wstoOAb/8BgMao5D6GgWM1+XgxGwK3JGOSTNRe/kVCE46hV1StMoOjjsI58AuhJvWUvMYfs3j2V6eBqTYhEtby8AZWZ3CF/5iClZ/cTHezCilqKHTeEL6MECCmRxB0WIYJMfaSQf7iR8144cP7DkmMAnZz66B851P0tG20KzkPGmeJVFH5y3dF+hc2xrGoO6yq1GpKJZpYHtFlKMRqHT7LiaGSSoRFW1Yf2Jdn2rHRuYz8TV++MEz8M4lNbCyaQrl49YVe5gJ54wznjepFp9ePh1VWcZNQlquMewQ32ppPdhW5loM6Ye4u5de9yTueIwaE3XpT/RHZZwZG+VM7UfhP3IXrD07YE0/i86X/RTxyJva9YDfgM30I6yqQq5iBBrnLQbqx9E/sW+xC9aIJliNJzGN1HEzXoUsyllbzY/AaonNagAqe4b8q3+ezyPEKCqMEigXSz/1mIlc1181B/PpX1z6Er3t7KWe5XpIvshHDTLFVjQfeBF/+dXN2Lqve2CNEcB6m3HOMgQTp9Fu00DbUdgbnoC18WlORiA0UP0qahG+dhm886kdDMc6iad4RAiMD5Im019oShYTKMmJr5RANTpulJAe3gVFcvrz62C98GwsQn8Gy8C565NnYtHMGri03Y27O7F+ZzuWLxhHc1ISqGWlNGImsUYN7Z00CpsBugjo15knXX/ndhT6ZcAizpXJUNg3wL34SkZfPb6kwPFjBDdNzd2xCdYDP4fdvKZniIAKR/GU/frLEMw4m6k8nbBezXCBhD/DQ0yqS8yQLVElSQ46NOB8EdamBBxRbx9RDzia6IHPnYNTRtfixns24DsP7MZDnz0Hp02oM9pSDk5/EgN6Erii+QCuvW0znt3RNgAoJO5aOG0u/Le9G2HjGazgfE4HJ+BvGO+wAYLJp9qa18O573sAtdD0SUCYPAPW8mvgNYxmFU3QnOHUEPmiBBjzaYzyrVLQdKoXOL/4Uh9wRLqJ1jDgJIJfuXQ0fvS7/SYSa67Hv7wUU8dXRAuY5zl6P1kKTsSAQNl3pICrvvU01jx/xMxdwguJFWK2pgHBX30C1mmvYYcj9LEjqCyMJjoeKJ9JiAwo7a9hFtuFCjjVzI/uug0WcxgUGcHkBMUzFwnPWIpgGRPCLE2MHlSO25ylYpnEu96fllJ/cMqYJUVjy8wqXq+H1l5/EUaPD1DB/OTme/Zh7rQqvO5UahLR1csCKzsKbUe68bffeQr3rz1AG48y6TLSpCn6lbe/F+GZF0UHSvOSP88mfaXDVD4WRMcGvZ1wzVtMKhQFLdJmikE375mr5Gl6D/wY1poHOZ5AJJrEjNlfcimCc9/A7LpAjdMjEuVWBIoThSZasXu8jMCxEnA2rxsAnIjKwBEliEsjNv7HxXhi215cxyTw+V3duPNT87F4Rh0yzDm60lX42Peacfuju6KXcZwlmciotC5YGSx+O9wL3oWgNsP9iOr1SYo4VSRTxqv3S3ryZ17fkGmL5qVTs4TSITLUydr805zUqv07Yd39I0CCmVoW/YwaC3/xWxDOoLkGdOCc23JlstJKrccfXXFTLGbL5eDEjYYiSQYEJ7HPs6bW44lNR3sAu/dz52JuUwq3rNiP6+95gVlz9PizbAItohP59AUIl14GTJ7HiKJXO3rap4Mge+jzEh0gOa8fdtKndcM9vA3ta1aiegbHjZ2OvFvFUwM1xahaxHrCR3IdPPMI7N/fyVBPf2SIZqa/U2YTpHcCY8cgVeGhwPOWcfbRcP5G4Di//HI/cLREIn8/cEop6hjfkK59+3Se2neYZ76aq7TNEAeEjROBS65AOGsh5QrgZWiE7GvR5MS5Frap8hmG13ShE5Xt+9HSvBqFP/6WU3Zyk2uACdNQd+a5yI2fCj8Owz0MxwDpK1M58ywn9+7/NR3k/TyfdLKjomPcZ+F5CM48H2H1GA6k9igYiri+Aee2fx/ErKLxQ4LTlzTE7FjfyaQpeqN4ydXILH4Xcv5R85xTZyoDGLtIloRpgZWl0/X3bkTxZ4xEeao+6Fd4yg4K3fQhHCG/NPONqD1rCcJsLc9lFI5mJwPR+p5e93IeuxDClT+iafq3fo15y9P073LwnENAcoy/7CrYc18HPx1FLdvJIsgHcG/7Cs9xzw0KjuNYvRnycKhsGi4sCs+5CM7ffRbeyVN4mubuKf9gvR3wUOpV8Ja7L3DM4wu2UCq9dXTsDvgvPAN0tSJdkYEnaZldUwr2JzgHX0R+3VqCF6Bm9FjzPj1N86BnMpojmXQAlVYEGjv7tbBmLwR2bWMyqQ81xRxTgi1rYa97FBg3CWHdCGbvHJMnSA/dCnj934wk4AzpkEtJ9T116iPGpp8Bn0lcatIkZtJ67qy26N2QwYCnd4YqbbUBx5ABgPdM+lJugLq9O3Hop9+jorVBGJq+6iLnxItM3qGWZOFPaET1gsWwJsxEkK5AQV+Tsl1OXY9RxZ+Zmc7bPDvf3Azr/ptgHTlolov+sD/zo/Dk2bD37gA2Pq6GPhTzp6vBwBH1BciQQGqawNziHbBmXEgh9Cqly9RH7QSGTlSHiDRP4q6nT/nld5j1cofzcrBKKo3sNrOYPNxnHkPbKobnYrsq+V+AEdV1ONLKCMbxIVOJMMMQ7fHcN2oasotfh3DcZEZ+pgLmk9xobXJGpuX0o8fnsLpgP3I3nFUrgE7NHQGUCH8s6mdWpeD0o8pqhOdfCu/q9yMcfyqZ1s5RLUs1Sos7IbJ+AdmDB+Bs3YTwhRdRSx+e1ZeVFRzDdreYRRX7FCqpaSNGI2htRXhoF4HTRAHGTpmK7JxF6D7ayTuCr5BMM0wVO9D99DOwu7tQ2zQSRfkPbVj8zzg35k6h3u2kuCmTZyGYfw6sA/thHT0Utw+PjOYMBkip5qiP95Fvwx5Rr9fUDMG0AamzzMCYivpEn8FVUnuc7U/h6IOMInom48uNUmoJXplG/QyaxoTTYDWNQUea2hBUoyG3Ewfv/S6wrwVZRhLfSaNy0dtRPWsG9mx6CuFjf2DeeJiKQZ+mF1vURKQqUTlvERqWLMJun9pYrKJ2kTnpkDZOTOkcZZGHAhPMA1vh3vRlYq+8aiDiHBQlkdtozpDaIqL6B7PPRnD2MkYFOjKOTZ7qa8Ko8C/7pZm4dd99K3LProZTaONO60ApJ8A8x2dWzGjk79+P7i2bkF/7DKPLBtht+80pfvJJY3Fg8zYKw8hDf1Q4cAiF6VNoxhNRP+9M+F0O/CPyLykGRx+23w5vz060bX8BmclTCTKPOibhc/iPkY2bpjuRTuJubRPC9X+E1dEa15ZSfwyGBw73wKLNhguWGlWNoTA7Izeof4lGW/QzlS5DbUc7gpYWVBIU1XncQTGoTTGZSAWZ7TwK//B+BHu2oItCtuzluY7Rw9eXoox4dncR3uEupGbMQwc1ZQS1raZpKjxm0cV25kTIMCeah1rmMlblCHIjj66QH8vDX7pnrukzQoWo5WYWf38HfVvp6+dSKsdh2D7HItP2+sdh1TcCjU2soaBRS1SM1BKbmlVbg+rJp8GuyKKzZTczYWoCd7FnbqreiJMnoG7KqbBHjmPkyVKxigiZxIX6wkKPL5i3hG6Wc41DduJUAm+hQIBydSNRdcoUFDI1qJo+F5nZixA0NKFA4D19WKDopc/PxBPXMxtBM3K3NyN/yxcRtpd/0dHD/wB0nNFKC/KHzti+/EPwamjjKcYljun5OMmoj5y0g1QhjxHeUbQ+vgL5LZspfBcPkzmmMITQpwA1IzDxgkuQYVad7+xA14F9OPriDgSHeHZyc8jMPRdphl09PDMHVDeDolXBPaDPCAgg13YL+h9KeODliTzkAddmjuQQHM/OI618qZ1+6t4fINzMfGkAkryRmH1lZdtxh3JD7KPz0pyz4V/6bgQZRgx9vqoX+Bwipyyf5CtTpTZl/RxGex3Y+V93MbHbTp3rojgER9GrqoI5HDXptW8GmubhMEHLpJlEFg8RiFHsx3OQMnCNUBogKGgm0VdirCWPEc/UGGqk4xM8Hlb9dDvSd9yGsHkVO5GPoWQx1L/9uMEpb+efmjo66osRLH0rUxwmdqyTUigTjt42imHuKsN22smhaudOdD/+BJPiTUyGeVQANUAP0MNqZCbMZuR5PVqdSqZCGeQYEWmkFFprSiN1Oo/AERiiUnA4Ec3Khf3ECtir7obVQRPqkaGXb3NpqkvlK2mP6/uBI0oAODY4ao9WshlRUhddjq4pcyhM5BSl/qYLTUxfUrm8T9E8MkEehS1r0LnuSap9C9vbiJHeMNDBputQPX8JijMZnVI1mllLkeQ99GhEIAn6qN5Mz0VsOfzNz8Je+RtgN48PsYD9qAeYngtS6XUvDXi2KgWgLw0GXNjVDp8qrG+EMZon8yqerqMWrkKBWMwnIvIHOg81jMLIaTMRdnQxsuWYFFK7zOdu3SgcYvKYqoY9OvkqS2upyKwi0glLJH9jH94H647vm2xYD+ijvidOQ2pOQqVAlILTX4vYruSLMoSvuQDeouWoqmtALkjT1LLcnzxFYkJmHosSLD/Q627zqKHjsd/B37YOzvx5qD5tLgq1o5m3ZTmvmdaQ+R9DpJV0tOm8ngVxrsd/Q225RwubOclU3HsA6pmrn8jlFM/xksHpS301ySwgR01fFJx1CfFQnkPmGUWU9+hrb0vOSV3JbJoJY0YfULsp5Jn5mnM91UbBuGdDeNiUg1diZz21BvjDLwmsHneUrj0wf+V0LHDin4HAefkoFqppPILzlsOdeyYK5hmvIhtz2MhmDK/GiQtgASEtkAnp/TcbBY7aUgzV3qbn4Dx0O7Cf5zCzIa8A+4YtbswrC04JMRwHp56GgAfXcNTJ1B6l+OKCwvOwZt5ICgSTACqDVQQTiMKLjB7aC+vR+2CveyIG5ZUkbRD/S9t13JRXBx+jFVrrtZcgWLAMqepGeHTAFg+ZAiKguVkEx3OZRNLEpGFhWw720w8zNP+X+TxFYA6PzPaTXops0VijOYnavnrExV0XwUVXI/2aBcjl8zwqVLC6lwdLr1U28PB6508iQOVsTb356VUe3Z8Q64OD+OqZVT8iU/QtYV09UgvOhz/pdB5HanmAz0X5yh9/Z0wpASWh/zVwXk0N6olAWk/X+lWYVqqf3A9ALzs4Zi1d9J+kn+aUMT0IDaeP6FUBe0hwIj4jOn4+okRjAEoA6EuD1Q9ErwowryANCs5ggr3iAv8fon7gSPiBAJDGlJrTYCAdj2YNRsqLB6OIj/hGLAy5V0mHITsNSoNqzkulE9cs+qn4ajA60RWGR8D/AK9CSS2ewmVCAAAAAElFTkSuQmCC;" parent="1" vertex="1">
                    <mxGeometry x="1002.66" y="730" width="21.78" height="23" as="geometry"/>
                </mxCell>
                <mxCell id="rirupHPmU7Hzg7xjt6_u-109" value="" style="dashed=0;labelPosition=right;align=left;shape=mxgraph.gmdl.checkbox;strokeColor=none;fillColor=#009587;strokeWidth=2;aspect=fixed;sketch=0;html=1;" parent="1" vertex="1">
                    <mxGeometry x="980" y="733.5" width="16" height="16" as="geometry"/>
                </mxCell>
                <mxCell id="rirupHPmU7Hzg7xjt6_u-110" value="DMCX Network" style="text;html=1;strokeColor=none;fillColor=none;align=center;verticalAlign=middle;whiteSpace=wrap;rounded=0;" parent="1" vertex="1">
                    <mxGeometry x="1028.5" y="726.5" width="111.5" height="30" as="geometry"/>
                </mxCell>
                <mxCell id="rirupHPmU7Hzg7xjt6_u-111" value="2" style="rounded=1;fillColor=#F1F2F4;strokeColor=none;html=1;whiteSpace=wrap;fontColor=#596780;align=left;fontSize=12;spacingLeft=10;sketch=0;" parent="1" vertex="1">
                    <mxGeometry x="1002.66" y="758.5" width="85" height="33" as="geometry"/>
                </mxCell>
                <mxCell id="rirupHPmU7Hzg7xjt6_u-112" value="" style="shape=triangle;direction=south;fillColor=#596780;strokeColor=none;html=1;sketch=0;" parent="rirupHPmU7Hzg7xjt6_u-111" vertex="1">
                    <mxGeometry x="1" y="0.5" width="12" height="6" relative="1" as="geometry">
                        <mxPoint x="-20" y="-3" as="offset"/>
                    </mxGeometry>
                </mxCell>
                <mxCell id="rirupHPmU7Hzg7xjt6_u-113" value="copy" style="text;html=1;strokeColor=none;fillColor=none;align=center;verticalAlign=middle;whiteSpace=wrap;rounded=0;" parent="1" vertex="1">
                    <mxGeometry x="1088.5" y="758.5" width="60" height="30" as="geometry"/>
                </mxCell>
                <mxCell id="rirupHPmU7Hzg7xjt6_u-114" value="" style="dashed=0;labelPosition=right;align=left;shape=mxgraph.gmdl.checkbox;strokeColor=none;fillColor=#009587;strokeWidth=2;aspect=fixed;sketch=0;html=1;" parent="1" vertex="1">
                    <mxGeometry x="980" y="821" width="16" height="16" as="geometry"/>
                </mxCell>
                <mxCell id="rirupHPmU7Hzg7xjt6_u-115" value="Google Drive" style="text;html=1;strokeColor=none;fillColor=none;align=center;verticalAlign=middle;whiteSpace=wrap;rounded=0;" parent="1" vertex="1">
                    <mxGeometry x="1028.5" y="814" width="111.5" height="30" as="geometry"/>
                </mxCell>
                <mxCell id="rirupHPmU7Hzg7xjt6_u-116" value="" style="shape=image;verticalLabelPosition=bottom;labelBackgroundColor=default;verticalAlign=top;aspect=fixed;imageAspect=0;image=data:image/png,iVBORw0KGgoAAAANSUhEUgAAADsAAABBCAYAAABvnNwUAAAAAXNSR0IArs4c6QAAAARnQU1BAACxjwv8YQUAAAAJcEhZcwAADsMAAA7DAcdvqGQAAAneSURBVGhD7ZprcBPXFcf/dx96rKSVbCHLD7AdzPAqJgTHxIQABYIJIbRNQ0JIM5l2psl0pk2nM51+yYd+S790OvnWyXT6DlOSaaYNDSENpIEAKRQCxJAQMI9i2eCn4rctW5K3567WENl67Uo4HeDn0ezeI3l1//ece+65u2KR8biGOwTBON4R3BV7u3JX7O3KHSX2li090XgUfaMDGI1FENfi0HL4FsYAkf4UmxM+pwpJkIx3CkPBxcYmYrjYdxW7z+7HBxf+jc6hboxEI5jQJoxPpEdgAlwktMxTgh2L67C9dj3s7kXUS9H4RH4UVKxGf6e6PsOrn+3C6ctn0dMVNt7JHR4BsjCBl+aG8d0FlZDmvowJz4qE2/OkoHO2Y6Qbr5z5PT7vbYasypBsEnXe/FjWukaxLXAN0sBh4PJPwaIdxjv5UTCxI7FRvHHxHbQMtFGLQRAFqH6PfjTDLFsUP668Dp8Yo6sQAx+Dtf8GWnxEfz8fCiKWh++58CV81H4SkzOTUdg53A44XHbDkg2NUpOGjUX9eEAdpP9PRARjdMXuv0EYbkrEeB4URGw0HsPe0EF0jHYnvMGhfnGvKl4X5ReWNZw1jaGEvLot2AO3RNn7xpUY2OglsM6/0Geihs0aeYudIBFHO0/heNeZZEFGX+1OGxS3M9FOI5ibBfLk1sAXqHWPgJHwG4PG0WLAF3sh9NMc5qNokbzFdo32YFfzHvRF+g1LMty7riIXJJmSlWFLxQJlFM8Eu6GI8RsD9WXY2DWwtleAsU7DYp68xEZpTd0XOoJPw+dTdnASm8MGt88NJqT+kIsEvlDRiRolQq10F6LA7t0PFn4r4WkL5CX2Uv9VvN92hPqXQamBojoppKcnK5rNeMg3gPXFqSNjKkLnazSHLxgtc1gWy0vA/W0foXWo3bBkRpB4slJ0707ObX4okmJ4siSsHzOGxyQj58C636ST7BXZVCyL/bz3Eg60HtNDORf0pYiWIbsy6V1N7y736IPeQUpQCWtW+Hrb+QbY8DnDkDuWxPZG+rDzwm70RMyVgzxZuSlZibJIWRy4xxHBc2XdUGVzc5CNXQVaf0VJo9ew5IZpsTEK38NUPBzvbDK9CHDvcs+6VAWKpGFHaRhL3cPk5FzdakB9YOHdesIyk6xMi+0Y7sY7LQcwPmFtgeeCvcUqVgVFfa6KvFIyqVUnPgzW8Tuqm3PLGRxTYnkBcaDtKK70txgWa7gdCp5eshQBp0wtK0oT/8WGTgM9e+gstxgzJTY0eA3vtnyob8itwjPw0sAiLK95HvAsTxisEhugTcIf9YIjF3IWG4mP4bXmtxAavk5Das0bHNXuwVM1W+AvWgat4kfQJLfxjhWo0Bj+FKyVKquJccOWnpzE8rsMxzo/wZH2jw2LNWRBwubK1aj1L6AWDVjRBmizttEpD2erUILqfh2s7yCdZ157cxIbHuvDXkpKw1Hre0qemKo9s7Glah3soi1hFD1A2fehOe5JtC3CxntoV/Rn/ZiJrGJ5tXO8owlnw9ZKtElsgox1FSsxx11uWBJo7lrasX+TemIMgBX4rOr7EFr/oUQ7DVnF9oz14h8tH2BoPL87BTXeKmyYsxI2cUrICk5oJdsB53zDYA0W7YbQ8VsqNNJ7N6NYXgq+eeldNPdeplRgPWs6JTuerHkUpUqJYUlGUxZiovwH+XmX96/vKND+BzqlbWIK0orl4njo7gkd1O8BW4XfHl1TvgKryuqogEjzdZSgtMA2aL5GOs8abGlhWgTC9VeBwVPUmu6ctFceGB+kNfUg+vmmPI+lplwJYmv1eioPHYYlDVIRtLLnocnJc9osbLyNktVOStLTt4xpxTb1nMeJrjNGyxoSE/FQeR3m+2oMS2Y0bwNQvIlK5fyeBLDef4INnDBaN0kptn98CG9f/RftasztKqZS5gqikdbVrF6dRPJBC36HvFthGCwSaSHv/on2CIOGIcE0sfqmvPWwfmc/H2Raar41txFz1UrDkhuap45G6Vk6s+5dfveDe1egndGXk9U0sVcGWvF68x6M5VB+ZWJ5YDFVS2v0UDaF4IBWSnNXrTcMFiGvstAvwSJXDMMUsSNU4O8LHULnaOZKJBt+R5HuVdVmse61l1GyeoHCeZZhsEjkIljXLgrXUb2ZJLZtqJ025WeowrS+pvKlpiG4DEuLef1rHc23DvCtpZ6kTCu5oW/y36MMHdKbSVe6PNCC7jGqMxm/d2vt5ber2Fy1Rt/d5IW9FAg+B2bzUi9p8C28GL20aAjayHn9kkmPLHeePolfHzuCkai1+SrQelw/eyEa5zxMtXD+D5K1+DCq2n6BRSHa1cRpMC3AHF6Ia34OtmR7sti/Hu3Fy3/vRP+otQs7bXbUlJVSRi/Mw2PesdnRDvzk1EuYPfxfa/c0vD44f/gzyKs3JIfx/AoHfC5rHuFeLXKrBRPK4eLa5CD2VWzFuGA3n0loxyZ4iyBUJraQSWKrAzY8uECByUeq+jZQcTjhcjoNSyFh+MTfgGbv16j2NSlXFCHVNUAI0PwnkmSpDhHfrvci4DHnXVEQ4XW56dqF8+ok3LthRwkOlzYiIpobTBYsh7zhETBF0dtJYnm9f2+1gh2ryPU5ThDuVY9T0e8YJrpWeOLUzZP+lThbfD95N7fHHkyUYHt8B4TqeYZliliOLDISW4z7a5Scum6XbShWfRAE4RZJ5U5gGLKpeLvyKXQ5eUhmCWf6vFi3AravbyTRN6Mt5eycRWG8fWUxfO7MYckfGftcHjhs+Wy6c4PP14vexTgS3Igoy/x9rMgPW+M3wDyqYUmQUiwP59WUqB6ocXFFKeHhy0V6FPrMTECdmqA6+3DpRrS5qgxjasT76iHW3me0bpJSLMevSniiwQevk3t3etjojzHcHshS/sWDGbqc5brgWIoNBu+lQF61P/zYNK9y0orl62bDPAVblquUbZPdy73KExJPTFz0TMG/KUpbx+Mla9GsLqGOTElWlJSkxscgLKL3UvQrrViOm5aiFx8JoGpW8hNzmS7qp6Qk0XGm4RK6HKXYQ8lqSObeuxl10tx5sD3xLJg99c+RMorlBL0ynqGliAufRKU11ZnmgjOBQAKb/PX4T2AtYsYmX6CwlR99HII7/bYyq1g+kpuWqVg1X9HD1y7LUBW64AyGbypiFM6HyjahSynj8wpi/UpI9MrUr6xiObOLZby4OYBl1S4U0wjyLPzVSiVNJPCydyFOlFOBf28d7E9/D4I/9X3pSUz9KjUUHsexiwxNoTgGIjmN0y2DR5nfrWH1nDGsr4mS0Ox3NUz/BHcsqmFojI7mfgZxC6B1XmbwOBglTMOUhYL+3vj/na82FmeYu2JvV+6KvV25K/b2BPgfU0gtkGjGs5oAAAAASUVORK5CYII=;" parent="1" vertex="1">
                    <mxGeometry x="1002.66" y="814" width="27.23" height="30" as="geometry"/>
                </mxCell>
                <mxCell id="rirupHPmU7Hzg7xjt6_u-117" value="" style="shape=image;verticalLabelPosition=bottom;labelBackgroundColor=default;verticalAlign=top;aspect=fixed;imageAspect=0;image=data:image/png,iVBORw0KGgoAAAANSUhEUgAAADsAAABBCAYAAABvnNwUAAAAAXNSR0IArs4c6QAAAARnQU1BAACxjwv8YQUAAAAJcEhZcwAADsMAAA7DAcdvqGQAAAneSURBVGhD7ZprcBPXFcf/dx96rKSVbCHLD7AdzPAqJgTHxIQABYIJIbRNQ0JIM5l2psl0pk2nM51+yYd+S790OvnWyXT6DlOSaaYNDSENpIEAKRQCxJAQMI9i2eCn4rctW5K3567WENl67Uo4HeDn0ezeI3l1//ece+65u2KR8biGOwTBON4R3BV7u3JX7O3KHSX2li090XgUfaMDGI1FENfi0HL4FsYAkf4UmxM+pwpJkIx3CkPBxcYmYrjYdxW7z+7HBxf+jc6hboxEI5jQJoxPpEdgAlwktMxTgh2L67C9dj3s7kXUS9H4RH4UVKxGf6e6PsOrn+3C6ctn0dMVNt7JHR4BsjCBl+aG8d0FlZDmvowJz4qE2/OkoHO2Y6Qbr5z5PT7vbYasypBsEnXe/FjWukaxLXAN0sBh4PJPwaIdxjv5UTCxI7FRvHHxHbQMtFGLQRAFqH6PfjTDLFsUP668Dp8Yo6sQAx+Dtf8GWnxEfz8fCiKWh++58CV81H4SkzOTUdg53A44XHbDkg2NUpOGjUX9eEAdpP9PRARjdMXuv0EYbkrEeB4URGw0HsPe0EF0jHYnvMGhfnGvKl4X5ReWNZw1jaGEvLot2AO3RNn7xpUY2OglsM6/0Geihs0aeYudIBFHO0/heNeZZEFGX+1OGxS3M9FOI5ibBfLk1sAXqHWPgJHwG4PG0WLAF3sh9NMc5qNokbzFdo32YFfzHvRF+g1LMty7riIXJJmSlWFLxQJlFM8Eu6GI8RsD9WXY2DWwtleAsU7DYp68xEZpTd0XOoJPw+dTdnASm8MGt88NJqT+kIsEvlDRiRolQq10F6LA7t0PFn4r4WkL5CX2Uv9VvN92hPqXQamBojoppKcnK5rNeMg3gPXFqSNjKkLnazSHLxgtc1gWy0vA/W0foXWo3bBkRpB4slJ0707ObX4okmJ4siSsHzOGxyQj58C636ST7BXZVCyL/bz3Eg60HtNDORf0pYiWIbsy6V1N7y736IPeQUpQCWtW+Hrb+QbY8DnDkDuWxPZG+rDzwm70RMyVgzxZuSlZibJIWRy4xxHBc2XdUGVzc5CNXQVaf0VJo9ew5IZpsTEK38NUPBzvbDK9CHDvcs+6VAWKpGFHaRhL3cPk5FzdakB9YOHdesIyk6xMi+0Y7sY7LQcwPmFtgeeCvcUqVgVFfa6KvFIyqVUnPgzW8Tuqm3PLGRxTYnkBcaDtKK70txgWa7gdCp5eshQBp0wtK0oT/8WGTgM9e+gstxgzJTY0eA3vtnyob8itwjPw0sAiLK95HvAsTxisEhugTcIf9YIjF3IWG4mP4bXmtxAavk5Das0bHNXuwVM1W+AvWgat4kfQJLfxjhWo0Bj+FKyVKquJccOWnpzE8rsMxzo/wZH2jw2LNWRBwubK1aj1L6AWDVjRBmizttEpD2erUILqfh2s7yCdZ157cxIbHuvDXkpKw1Hre0qemKo9s7Glah3soi1hFD1A2fehOe5JtC3CxntoV/Rn/ZiJrGJ5tXO8owlnw9ZKtElsgox1FSsxx11uWBJo7lrasX+TemIMgBX4rOr7EFr/oUQ7DVnF9oz14h8tH2BoPL87BTXeKmyYsxI2cUrICk5oJdsB53zDYA0W7YbQ8VsqNNJ7N6NYXgq+eeldNPdeplRgPWs6JTuerHkUpUqJYUlGUxZiovwH+XmX96/vKND+BzqlbWIK0orl4njo7gkd1O8BW4XfHl1TvgKryuqogEjzdZSgtMA2aL5GOs8abGlhWgTC9VeBwVPUmu6ctFceGB+kNfUg+vmmPI+lplwJYmv1eioPHYYlDVIRtLLnocnJc9osbLyNktVOStLTt4xpxTb1nMeJrjNGyxoSE/FQeR3m+2oMS2Y0bwNQvIlK5fyeBLDef4INnDBaN0kptn98CG9f/RftasztKqZS5gqikdbVrF6dRPJBC36HvFthGCwSaSHv/on2CIOGIcE0sfqmvPWwfmc/H2Raar41txFz1UrDkhuap45G6Vk6s+5dfveDe1egndGXk9U0sVcGWvF68x6M5VB+ZWJ5YDFVS2v0UDaF4IBWSnNXrTcMFiGvstAvwSJXDMMUsSNU4O8LHULnaOZKJBt+R5HuVdVmse61l1GyeoHCeZZhsEjkIljXLgrXUb2ZJLZtqJ025WeowrS+pvKlpiG4DEuLef1rHc23DvCtpZ6kTCu5oW/y36MMHdKbSVe6PNCC7jGqMxm/d2vt5ber2Fy1Rt/d5IW9FAg+B2bzUi9p8C28GL20aAjayHn9kkmPLHeePolfHzuCkai1+SrQelw/eyEa5zxMtXD+D5K1+DCq2n6BRSHa1cRpMC3AHF6Ia34OtmR7sti/Hu3Fy3/vRP+otQs7bXbUlJVSRi/Mw2PesdnRDvzk1EuYPfxfa/c0vD44f/gzyKs3JIfx/AoHfC5rHuFeLXKrBRPK4eLa5CD2VWzFuGA3n0loxyZ4iyBUJraQSWKrAzY8uECByUeq+jZQcTjhcjoNSyFh+MTfgGbv16j2NSlXFCHVNUAI0PwnkmSpDhHfrvci4DHnXVEQ4XW56dqF8+ok3LthRwkOlzYiIpobTBYsh7zhETBF0dtJYnm9f2+1gh2ryPU5ThDuVY9T0e8YJrpWeOLUzZP+lThbfD95N7fHHkyUYHt8B4TqeYZliliOLDISW4z7a5Scum6XbShWfRAE4RZJ5U5gGLKpeLvyKXQ5eUhmCWf6vFi3AravbyTRN6Mt5eycRWG8fWUxfO7MYckfGftcHjhs+Wy6c4PP14vexTgS3Igoy/x9rMgPW+M3wDyqYUmQUiwP59WUqB6ocXFFKeHhy0V6FPrMTECdmqA6+3DpRrS5qgxjasT76iHW3me0bpJSLMevSniiwQevk3t3etjojzHcHshS/sWDGbqc5brgWIoNBu+lQF61P/zYNK9y0orl62bDPAVblquUbZPdy73KExJPTFz0TMG/KUpbx+Mla9GsLqGOTElWlJSkxscgLKL3UvQrrViOm5aiFx8JoGpW8hNzmS7qp6Qk0XGm4RK6HKXYQ8lqSObeuxl10tx5sD3xLJg99c+RMorlBL0ynqGliAufRKU11ZnmgjOBQAKb/PX4T2AtYsYmX6CwlR99HII7/bYyq1g+kpuWqVg1X9HD1y7LUBW64AyGbypiFM6HyjahSynj8wpi/UpI9MrUr6xiObOLZby4OYBl1S4U0wjyLPzVSiVNJPCydyFOlFOBf28d7E9/D4I/9X3pSUz9KjUUHsexiwxNoTgGIjmN0y2DR5nfrWH1nDGsr4mS0Ox3NUz/BHcsqmFojI7mfgZxC6B1XmbwOBglTMOUhYL+3vj/na82FmeYu2JvV+6KvV25K/b2BPgfU0gtkGjGs5oAAAAASUVORK5CYII=;" parent="1" vertex="1">
                    <mxGeometry x="730" y="788" width="27.23" height="30" as="geometry"/>
                </mxCell>
                <mxCell id="rirupHPmU7Hzg7xjt6_u-118" value="Add Custom folders" style="text;html=1;strokeColor=none;fillColor=none;align=center;verticalAlign=middle;whiteSpace=wrap;rounded=0;fontStyle=5;fontColor=#3399FF;" parent="1" vertex="1">
                    <mxGeometry x="548" y="960" width="205" height="30" as="geometry"/>
                </mxCell>
                <mxCell id="rirupHPmU7Hzg7xjt6_u-119" value="Backup will automatci start every" style="text;html=1;strokeColor=none;fillColor=none;align=center;verticalAlign=middle;whiteSpace=wrap;rounded=0;" parent="1" vertex="1">
                    <mxGeometry x="520" y="1070" width="189" height="30" as="geometry"/>
                </mxCell>
                <mxCell id="rirupHPmU7Hzg7xjt6_u-120" value="day" style="rounded=1;fillColor=#F1F2F4;strokeColor=none;html=1;whiteSpace=wrap;fontColor=#596780;align=left;fontSize=12;spacingLeft=10;sketch=0;" parent="1" vertex="1">
                    <mxGeometry x="715" y="1067" width="65" height="33" as="geometry"/>
                </mxCell>
                <mxCell id="rirupHPmU7Hzg7xjt6_u-121" value="" style="shape=triangle;direction=south;fillColor=#596780;strokeColor=none;html=1;sketch=0;" parent="rirupHPmU7Hzg7xjt6_u-120" vertex="1">
                    <mxGeometry x="1" y="0.5" width="12" height="6" relative="1" as="geometry">
                        <mxPoint x="-20" y="-3" as="offset"/>
                    </mxGeometry>
                </mxCell>
                <mxCell id="rirupHPmU7Hzg7xjt6_u-125" value="Run Backup after save (1.3TB)" style="rounded=1;fillColor=#F0F2F5;strokeColor=#D8DCE3;align=left;verticalAlign=middle;fontStyle=0;fontSize=12;labelPosition=right;verticalLabelPosition=middle;spacingLeft=10;html=1;shadow=0;dashed=0" parent="1" vertex="1">
                    <mxGeometry x="560" y="1180" width="12" height="12" as="geometry"/>
                </mxCell>
                <mxCell id="rirupHPmU7Hzg7xjt6_u-126" value="Encrypto Model:" style="text;html=1;strokeColor=none;fillColor=none;align=left;verticalAlign=middle;whiteSpace=wrap;rounded=0;" parent="1" vertex="1">
                    <mxGeometry x="526" y="1020" width="189" height="30" as="geometry"/>
                </mxCell>
                <mxCell id="rirupHPmU7Hzg7xjt6_u-128" value="auto" style="rounded=1;fillColor=#F1F2F4;strokeColor=none;html=1;whiteSpace=wrap;fontColor=#596780;align=left;fontSize=12;spacingLeft=10;sketch=0;" parent="1" vertex="1">
                    <mxGeometry x="715" y="1020" width="65" height="33" as="geometry"/>
                </mxCell>
                <mxCell id="rirupHPmU7Hzg7xjt6_u-129" value="" style="shape=triangle;direction=south;fillColor=#596780;strokeColor=none;html=1;sketch=0;" parent="rirupHPmU7Hzg7xjt6_u-128" vertex="1">
                    <mxGeometry x="1" y="0.5" width="12" height="6" relative="1" as="geometry">
                        <mxPoint x="-20" y="-3" as="offset"/>
                    </mxGeometry>
                </mxCell>
                <mxCell id="rirupHPmU7Hzg7xjt6_u-131" value="&lt;b&gt;Config backup target&lt;/b&gt;" style="text;html=1;strokeColor=none;fillColor=none;align=center;verticalAlign=middle;whiteSpace=wrap;rounded=0;" parent="1" vertex="1">
                    <mxGeometry x="980" y="690" width="167.34" height="30" as="geometry"/>
                </mxCell>
                <mxCell id="rirupHPmU7Hzg7xjt6_u-133" value="My App Data (23 GB)" style="rounded=1;fillColor=#F0F2F5;strokeColor=#D8DCE3;align=left;verticalAlign=middle;fontStyle=0;fontSize=12;labelPosition=right;verticalLabelPosition=middle;spacingLeft=10;html=1;shadow=0;dashed=0" parent="1" vertex="1">
                    <mxGeometry x="537" y="883" width="12" height="12" as="geometry"/>
                </mxCell>
                <mxCell id="rirupHPmU7Hzg7xjt6_u-135" value="dNet (2.2GB)" style="rounded=1;fillColor=#F0F2F5;strokeColor=#D8DCE3;align=left;verticalAlign=middle;fontStyle=0;fontSize=12;labelPosition=right;verticalLabelPosition=middle;spacingLeft=10;html=1;shadow=0;dashed=0" parent="1" vertex="1">
                    <mxGeometry x="560" y="910" width="12" height="12" as="geometry"/>
                </mxCell>
                <mxCell id="rirupHPmU7Hzg7xjt6_u-136" value="last boot sector id is: $sector_id" style="text;html=1;strokeColor=none;fillColor=none;align=center;verticalAlign=middle;whiteSpace=wrap;rounded=0;" parent="1" vertex="1">
                    <mxGeometry x="207" y="254" width="250" height="30" as="geometry"/>
                </mxCell>
                <mxCell id="rirupHPmU7Hzg7xjt6_u-137" value="Text" style="text;html=1;strokeColor=none;fillColor=none;align=center;verticalAlign=middle;whiteSpace=wrap;rounded=0;" parent="1" vertex="1">
                    <mxGeometry x="-230" y="520" width="60" height="30" as="geometry"/>
                </mxCell>
                <mxCell id="M03fQJAG0NHTUahI29lx-2" value="OK" style="rounded=1;whiteSpace=wrap;html=1;" parent="1" vertex="1">
                    <mxGeometry x="1005" y="859" width="120" height="31" as="geometry"/>
                </mxCell>
                <mxCell id="ldqkx0-4lVnqU9jq7TRr-1" value="Detail info&amp;nbsp;" style="rounded=0;whiteSpace=wrap;html=1;" parent="1" vertex="1">
                    <mxGeometry x="825.75" y="95" width="254.25" height="85" as="geometry"/>
                </mxCell>
                <mxCell id="m2pw-7-T4BfISrYsZIOy-1" value="Runing Log (有树状结构）&lt;br&gt;注意已经完成的任务也有Running Log，因为有挑战" style="rounded=0;whiteSpace=wrap;html=1;" parent="1" vertex="1">
                    <mxGeometry x="827.88" y="210" width="254.25" height="122.5" as="geometry"/>
                </mxCell>
                <mxCell id="5FGTAonVrrU2lCx7IPlk-1" value="展示详细的Files / Sector 信息&lt;br&gt;这个列表可能会很大" style="rounded=0;whiteSpace=wrap;html=1;" parent="1" vertex="1">
                    <mxGeometry x="826.4399999999999" y="367" width="257.12" height="168" as="geometry"/>
                </mxCell>
                <mxCell id="bu-Ld1Lnk3StCLIWkvEZ-1" value="Files" style="text;html=1;strokeColor=none;fillColor=none;align=left;verticalAlign=middle;whiteSpace=wrap;rounded=0;fontStyle=4" parent="1" vertex="1">
                    <mxGeometry x="825.75" y="336" width="60" height="30" as="geometry"/>
                </mxCell>
                <mxCell id="bu-Ld1Lnk3StCLIWkvEZ-2" value="Sectors" style="text;html=1;strokeColor=none;fillColor=none;align=left;verticalAlign=middle;whiteSpace=wrap;rounded=0;" parent="1" vertex="1">
                    <mxGeometry x="866.75" y="336" width="60" height="30" as="geometry"/>
                </mxCell>
            </root>
        </mxGraphModel>
    </diagram>
    <diagram id="1gF-Dk-GY95pC0VR7wPs" name="BuckyOS Backup Suit">
        <mxGraphModel dx="946" dy="815" grid="1" gridSize="10" guides="1" tooltips="1" connect="1" arrows="1" fold="1" page="1" pageScale="1" pageWidth="850" pageHeight="1100" math="0" shadow="0">
            <root>
                <mxCell id="0"/>
                <mxCell id="1" parent="0"/>
                <mxCell id="UtY04BN5j5rMF3g4DB-9-18" value="" style="rounded=1;whiteSpace=wrap;html=1;" parent="1" vertex="1">
                    <mxGeometry x="1010" y="240" width="280" height="511" as="geometry"/>
                </mxCell>
                <mxCell id="iutLbJIE7R6zQrYeJikC-2" value="" style="rounded=0;whiteSpace=wrap;html=1;" parent="1" vertex="1">
                    <mxGeometry x="110" y="10" width="140" height="380" as="geometry"/>
                </mxCell>
                <mxCell id="iutLbJIE7R6zQrYeJikC-3" value="" style="rounded=0;whiteSpace=wrap;html=1;" parent="1" vertex="1">
                    <mxGeometry x="245" y="11" width="540" height="410" as="geometry"/>
                </mxCell>
                <mxCell id="iutLbJIE7R6zQrYeJikC-4" value="Header" style="rounded=1;whiteSpace=wrap;html=1;" parent="1" vertex="1">
                    <mxGeometry x="120" y="16" width="120" height="40" as="geometry"/>
                </mxCell>
                <mxCell id="iutLbJIE7R6zQrYeJikC-5" value="" style="ellipse;whiteSpace=wrap;html=1;aspect=fixed;" parent="1" vertex="1">
                    <mxGeometry x="124" y="21" width="30" height="30" as="geometry"/>
                </mxCell>
                <mxCell id="iutLbJIE7R6zQrYeJikC-6" value="Home" style="rounded=0;whiteSpace=wrap;html=1;" parent="1" vertex="1">
                    <mxGeometry x="115" y="76" width="130" height="30" as="geometry"/>
                </mxCell>
                <mxCell id="iutLbJIE7R6zQrYeJikC-7" value="Restore(all tasks)" style="rounded=0;whiteSpace=wrap;html=1;" parent="1" vertex="1">
                    <mxGeometry x="115" y="106" width="130" height="30" as="geometry"/>
                </mxCell>
                <mxCell id="iutLbJIE7R6zQrYeJikC-8" value="Logs" style="rounded=0;whiteSpace=wrap;html=1;" parent="1" vertex="1">
                    <mxGeometry x="115" y="136" width="130" height="30" as="geometry"/>
                </mxCell>
                <mxCell id="dyXFkWBZZAxzS047DEJP-1" value="" style="rounded=0;whiteSpace=wrap;html=1;" parent="1" vertex="1">
                    <mxGeometry x="262.5" y="151" width="260" height="100" as="geometry"/>
                </mxCell>
                <mxCell id="dyXFkWBZZAxzS047DEJP-2" value="DMCX Network" style="text;html=1;strokeColor=none;fillColor=none;align=center;verticalAlign=middle;whiteSpace=wrap;rounded=0;fontStyle=1" parent="1" vertex="1">
                    <mxGeometry x="310" y="151" width="110" height="30" as="geometry"/>
                </mxCell>
                <mxCell id="dyXFkWBZZAxzS047DEJP-3" value="300GB of 2T" style="text;html=1;strokeColor=none;fillColor=none;align=right;verticalAlign=middle;whiteSpace=wrap;rounded=0;" parent="1" vertex="1">
                    <mxGeometry x="432.5" y="151" width="80" height="30" as="geometry"/>
                </mxCell>
                <mxCell id="dyXFkWBZZAxzS047DEJP-4" value="" style="rounded=0;whiteSpace=wrap;html=1;strokeWidth=0;fillColor=#d5e8d4;strokeColor=#82b366;spacing=2;" parent="1" vertex="1">
                    <mxGeometry x="322.5" y="176" width="80" height="5" as="geometry"/>
                </mxCell>
                <mxCell id="dyXFkWBZZAxzS047DEJP-5" value="" style="rounded=0;whiteSpace=wrap;html=1;strokeWidth=0;fillColor=#fff2cc;strokeColor=#d6b656;spacing=2;" parent="1" vertex="1">
                    <mxGeometry x="402.5" y="176" width="20" height="5" as="geometry"/>
                </mxCell>
                <mxCell id="dyXFkWBZZAxzS047DEJP-6" value="My AppData" style="text;html=1;strokeColor=none;fillColor=none;align=left;verticalAlign=middle;whiteSpace=wrap;rounded=0;fontSize=10;" parent="1" vertex="1">
                    <mxGeometry x="362.5" y="181" width="60" height="15" as="geometry"/>
                </mxCell>
                <mxCell id="dyXFkWBZZAxzS047DEJP-7" value="My Data" style="text;html=1;strokeColor=none;fillColor=none;align=left;verticalAlign=middle;whiteSpace=wrap;rounded=0;fontSize=10;" parent="1" vertex="1">
                    <mxGeometry x="432.5" y="181" width="60" height="15" as="geometry"/>
                </mxCell>
                <mxCell id="dyXFkWBZZAxzS047DEJP-8" value="" style="rounded=0;whiteSpace=wrap;html=1;strokeWidth=0;fillColor=#e1d5e7;strokeColor=#9673a6;spacing=2;" parent="1" vertex="1">
                    <mxGeometry x="422.5" y="176" width="20" height="5" as="geometry"/>
                </mxCell>
                <mxCell id="dyXFkWBZZAxzS047DEJP-9" value="" style="rounded=0;whiteSpace=wrap;html=1;strokeWidth=0;spacing=2;" parent="1" vertex="1">
                    <mxGeometry x="442.5" y="176" width="70" height="5" as="geometry"/>
                </mxCell>
                <mxCell id="dyXFkWBZZAxzS047DEJP-10" value="amount: 3000 GWT,expiration date:2024-12" style="text;html=1;strokeColor=none;fillColor=none;align=center;verticalAlign=middle;whiteSpace=wrap;rounded=0;fontSize=10;" parent="1" vertex="1">
                    <mxGeometry x="298.5" y="221" width="204" height="30" as="geometry"/>
                </mxCell>
                <mxCell id="dyXFkWBZZAxzS047DEJP-11" value="Manage" style="text;html=1;strokeColor=none;fillColor=none;align=center;verticalAlign=middle;whiteSpace=wrap;rounded=0;fontStyle=5;fontColor=#0000FF;" parent="1" vertex="1">
                    <mxGeometry x="337.5" y="201" width="110" height="30" as="geometry"/>
                </mxCell>
                <mxCell id="dyXFkWBZZAxzS047DEJP-12" value="" style="rounded=0;whiteSpace=wrap;html=1;" parent="1" vertex="1">
                    <mxGeometry x="532.5" y="150" width="240" height="102" as="geometry"/>
                </mxCell>
                <mxCell id="dyXFkWBZZAxzS047DEJP-13" value="" style="shape=image;verticalLabelPosition=bottom;labelBackgroundColor=default;verticalAlign=top;aspect=fixed;imageAspect=0;image=data:image/png,iVBORw0KGgoAAAANSUhEUgAAAEcAAABLCAYAAAAicppkAAAAAXNSR0IArs4c6QAAAARnQU1BAACxjwv8YQUAAAAJcEhZcwAADsMAAA7DAcdvqGQAAB6gSURBVHhe7VsHmF5VmX5v+cv0mWSSSQUS0kgjwVCiISEUAxoVCyvrupT1Yd19HsvuWtayYlldLItlRVFRVBQL6IK0BVyMBkICSMkQkkB6SE8myfS/3LLve+69M/8/LRMC7LqPXzjz33vq973na+fei5WyakMMQZZlIQyH7PInSFb8O7Rcdvz7ZxqAjgnOn4LWSLtVejXiWCSZ+sil8X3m+H+hOWH8z7JOYCM5VMNL4f2zWfVQf2CHDU6v6g5Nw+kzPEpUfPD5yFFZsxFvwGFlNyTeJ2YkueL2RAMTetk152XxUbZNnmkm5G4oU1FLX7GHRWbO0nk1S2mJaNjgSOgTFdws3bv2IMTU4bTXIPjA1+Cf/1auqarBBokn8zNwORZpsPmvb+dovSHznMRETgQUM4P+cIpM2kYm5aC9y0PQM2ep4KxLpRHc8BCCilpe+8DWDXDu/CGsJ1cAQRD1OW6KGUioz215RS8/JwSO2gdqM6PYlnYtnD6pDhed3oALTx+DKeOq4ToWDh0t4vZVB3Dj/ZvQ0lYwbEWz8G+2Et4ND8PJhAhoV0EYENQsin+4B/ZdN8HaszXqfAIbNlw6ZoZ8vGQTmQpqyMWnj8Y33zMH1fUuuP+ATx+if0KOCpB26rG3pQNz/uk+dOX9nn1DtgreN1fDzrYhtNKsdwwOJswGWeDum+Hc9x0g102ApEkDkNYYSqpoz4fuQ3rZwLEptUzlqqWn4PN/OR71NIuAjjVwvTh/cCI/KLIIBtuKXgUefHIf3nX9oyXgVKJ4w+9gp/LsU0H5KUmsJZZXzb8BQn8f3B9/E9ajd/NebT2jIzqW8K8WONIEAfPG+aPx6b+YhemNWaRcRzPD5857qcO89shItgccCx7YSjEt2Blg2t8/gp37cxGvAufG3zBSUWssNhrlUNygeXEaO7SRo7k6cBFsex7Or24A1q/SpFyjRBRzH132p+Gh85J9TjL9opkj8eG3TMfS2Q2RhvTEv8iMQmmJuSdgoamhqAEcAcYBgWvjqm+swy8f3mN6oULgPMi+hI4Am6WjP2ZNi3OEWoS/IivwYT39MKz//DasfTtNXc8uxD8vlYYdyhMSSw4dy9TxNbjlIwtx56cWYcnsEVIfU0IyFhVtORkng7ZAiRkVPIZpaoAuPfqiJbMaI1+UkJwU28OQFyoxaZNMlDO+RscFmjK1yF+wCP51v4D/lvcAtQ2cN17jBOm4wamrTOGGq+dg9fWL8ba5dajyitSC3s0S2bxWiaaPpNbf3sWiOiMsfcr8SfWRcphKtnoB7MCFwzaH90kRGJY2IRrOsQRO4Z1toU8zXX4Fwi/cDnv+hVzM1YCo43GTxtHko5uBScwnJqV1RtemseEri3Hlkibe5+GnPPhOScQw2pJQ36k1j9pZjGapjn04f1Ndmn6K17EwKV/g0Az7UOkG9JD4M/kPicB5FQ68a/4FwRd+gvDkU1kZCdpbBqCyat1oIZn/cVA246KmljvCbUwb/8EpyLH8iCmcc0ABDEULqph/HCyR5Fpr0mlUZgRGNNijKfnI85b3piP7E4CA/outcHyP1Wy3Gc6tIuukQbz1udsElfEMQcN4eB+5Ef41n0bYOJZ9OI8BX6UPlfHcezNscDRl2nFgO3SSFEhMOCwGELITlYGWTmqkMRIu2mX9VZQWvxlqjZLDGG7+YzQjAMb3sJPRXnXmoJCVns0GU5filC55sZAioKnAI0AEi2BGyzDizT8f4WdugfXmK7m7SgWGT4zCCfNDk/plUnSShuOI4vhhrqIyFCXrRL9SWhN1tD8ULgImJqMxbGd9QI0JpTmscim3k88jXWxBze6tqNm+GSN2bUVj60HUFjvp55gbcbfMPw4wPorT2WEKwRv+BsXP345g3rmcpNdkTZ9BMDhmnmOG8U8tHfHdH16Ms6ZnuSkRQMnAnqkpkC/156XWc+QUTa/SIqLg9NihTd/iOch3O5j8gfvRyjNXmOFR4Wu/5gQ8WxlnGwkpqmBkSh3ZjNbbvgrsepF9KllL0xozEZh9LiYsuBAHmE951BCBagSnWbrUIIfAdTOxtJl4Wvf+GPZ9N3FsLzCRb034i+iYZjWyJo2f/uM8rP3+RTh9RgUTu14xpekWAVEJzO6GeHZnK89MO/D01o5Isw2VL1pK4qkr7yFXlKdQP05aJNNyJX2Gpfx2dD36W1i7tqPKYQcvxz4dwCGetx69F3tv/jdkmleistCOlMnCGcHopIvU0JSfQ9ojUGTKveSvgbmLuJSA0SID8zckOOfPq8Par5yHt5wxDo28d6iygayAahnIR2hn7Bp4+TTufKYF5177KJZ8eg0+/rONuPjzq7FhfxfVXKFeu6hnNPRRpkS7JVI+1NZVQK4Qm6txYgTKeHb6HRaZskrF4aMortvIdh49lP9kKKlfBaudc7d1Aft2o+OuH8O/67toDPbCcjrJNHMtaleXwzOeNpHJZ0F+65IruDjX4e5EWiMSX728DQnOqaOqUU/NsXgO4vJmlw3PMfmsWLl+L5b/+ypccf2TWLu9jUkd12R9nrnKTfc/T03z6EB7dag/hdh2sCtiSXOzuNQkp8CaKN73UMehg0DLfriuS21gm8y2tgapSZNpjlUIOcayCuje+BD2/ux6ZI8cNBoDvxAljyRuL/lzETZNByrrTd1gNCQ4FTzfJCSzkT9JSNd3rNlHDVmJlRsOmsX92LRE+nliUys1rQBPTpKCqkRL9gqtZPe5PTSNEhw8yswgRGIjO9hxsQqRJvjFAuvpVCsaUf/ea1F35cdw6vuuQ2rR5Qiqm7gE19i6Bd0/uwG13bk4IRVPSjo1pzw7NXIi8yATFExrSYloSHDctKJTlL+s29GOf/j+up4dEExt3XIMWtT89KEQuTzHelR7PxvXJSQkIjS411i7s613Dv7aQqZURWNyJFQgLZB6uqidNgeoGoODYRW2p6uAJeeh6ZqPUiNORloPyw4egv/8M0w8CKbRGJqnxhpzZR01MKKSnSmhIcHJVmSx/sU2XPDZVVhy7Sq0dir/oHNjhLE9G94AWWxCEnpsfYoOkCZSonEiRRCHx4MiGPkqqwj80bglItsj80Er1UePO7g9Gs9iuQRZa0ozLBepk6egPU+zSfF85YYoZC20NjSi5rL3ojBqCpBPwasbTw+jFFUHXV6xOGbDJXoCSt+NiDavHzjJns6cWI8tu9tw7r+swuoXjqDIA6LNzJjnaTkbFAse/riZAgyoNaIQZ0+tQ4FRJXC0c+UkxfDtPAr0B3sO58h03ECydWYChZZAUinZHudzqugjVKQ45KHAoGBkDCW4oh0dLfkrjj0ZjW97J+wpM5AbOc5EVWmOKUYjdTzRb1/moyATUXx8MFFHhddNDRX41Dtm4pEvLOV11jjWiEJzfOigJtzz5D7M/+hK/Pz3O/pP3yOkhTedOZo+hxm1lYrrRNQEMuhx911q4JPrjqClg0eBHqIWcBOkXZFlyV8xd+LBMqxihltTz/yJ83ndyHQz8SvjgHlW3jeRr6WmDu6l76RGcawxw2geleikrw2TeSXjE8b1G9WVac6Fc8dgx48uw4cvnQwnleOuRj5FAgu8ts4iLvjkClz2jSew+zCzUdMaUQKKNlrXOqTOnZBBhZeBS58TzaER8mLaY+UeNfji7c+zLh4c//qU3SX/cqQhD6GUjiVAPk2zYsJn8QgjBS4e2AfXCBsvyvEOVSnNYwWKlShkxiJMsaPRPs0RFwOSZEs2PhoeycD2mAw4Sayfekol8rR1X3k6B/qx1jTVZ/DfH1+ExbMb8dyLzF3MGNPUQ6X3WuR9y08hwBTGll8q72yzc4bmdKBrH1ZvaiGvWl8tZmYKJk3RlXY4LjSbPOeqnTIdXpv8TAXadmyj72J/M1bJKE2B12lqZFUuw2CgJ4nRnEkUFckDyUHEAw0lGJT2K9OcWqqr1cZdK3K3vSyaaipwy/vOwIavn4dzZtUgKIrJqG9pIldKqr5o7mi8f9kULkRwzFql6kuSBvFUfefDe1DkBpS0kHhHvpUaRVqjB2bRb5HOo3ryLJrWGN5XIzy0H+G2zXAElsdDJp28jr9F7keBqufY7dGTQj3cJ0hJ0RKWHFH5wv2oDJwUbd22PbS0d+OTv1iHWROrcdnCJmR54JRJ5LkIpzX4yGymjasx40SqEzDLTh+FH/z9GWRMUyfTl3Mhuz/IjPZff72N13FlD3ESjnWoJTrpyz9E4ZfXzLaPuGnUXPgmXnOgx8Cw8r8xnlZUyeyTsBgnryzYnPA4zjhellKtEK99RB+Qynp4VN0frNiK6R98CN+4dwt3iqFUh8M4i9Iu11Y6uOKS8Xjq28tw9rSRBhBpUW2liw+94yTc+vF5qK12TV1pMQBxfpWQ9zc+uA9H6MN62Y1YNmjR1wXUmsh5crfjVm1LnvmNM3UO3KaxbGP2fXALDtz1E1S174Cb62SiSICoLUkxp3qjeVEJi2wvEjxG28jkSkh8Gl4jKgPnul9txgdu3oACbV6UYv5geOWkmmfuSTV49ltL8bWrpqKBZhF6RSP4m89qwp6bluPzfzUb6QIdLessAWqAkH33MqG5mre149/u2BLX9DJjiAKBuUsUrcrbskWbDt5GZzqDurdezrDOWEX/mNuxGgd/czOamHSioIfysaYYgFmnIkp+SX1WjXDRRW+XgXUrabddi6acwm/XH8a8D6/E5r2daEg7dKZZqquLhdNG4PEvLcRPPnA67T2HsItJoknHBW5vCXnY9Fl0WPRSaVzz3eaSDSrhRkTA7a0bGeo1Ug/TlFcRBGptkUAXqck+B7emR6D20vdwOE0+x8le3INdP/0q3N/fhqY9WzHBP4oJbjeyPG+5PgtN0FFJ3GaybMxHdFvOi+Pa2c+Uq79QjH5nTKilNm3Cl369mX6oiAtnNWDhlFGcT08DbcybVIdRNRmeuqUpZiSB4E/yEDyahgzRUfK6m+esd3/paazeeLh0E/uRtY0n74Wvp9w0T64T9aUmSAvjQ2zIDDnkwbFu7Dh079jFKEUXUOBZrnUv2jc1o21jM9q3bwZOOY28MaPnHGIxYpPM0BSs5odh0akbMrwKA/3wD4vpm5Dq9YJu+tgq3Pqh+Vj53AGsotYkgmQrldCplyo4uZlD930pajd9TL8CCvRfH7t5PR54ihEmnm8wstoOAb/8BgMao5D6GgWM1+XgxGwK3JGOSTNRe/kVCE46hV1StMoOjjsI58AuhJvWUvMYfs3j2V6eBqTYhEtby8AZWZ3CF/5iClZ/cTHezCilqKHTeEL6MECCmRxB0WIYJMfaSQf7iR8144cP7DkmMAnZz66B851P0tG20KzkPGmeJVFH5y3dF+hc2xrGoO6yq1GpKJZpYHtFlKMRqHT7LiaGSSoRFW1Yf2Jdn2rHRuYz8TV++MEz8M4lNbCyaQrl49YVe5gJ54wznjepFp9ePh1VWcZNQlquMewQ32ppPdhW5loM6Ye4u5de9yTueIwaE3XpT/RHZZwZG+VM7UfhP3IXrD07YE0/i86X/RTxyJva9YDfgM30I6yqQq5iBBrnLQbqx9E/sW+xC9aIJliNJzGN1HEzXoUsyllbzY/AaonNagAqe4b8q3+ezyPEKCqMEigXSz/1mIlc1181B/PpX1z6Er3t7KWe5XpIvshHDTLFVjQfeBF/+dXN2Lqve2CNEcB6m3HOMgQTp9Fu00DbUdgbnoC18WlORiA0UP0qahG+dhm886kdDMc6iad4RAiMD5Im019oShYTKMmJr5RANTpulJAe3gVFcvrz62C98GwsQn8Gy8C565NnYtHMGri03Y27O7F+ZzuWLxhHc1ISqGWlNGImsUYN7Z00CpsBugjo15knXX/ndhT6ZcAizpXJUNg3wL34SkZfPb6kwPFjBDdNzd2xCdYDP4fdvKZniIAKR/GU/frLEMw4m6k8nbBezXCBhD/DQ0yqS8yQLVElSQ46NOB8EdamBBxRbx9RDzia6IHPnYNTRtfixns24DsP7MZDnz0Hp02oM9pSDk5/EgN6Erii+QCuvW0znt3RNgAoJO5aOG0u/Le9G2HjGazgfE4HJ+BvGO+wAYLJp9qa18O573sAtdD0SUCYPAPW8mvgNYxmFU3QnOHUEPmiBBjzaYzyrVLQdKoXOL/4Uh9wRLqJ1jDgJIJfuXQ0fvS7/SYSa67Hv7wUU8dXRAuY5zl6P1kKTsSAQNl3pICrvvU01jx/xMxdwguJFWK2pgHBX30C1mmvYYcj9LEjqCyMJjoeKJ9JiAwo7a9hFtuFCjjVzI/uug0WcxgUGcHkBMUzFwnPWIpgGRPCLE2MHlSO25ylYpnEu96fllJ/cMqYJUVjy8wqXq+H1l5/EUaPD1DB/OTme/Zh7rQqvO5UahLR1csCKzsKbUe68bffeQr3rz1AG48y6TLSpCn6lbe/F+GZF0UHSvOSP88mfaXDVD4WRMcGvZ1wzVtMKhQFLdJmikE375mr5Gl6D/wY1poHOZ5AJJrEjNlfcimCc9/A7LpAjdMjEuVWBIoThSZasXu8jMCxEnA2rxsAnIjKwBEliEsjNv7HxXhi215cxyTw+V3duPNT87F4Rh0yzDm60lX42Peacfuju6KXcZwlmciotC5YGSx+O9wL3oWgNsP9iOr1SYo4VSRTxqv3S3ryZ17fkGmL5qVTs4TSITLUydr805zUqv07Yd39I0CCmVoW/YwaC3/xWxDOoLkGdOCc23JlstJKrccfXXFTLGbL5eDEjYYiSQYEJ7HPs6bW44lNR3sAu/dz52JuUwq3rNiP6+95gVlz9PizbAItohP59AUIl14GTJ7HiKJXO3rap4Mge+jzEh0gOa8fdtKndcM9vA3ta1aiegbHjZ2OvFvFUwM1xahaxHrCR3IdPPMI7N/fyVBPf2SIZqa/U2YTpHcCY8cgVeGhwPOWcfbRcP5G4Di//HI/cLREIn8/cEop6hjfkK59+3Se2neYZ76aq7TNEAeEjROBS65AOGsh5QrgZWiE7GvR5MS5Frap8hmG13ShE5Xt+9HSvBqFP/6WU3Zyk2uACdNQd+a5yI2fCj8Owz0MxwDpK1M58ywn9+7/NR3k/TyfdLKjomPcZ+F5CM48H2H1GA6k9igYiri+Aee2fx/ErKLxQ4LTlzTE7FjfyaQpeqN4ydXILH4Xcv5R85xTZyoDGLtIloRpgZWl0/X3bkTxZ4xEeao+6Fd4yg4K3fQhHCG/NPONqD1rCcJsLc9lFI5mJwPR+p5e93IeuxDClT+iafq3fo15y9P073LwnENAcoy/7CrYc18HPx1FLdvJIsgHcG/7Cs9xzw0KjuNYvRnycKhsGi4sCs+5CM7ffRbeyVN4mubuKf9gvR3wUOpV8Ja7L3DM4wu2UCq9dXTsDvgvPAN0tSJdkYEnaZldUwr2JzgHX0R+3VqCF6Bm9FjzPj1N86BnMpojmXQAlVYEGjv7tbBmLwR2bWMyqQ81xRxTgi1rYa97FBg3CWHdCGbvHJMnSA/dCnj934wk4AzpkEtJ9T116iPGpp8Bn0lcatIkZtJ67qy26N2QwYCnd4YqbbUBx5ABgPdM+lJugLq9O3Hop9+jorVBGJq+6iLnxItM3qGWZOFPaET1gsWwJsxEkK5AQV+Tsl1OXY9RxZ+Zmc7bPDvf3Azr/ptgHTlolov+sD/zo/Dk2bD37gA2Pq6GPhTzp6vBwBH1BciQQGqawNziHbBmXEgh9Cqly9RH7QSGTlSHiDRP4q6nT/nld5j1cofzcrBKKo3sNrOYPNxnHkPbKobnYrsq+V+AEdV1ONLKCMbxIVOJMMMQ7fHcN2oasotfh3DcZEZ+pgLmk9xobXJGpuX0o8fnsLpgP3I3nFUrgE7NHQGUCH8s6mdWpeD0o8pqhOdfCu/q9yMcfyqZ1s5RLUs1Sos7IbJ+AdmDB+Bs3YTwhRdRSx+e1ZeVFRzDdreYRRX7FCqpaSNGI2htRXhoF4HTRAHGTpmK7JxF6D7ayTuCr5BMM0wVO9D99DOwu7tQ2zQSRfkPbVj8zzg35k6h3u2kuCmTZyGYfw6sA/thHT0Utw+PjOYMBkip5qiP95Fvwx5Rr9fUDMG0AamzzMCYivpEn8FVUnuc7U/h6IOMInom48uNUmoJXplG/QyaxoTTYDWNQUea2hBUoyG3Ewfv/S6wrwVZRhLfSaNy0dtRPWsG9mx6CuFjf2DeeJiKQZ+mF1vURKQqUTlvERqWLMJun9pYrKJ2kTnpkDZOTOkcZZGHAhPMA1vh3vRlYq+8aiDiHBQlkdtozpDaIqL6B7PPRnD2MkYFOjKOTZ7qa8Ko8C/7pZm4dd99K3LProZTaONO60ApJ8A8x2dWzGjk79+P7i2bkF/7DKPLBtht+80pfvJJY3Fg8zYKw8hDf1Q4cAiF6VNoxhNRP+9M+F0O/CPyLykGRx+23w5vz060bX8BmclTCTKPOibhc/iPkY2bpjuRTuJubRPC9X+E1dEa15ZSfwyGBw73wKLNhguWGlWNoTA7Izeof4lGW/QzlS5DbUc7gpYWVBIU1XncQTGoTTGZSAWZ7TwK//B+BHu2oItCtuzluY7Rw9eXoox4dncR3uEupGbMQwc1ZQS1raZpKjxm0cV25kTIMCeah1rmMlblCHIjj66QH8vDX7pnrukzQoWo5WYWf38HfVvp6+dSKsdh2D7HItP2+sdh1TcCjU2soaBRS1SM1BKbmlVbg+rJp8GuyKKzZTczYWoCd7FnbqreiJMnoG7KqbBHjmPkyVKxigiZxIX6wkKPL5i3hG6Wc41DduJUAm+hQIBydSNRdcoUFDI1qJo+F5nZixA0NKFA4D19WKDopc/PxBPXMxtBM3K3NyN/yxcRtpd/0dHD/wB0nNFKC/KHzti+/EPwamjjKcYljun5OMmoj5y0g1QhjxHeUbQ+vgL5LZspfBcPkzmmMITQpwA1IzDxgkuQYVad7+xA14F9OPriDgSHeHZyc8jMPRdphl09PDMHVDeDolXBPaDPCAgg13YL+h9KeODliTzkAddmjuQQHM/OI618qZ1+6t4fINzMfGkAkryRmH1lZdtxh3JD7KPz0pyz4V/6bgQZRgx9vqoX+Bwipyyf5CtTpTZl/RxGex3Y+V93MbHbTp3rojgER9GrqoI5HDXptW8GmubhMEHLpJlEFg8RiFHsx3OQMnCNUBogKGgm0VdirCWPEc/UGGqk4xM8Hlb9dDvSd9yGsHkVO5GPoWQx1L/9uMEpb+efmjo66osRLH0rUxwmdqyTUigTjt42imHuKsN22smhaudOdD/+BJPiTUyGeVQANUAP0MNqZCbMZuR5PVqdSqZCGeQYEWmkFFprSiN1Oo/AERiiUnA4Ec3Khf3ECtir7obVQRPqkaGXb3NpqkvlK2mP6/uBI0oAODY4ao9WshlRUhddjq4pcyhM5BSl/qYLTUxfUrm8T9E8MkEehS1r0LnuSap9C9vbiJHeMNDBputQPX8JijMZnVI1mllLkeQ99GhEIAn6qN5Mz0VsOfzNz8Je+RtgN48PsYD9qAeYngtS6XUvDXi2KgWgLw0GXNjVDp8qrG+EMZon8yqerqMWrkKBWMwnIvIHOg81jMLIaTMRdnQxsuWYFFK7zOdu3SgcYvKYqoY9OvkqS2upyKwi0glLJH9jH94H647vm2xYD+ijvidOQ2pOQqVAlILTX4vYruSLMoSvuQDeouWoqmtALkjT1LLcnzxFYkJmHosSLD/Q627zqKHjsd/B37YOzvx5qD5tLgq1o5m3ZTmvmdaQ+R9DpJV0tOm8ngVxrsd/Q225RwubOclU3HsA6pmrn8jlFM/xksHpS301ySwgR01fFJx1CfFQnkPmGUWU9+hrb0vOSV3JbJoJY0YfULsp5Jn5mnM91UbBuGdDeNiUg1diZz21BvjDLwmsHneUrj0wf+V0LHDin4HAefkoFqppPILzlsOdeyYK5hmvIhtz2MhmDK/GiQtgASEtkAnp/TcbBY7aUgzV3qbn4Dx0O7Cf5zCzIa8A+4YtbswrC04JMRwHp56GgAfXcNTJ1B6l+OKCwvOwZt5ICgSTACqDVQQTiMKLjB7aC+vR+2CveyIG5ZUkbRD/S9t13JRXBx+jFVrrtZcgWLAMqepGeHTAFg+ZAiKguVkEx3OZRNLEpGFhWw720w8zNP+X+TxFYA6PzPaTXops0VijOYnavnrExV0XwUVXI/2aBcjl8zwqVLC6lwdLr1U28PB6508iQOVsTb356VUe3Z8Q64OD+OqZVT8iU/QtYV09UgvOhz/pdB5HanmAz0X5yh9/Z0wpASWh/zVwXk0N6olAWk/X+lWYVqqf3A9ALzs4Zi1d9J+kn+aUMT0IDaeP6FUBe0hwIj4jOn4+okRjAEoA6EuD1Q9ErwowryANCs5ggr3iAv8fon7gSPiBAJDGlJrTYCAdj2YNRsqLB6OIj/hGLAy5V0mHITsNSoNqzkulE9cs+qn4ajA60RWGR8D/AK9CSS2ewmVCAAAAAElFTkSuQmCC;" parent="1" vertex="1">
                    <mxGeometry x="272.5" y="156" width="37.87" height="40" as="geometry"/>
                </mxCell>
                <mxCell id="dyXFkWBZZAxzS047DEJP-15" value="Runing task info&amp;nbsp;" style="rounded=0;whiteSpace=wrap;html=1;" parent="1" vertex="1">
                    <mxGeometry x="120" y="320" width="120" height="60" as="geometry"/>
                </mxCell>
                <mxCell id="dyXFkWBZZAxzS047DEJP-16" value="" style="rounded=0;whiteSpace=wrap;html=1;" parent="1" vertex="1">
                    <mxGeometry x="250" y="440" width="540" height="380" as="geometry"/>
                </mxCell>
                <mxCell id="aUcMaNtazLmuzXPJAqv5-10" value="" style="rounded=1;whiteSpace=wrap;html=1;" parent="1" vertex="1">
                    <mxGeometry x="260" y="494" width="515" height="49" as="geometry"/>
                </mxCell>
                <mxCell id="aUcMaNtazLmuzXPJAqv5-11" value="" style="html=1;verticalLabelPosition=bottom;labelBackgroundColor=#ffffff;verticalAlign=top;shadow=0;dashed=0;strokeWidth=2;shape=mxgraph.ios7.misc.more;strokeColor=#a0a0a0;" parent="1" vertex="1">
                    <mxGeometry x="755" y="498.5" width="5" height="39" as="geometry"/>
                </mxCell>
                <mxCell id="aUcMaNtazLmuzXPJAqv5-12" value="Backup $Plan Name" style="text;html=1;strokeColor=none;fillColor=none;align=left;verticalAlign=middle;whiteSpace=wrap;rounded=0;fontStyle=1" parent="1" vertex="1">
                    <mxGeometry x="305.5" y="493" width="132.5" height="30" as="geometry"/>
                </mxCell>
                <mxCell id="aUcMaNtazLmuzXPJAqv5-13" value="Complete at 08-02 23:22:11" style="text;html=1;strokeColor=none;fillColor=none;align=left;verticalAlign=middle;whiteSpace=wrap;rounded=0;fontSize=11;" parent="1" vertex="1">
                    <mxGeometry x="295.5" y="899.5" width="140" height="30" as="geometry"/>
                </mxCell>
                <mxCell id="aUcMaNtazLmuzXPJAqv5-14" value="&amp;nbsp;4GB" style="text;html=1;strokeColor=none;fillColor=none;align=right;verticalAlign=middle;whiteSpace=wrap;rounded=0;fontSize=10;" parent="1" vertex="1">
                    <mxGeometry x="688.5" y="509.5" width="60" height="30" as="geometry"/>
                </mxCell>
                <mxCell id="aUcMaNtazLmuzXPJAqv5-15" value="" style="sketch=0;html=1;aspect=fixed;strokeColor=none;shadow=0;align=center;fillColor=#2D9C5E;verticalAlign=top;labelPosition=center;verticalLabelPosition=bottom;shape=mxgraph.gcp2.check" parent="1" vertex="1">
                    <mxGeometry x="266" y="503" width="37.5" height="30" as="geometry"/>
                </mxCell>
                <mxCell id="aUcMaNtazLmuzXPJAqv5-16" value="3 hours" style="text;html=1;strokeColor=none;fillColor=none;align=right;verticalAlign=middle;whiteSpace=wrap;rounded=0;fontSize=10;" parent="1" vertex="1">
                    <mxGeometry x="682" y="498.5" width="73" height="19" as="geometry"/>
                </mxCell>
                <mxCell id="aUcMaNtazLmuzXPJAqv5-18" value="" style="rounded=1;whiteSpace=wrap;html=1;" parent="1" vertex="1">
                    <mxGeometry x="263.5" y="57" width="515" height="60" as="geometry"/>
                </mxCell>
                <mxCell id="aUcMaNtazLmuzXPJAqv5-19" value="" style="html=1;verticalLabelPosition=bottom;labelBackgroundColor=#ffffff;verticalAlign=top;shadow=0;dashed=0;strokeWidth=2;shape=mxgraph.ios7.misc.more;strokeColor=#a0a0a0;" parent="1" vertex="1">
                    <mxGeometry x="758.5" y="65" width="5" height="39" as="geometry"/>
                </mxCell>
                <mxCell id="aUcMaNtazLmuzXPJAqv5-20" value="" style="html=1;verticalLabelPosition=bottom;labelBackgroundColor=#ffffff;verticalAlign=top;shadow=0;dashed=0;strokeWidth=2;shape=mxgraph.ios7.misc.loading_circle;" parent="1" vertex="1">
                    <mxGeometry x="269.5" y="62" width="30" height="30" as="geometry"/>
                </mxCell>
                <mxCell id="aUcMaNtazLmuzXPJAqv5-21" value="" style="rounded=0;whiteSpace=wrap;html=1;strokeWidth=0;fillColor=#d5e8d4;strokeColor=#82b366;spacing=2;" parent="1" vertex="1">
                    <mxGeometry x="311" y="82" width="80" height="5" as="geometry"/>
                </mxCell>
                <mxCell id="aUcMaNtazLmuzXPJAqv5-22" value="" style="rounded=0;whiteSpace=wrap;html=1;strokeWidth=0;spacing=2;" parent="1" vertex="1">
                    <mxGeometry x="391" y="82" width="357.5" height="5" as="geometry"/>
                </mxCell>
                <mxCell id="aUcMaNtazLmuzXPJAqv5-23" value="Backup Whole System" style="text;html=1;strokeColor=none;fillColor=none;align=left;verticalAlign=middle;whiteSpace=wrap;rounded=0;fontStyle=1" parent="1" vertex="1">
                    <mxGeometry x="309" y="56" width="132.5" height="30" as="geometry"/>
                </mxCell>
                <mxCell id="aUcMaNtazLmuzXPJAqv5-24" value="eta:2 hours" style="text;html=1;strokeColor=none;fillColor=none;align=center;verticalAlign=middle;whiteSpace=wrap;rounded=0;fontSize=10;" parent="1" vertex="1">
                    <mxGeometry x="685.5" y="56" width="73" height="30" as="geometry"/>
                </mxCell>
                <mxCell id="aUcMaNtazLmuzXPJAqv5-25" value="Upload to DMCX Network..." style="text;html=1;strokeColor=none;fillColor=none;align=left;verticalAlign=middle;whiteSpace=wrap;rounded=0;fontSize=11;" parent="1" vertex="1">
                    <mxGeometry x="273.5" y="87" width="140" height="30" as="geometry"/>
                </mxCell>
                <mxCell id="aUcMaNtazLmuzXPJAqv5-26" value="2.32 GB / 4GB" style="text;html=1;strokeColor=none;fillColor=none;align=center;verticalAlign=middle;whiteSpace=wrap;rounded=0;fontSize=10;" parent="1" vertex="1">
                    <mxGeometry x="685.5" y="82" width="73" height="30" as="geometry"/>
                </mxCell>
                <mxCell id="aUcMaNtazLmuzXPJAqv5-27" value="Backup Targets" style="text;html=1;strokeColor=none;fillColor=none;align=left;verticalAlign=middle;whiteSpace=wrap;rounded=0;fontStyle=1" parent="1" vertex="1">
                    <mxGeometry x="260" y="120" width="115" height="30" as="geometry"/>
                </mxCell>
                <mxCell id="aUcMaNtazLmuzXPJAqv5-30" value="" style="html=1;verticalLabelPosition=bottom;align=center;labelBackgroundColor=#ffffff;verticalAlign=top;strokeWidth=2;strokeColor=#0080F0;shadow=0;dashed=0;shape=mxgraph.ios7.icons.add;" parent="1" vertex="1">
                    <mxGeometry x="747.5" y="125" width="20" height="20" as="geometry"/>
                </mxCell>
                <mxCell id="aUcMaNtazLmuzXPJAqv5-31" value="All Done Tasks" style="text;html=1;strokeColor=none;fillColor=none;align=left;verticalAlign=middle;whiteSpace=wrap;rounded=0;fontStyle=1" parent="1" vertex="1">
                    <mxGeometry x="262.5" y="460" width="110" height="30" as="geometry"/>
                </mxCell>
                <mxCell id="aUcMaNtazLmuzXPJAqv5-32" value="Sort by done time" style="text;html=1;strokeColor=none;fillColor=none;align=left;verticalAlign=middle;whiteSpace=wrap;rounded=0;" parent="1" vertex="1">
                    <mxGeometry x="667.5" y="460" width="110" height="30" as="geometry"/>
                </mxCell>
                <mxCell id="aUcMaNtazLmuzXPJAqv5-33" value="" style="rounded=1;whiteSpace=wrap;html=1;" parent="1" vertex="1">
                    <mxGeometry x="260" y="605" width="515" height="49" as="geometry"/>
                </mxCell>
                <mxCell id="aUcMaNtazLmuzXPJAqv5-34" value="" style="html=1;verticalLabelPosition=bottom;labelBackgroundColor=#ffffff;verticalAlign=top;shadow=0;dashed=0;strokeWidth=2;shape=mxgraph.ios7.misc.more;strokeColor=#a0a0a0;" parent="1" vertex="1">
                    <mxGeometry x="755" y="609.5" width="5" height="39" as="geometry"/>
                </mxCell>
                <mxCell id="aUcMaNtazLmuzXPJAqv5-35" value="Backup $Plan Name" style="text;html=1;strokeColor=none;fillColor=none;align=left;verticalAlign=middle;whiteSpace=wrap;rounded=0;fontStyle=1" parent="1" vertex="1">
                    <mxGeometry x="305.5" y="604" width="132.5" height="30" as="geometry"/>
                </mxCell>
                <mxCell id="aUcMaNtazLmuzXPJAqv5-36" value="failed at 08-02 23:22:11" style="text;html=1;strokeColor=none;fillColor=none;align=left;verticalAlign=middle;whiteSpace=wrap;rounded=0;fontSize=11;" parent="1" vertex="1">
                    <mxGeometry x="305.5" y="620.5" width="140" height="30" as="geometry"/>
                </mxCell>
                <mxCell id="aUcMaNtazLmuzXPJAqv5-37" value="&amp;nbsp;4GB" style="text;html=1;strokeColor=none;fillColor=none;align=right;verticalAlign=middle;whiteSpace=wrap;rounded=0;fontSize=10;" parent="1" vertex="1">
                    <mxGeometry x="688.5" y="620.5" width="60" height="30" as="geometry"/>
                </mxCell>
                <mxCell id="aUcMaNtazLmuzXPJAqv5-39" value="3 hours" style="text;html=1;strokeColor=none;fillColor=none;align=right;verticalAlign=middle;whiteSpace=wrap;rounded=0;fontSize=10;" parent="1" vertex="1">
                    <mxGeometry x="682" y="609.5" width="73" height="19" as="geometry"/>
                </mxCell>
                <mxCell id="aUcMaNtazLmuzXPJAqv5-40" value="Plans" style="text;html=1;strokeColor=none;fillColor=none;align=left;verticalAlign=middle;whiteSpace=wrap;rounded=0;fontStyle=1" parent="1" vertex="1">
                    <mxGeometry x="262.5" y="260" width="115" height="30" as="geometry"/>
                </mxCell>
                <mxCell id="aUcMaNtazLmuzXPJAqv5-41" value="" style="html=1;verticalLabelPosition=bottom;align=center;labelBackgroundColor=#ffffff;verticalAlign=top;strokeWidth=2;strokeColor=#0080F0;shadow=0;dashed=0;shape=mxgraph.ios7.icons.add;" parent="1" vertex="1">
                    <mxGeometry x="751" y="265" width="20" height="20" as="geometry"/>
                </mxCell>
                <mxCell id="aUcMaNtazLmuzXPJAqv5-42" value="" style="shadow=0;dashed=0;html=1;strokeColor=none;fillColor=#EF8F21;labelPosition=center;verticalLabelPosition=bottom;verticalAlign=top;align=center;outlineConnect=0;shape=mxgraph.veeam.failed;" parent="1" vertex="1">
                    <mxGeometry x="266.5" y="610" width="36" height="36" as="geometry"/>
                </mxCell>
                <mxCell id="aUcMaNtazLmuzXPJAqv5-43" value="" style="rounded=0;whiteSpace=wrap;html=1;" parent="1" vertex="1">
                    <mxGeometry x="250" y="850" width="540" height="450" as="geometry"/>
                </mxCell>
                <mxCell id="Kj_UynxFV3OYV0CV9xLq-1" value="" style="rounded=1;whiteSpace=wrap;html=1;" parent="1" vertex="1">
                    <mxGeometry x="262.5" y="300" width="517" height="80" as="geometry"/>
                </mxCell>
                <mxCell id="UtY04BN5j5rMF3g4DB-9-1" value="Save" style="rounded=0;whiteSpace=wrap;html=1;" parent="1" vertex="1">
                    <mxGeometry x="1045" y="690" width="210" height="40" as="geometry"/>
                </mxCell>
                <mxCell id="UtY04BN5j5rMF3g4DB-9-2" value="/backup_input&amp;nbsp;" style="rounded=1;fillColor=#F0F2F5;strokeColor=#D8DCE3;align=left;verticalAlign=middle;fontStyle=0;fontSize=12;labelPosition=right;verticalLabelPosition=middle;spacingLeft=10;html=1;shadow=0;dashed=0" parent="1" vertex="1">
                    <mxGeometry x="1031" y="355" width="12" height="12" as="geometry"/>
                </mxCell>
                <mxCell id="UtY04BN5j5rMF3g4DB-9-5" value="Set backup source&amp;nbsp;" style="text;html=1;strokeColor=none;fillColor=none;align=left;verticalAlign=middle;whiteSpace=wrap;rounded=0;fontStyle=1" parent="1" vertex="1">
                    <mxGeometry x="1030" y="323" width="205" height="30" as="geometry"/>
                </mxCell>
                <mxCell id="UtY04BN5j5rMF3g4DB-9-9" value="Add Custom folders" style="text;html=1;strokeColor=none;fillColor=none;align=center;verticalAlign=middle;whiteSpace=wrap;rounded=0;fontStyle=5;fontColor=#3399FF;" parent="1" vertex="1">
                    <mxGeometry x="1043" y="380" width="205" height="30" as="geometry"/>
                </mxCell>
                <mxCell id="UtY04BN5j5rMF3g4DB-9-10" value="Backup will automatci start&amp;nbsp;" style="text;html=1;strokeColor=none;fillColor=none;align=center;verticalAlign=middle;whiteSpace=wrap;rounded=0;" parent="1" vertex="1">
                    <mxGeometry x="1000" y="583" width="189" height="30" as="geometry"/>
                </mxCell>
                <mxCell id="UtY04BN5j5rMF3g4DB-9-11" value="on idle" style="rounded=1;fillColor=#F1F2F4;strokeColor=none;html=1;whiteSpace=wrap;fontColor=#596780;align=left;fontSize=12;spacingLeft=10;sketch=0;" parent="1" vertex="1">
                    <mxGeometry x="1200" y="580" width="75" height="33" as="geometry"/>
                </mxCell>
                <mxCell id="UtY04BN5j5rMF3g4DB-9-12" value="" style="shape=triangle;direction=south;fillColor=#596780;strokeColor=none;html=1;sketch=0;" parent="UtY04BN5j5rMF3g4DB-9-11" vertex="1">
                    <mxGeometry x="1" y="0.5" width="12" height="6" relative="1" as="geometry">
                        <mxPoint x="-20" y="-3" as="offset"/>
                    </mxGeometry>
                </mxCell>
                <mxCell id="UtY04BN5j5rMF3g4DB-9-13" value="Encrypto Model:" style="text;html=1;strokeColor=none;fillColor=none;align=left;verticalAlign=middle;whiteSpace=wrap;rounded=0;" parent="1" vertex="1">
                    <mxGeometry x="1021" y="533" width="189" height="30" as="geometry"/>
                </mxCell>
                <mxCell id="UtY04BN5j5rMF3g4DB-9-14" value="auto" style="rounded=1;fillColor=#F1F2F4;strokeColor=none;html=1;whiteSpace=wrap;fontColor=#596780;align=left;fontSize=12;spacingLeft=10;sketch=0;" parent="1" vertex="1">
                    <mxGeometry x="1200" y="533" width="75" height="33" as="geometry"/>
                </mxCell>
                <mxCell id="UtY04BN5j5rMF3g4DB-9-15" value="" style="shape=triangle;direction=south;fillColor=#596780;strokeColor=none;html=1;sketch=0;" parent="UtY04BN5j5rMF3g4DB-9-14" vertex="1">
                    <mxGeometry x="1" y="0.5" width="12" height="6" relative="1" as="geometry">
                        <mxPoint x="-20" y="-3" as="offset"/>
                    </mxGeometry>
                </mxCell>
                <mxCell id="UtY04BN5j5rMF3g4DB-9-19" value="Create Backup Plan" style="text;html=1;strokeColor=none;fillColor=none;align=center;verticalAlign=middle;whiteSpace=wrap;rounded=0;fontStyle=1" parent="1" vertex="1">
                    <mxGeometry x="1085" y="252" width="130" height="30" as="geometry"/>
                </mxCell>
                <mxCell id="UtY04BN5j5rMF3g4DB-9-21" value="How descrption the data you will backup" style="rounded=0;whiteSpace=wrap;html=1;align=left;" parent="1" vertex="1">
                    <mxGeometry x="1033" y="290" width="232" height="30" as="geometry"/>
                </mxCell>
                <mxCell id="UtY04BN5j5rMF3g4DB-9-22" style="edgeStyle=orthogonalEdgeStyle;rounded=0;orthogonalLoop=1;jettySize=auto;html=1;entryX=0.003;entryY=0.07;entryDx=0;entryDy=0;entryPerimeter=0;" parent="1" source="aUcMaNtazLmuzXPJAqv5-41" target="UtY04BN5j5rMF3g4DB-9-18" edge="1">
                    <mxGeometry relative="1" as="geometry"/>
                </mxCell>
                <mxCell id="UtY04BN5j5rMF3g4DB-9-23" value="" style="shape=rect;fillColor=#F6F6F6;strokeColor=none;" parent="1" vertex="1">
                    <mxGeometry x="438" y="465" width="164" height="20" as="geometry"/>
                </mxCell>
                <mxCell id="UtY04BN5j5rMF3g4DB-9-24" value="" style="html=1;strokeWidth=1;shadow=0;dashed=0;shape=mxgraph.ios7ui.marginRect;rx=3;ry=3;rectMargin=5;fillColor=#E4E4E4;strokeColor=none;" parent="UtY04BN5j5rMF3g4DB-9-23" vertex="1">
                    <mxGeometry width="164" height="20" as="geometry"/>
                </mxCell>
                <mxCell id="UtY04BN5j5rMF3g4DB-9-25" value="Search" style="shape=mxgraph.ios7.icons.looking_glass;strokeColor=#878789;fillColor=none;fontColor=#878789;labelPosition=right;verticalLabelPosition=middle;align=left;verticalAlign=middle;fontSize=6;fontStyle=0;spacingTop=2;sketch=0;html=1;" parent="UtY04BN5j5rMF3g4DB-9-23" vertex="1">
                    <mxGeometry x="0.5" y="0.5" width="6" height="6" relative="1" as="geometry">
                        <mxPoint x="-17" y="-3" as="offset"/>
                    </mxGeometry>
                </mxCell>
                <mxCell id="HYtCaUlkzAtAl6be1b3J-1" value="$TaskId Details (Running)" style="text;html=1;strokeColor=none;fillColor=none;align=left;verticalAlign=middle;whiteSpace=wrap;rounded=0;fontStyle=1" parent="1" vertex="1">
                    <mxGeometry x="275" y="860" width="167.5" height="30" as="geometry"/>
                </mxCell>
                <mxCell id="u4i2aEXS1_L53lsQjbtx-2" value="$Plan Name" style="text;html=1;strokeColor=none;fillColor=none;align=left;verticalAlign=middle;whiteSpace=wrap;rounded=0;fontStyle=1" parent="1" vertex="1">
                    <mxGeometry x="280" y="300" width="132.5" height="30" as="geometry"/>
                </mxCell>
                <mxCell id="UTq4Cvs2oS6bTvA7Witd-1" value="Last success backup: 8/02/2024 at 23:22 PM,23GB, 2 hours" style="text;html=1;strokeColor=none;fillColor=none;align=left;verticalAlign=middle;whiteSpace=wrap;rounded=0;" parent="1" vertex="1">
                    <mxGeometry x="277.5" y="343" width="400" height="30" as="geometry"/>
                </mxCell>
                <mxCell id="UTq4Cvs2oS6bTvA7Witd-2" value="backup /backup_input to&amp;nbsp; DMCX Network" style="text;html=1;strokeColor=none;fillColor=none;align=left;verticalAlign=middle;whiteSpace=wrap;rounded=0;" parent="1" vertex="1">
                    <mxGeometry x="277.5" y="320" width="260" height="30" as="geometry"/>
                </mxCell>
                <mxCell id="UTq4Cvs2oS6bTvA7Witd-5" value="Set backup target" style="text;html=1;strokeColor=none;fillColor=none;align=left;verticalAlign=middle;whiteSpace=wrap;rounded=0;fontStyle=1" parent="1" vertex="1">
                    <mxGeometry x="1030" y="460" width="205" height="30" as="geometry"/>
                </mxCell>
                <mxCell id="UTq4Cvs2oS6bTvA7Witd-6" value="DMCX" style="rounded=1;fillColor=#F1F2F4;strokeColor=none;html=1;whiteSpace=wrap;fontColor=#596780;align=left;fontSize=12;spacingLeft=10;sketch=0;" parent="1" vertex="1">
                    <mxGeometry x="1200" y="459" width="75" height="33" as="geometry"/>
                </mxCell>
                <mxCell id="UTq4Cvs2oS6bTvA7Witd-7" value="" style="shape=triangle;direction=south;fillColor=#596780;strokeColor=none;html=1;sketch=0;" parent="UTq4Cvs2oS6bTvA7Witd-6" vertex="1">
                    <mxGeometry x="1" y="0.5" width="12" height="6" relative="1" as="geometry">
                        <mxPoint x="-20" y="-3" as="offset"/>
                    </mxGeometry>
                </mxCell>
                <mxCell id="UtY04BN5j5rMF3g4DB-9-7" value="" style="shape=image;verticalLabelPosition=bottom;labelBackgroundColor=default;verticalAlign=top;aspect=fixed;imageAspect=0;image=data:image/png,iVBORw0KGgoAAAANSUhEUgAAAEcAAABLCAYAAAAicppkAAAAAXNSR0IArs4c6QAAAARnQU1BAACxjwv8YQUAAAAJcEhZcwAADsMAAA7DAcdvqGQAAB6gSURBVHhe7VsHmF5VmX5v+cv0mWSSSQUS0kgjwVCiISEUAxoVCyvrupT1Yd19HsvuWtayYlldLItlRVFRVBQL6IK0BVyMBkICSMkQkkB6SE8myfS/3LLve+69M/8/LRMC7LqPXzjz33vq973na+fei5WyakMMQZZlIQyH7PInSFb8O7Rcdvz7ZxqAjgnOn4LWSLtVejXiWCSZ+sil8X3m+H+hOWH8z7JOYCM5VMNL4f2zWfVQf2CHDU6v6g5Nw+kzPEpUfPD5yFFZsxFvwGFlNyTeJ2YkueL2RAMTetk152XxUbZNnmkm5G4oU1FLX7GHRWbO0nk1S2mJaNjgSOgTFdws3bv2IMTU4bTXIPjA1+Cf/1auqarBBokn8zNwORZpsPmvb+dovSHznMRETgQUM4P+cIpM2kYm5aC9y0PQM2ep4KxLpRHc8BCCilpe+8DWDXDu/CGsJ1cAQRD1OW6KGUioz215RS8/JwSO2gdqM6PYlnYtnD6pDhed3oALTx+DKeOq4ToWDh0t4vZVB3Dj/ZvQ0lYwbEWz8G+2Et4ND8PJhAhoV0EYENQsin+4B/ZdN8HaszXqfAIbNlw6ZoZ8vGQTmQpqyMWnj8Y33zMH1fUuuP+ATx+if0KOCpB26rG3pQNz/uk+dOX9nn1DtgreN1fDzrYhtNKsdwwOJswGWeDum+Hc9x0g102ApEkDkNYYSqpoz4fuQ3rZwLEptUzlqqWn4PN/OR71NIuAjjVwvTh/cCI/KLIIBtuKXgUefHIf3nX9oyXgVKJ4w+9gp/LsU0H5KUmsJZZXzb8BQn8f3B9/E9ajd/NebT2jIzqW8K8WONIEAfPG+aPx6b+YhemNWaRcRzPD5857qcO89shItgccCx7YSjEt2Blg2t8/gp37cxGvAufG3zBSUWssNhrlUNygeXEaO7SRo7k6cBFsex7Or24A1q/SpFyjRBRzH132p+Gh85J9TjL9opkj8eG3TMfS2Q2RhvTEv8iMQmmJuSdgoamhqAEcAcYBgWvjqm+swy8f3mN6oULgPMi+hI4Am6WjP2ZNi3OEWoS/IivwYT39MKz//DasfTtNXc8uxD8vlYYdyhMSSw4dy9TxNbjlIwtx56cWYcnsEVIfU0IyFhVtORkng7ZAiRkVPIZpaoAuPfqiJbMaI1+UkJwU28OQFyoxaZNMlDO+RscFmjK1yF+wCP51v4D/lvcAtQ2cN17jBOm4wamrTOGGq+dg9fWL8ba5dajyitSC3s0S2bxWiaaPpNbf3sWiOiMsfcr8SfWRcphKtnoB7MCFwzaH90kRGJY2IRrOsQRO4Z1toU8zXX4Fwi/cDnv+hVzM1YCo43GTxtHko5uBScwnJqV1RtemseEri3Hlkibe5+GnPPhOScQw2pJQ36k1j9pZjGapjn04f1Ndmn6K17EwKV/g0Az7UOkG9JD4M/kPicB5FQ68a/4FwRd+gvDkU1kZCdpbBqCyat1oIZn/cVA246KmljvCbUwb/8EpyLH8iCmcc0ABDEULqph/HCyR5Fpr0mlUZgRGNNijKfnI85b3piP7E4CA/outcHyP1Wy3Gc6tIuukQbz1udsElfEMQcN4eB+5Ef41n0bYOJZ9OI8BX6UPlfHcezNscDRl2nFgO3SSFEhMOCwGELITlYGWTmqkMRIu2mX9VZQWvxlqjZLDGG7+YzQjAMb3sJPRXnXmoJCVns0GU5filC55sZAioKnAI0AEi2BGyzDizT8f4WdugfXmK7m7SgWGT4zCCfNDk/plUnSShuOI4vhhrqIyFCXrRL9SWhN1tD8ULgImJqMxbGd9QI0JpTmscim3k88jXWxBze6tqNm+GSN2bUVj60HUFjvp55gbcbfMPw4wPorT2WEKwRv+BsXP345g3rmcpNdkTZ9BMDhmnmOG8U8tHfHdH16Ms6ZnuSkRQMnAnqkpkC/156XWc+QUTa/SIqLg9NihTd/iOch3O5j8gfvRyjNXmOFR4Wu/5gQ8WxlnGwkpqmBkSh3ZjNbbvgrsepF9KllL0xozEZh9LiYsuBAHmE951BCBagSnWbrUIIfAdTOxtJl4Wvf+GPZ9N3FsLzCRb034i+iYZjWyJo2f/uM8rP3+RTh9RgUTu14xpekWAVEJzO6GeHZnK89MO/D01o5Isw2VL1pK4qkr7yFXlKdQP05aJNNyJX2Gpfx2dD36W1i7tqPKYQcvxz4dwCGetx69F3tv/jdkmleistCOlMnCGcHopIvU0JSfQ9ojUGTKveSvgbmLuJSA0SID8zckOOfPq8Par5yHt5wxDo28d6iygayAahnIR2hn7Bp4+TTufKYF5177KJZ8eg0+/rONuPjzq7FhfxfVXKFeu6hnNPRRpkS7JVI+1NZVQK4Qm6txYgTKeHb6HRaZskrF4aMortvIdh49lP9kKKlfBaudc7d1Aft2o+OuH8O/67toDPbCcjrJNHMtaleXwzOeNpHJZ0F+65IruDjX4e5EWiMSX728DQnOqaOqUU/NsXgO4vJmlw3PMfmsWLl+L5b/+ypccf2TWLu9jUkd12R9nrnKTfc/T03z6EB7dag/hdh2sCtiSXOzuNQkp8CaKN73UMehg0DLfriuS21gm8y2tgapSZNpjlUIOcayCuje+BD2/ux6ZI8cNBoDvxAljyRuL/lzETZNByrrTd1gNCQ4FTzfJCSzkT9JSNd3rNlHDVmJlRsOmsX92LRE+nliUys1rQBPTpKCqkRL9gqtZPe5PTSNEhw8yswgRGIjO9hxsQqRJvjFAuvpVCsaUf/ea1F35cdw6vuuQ2rR5Qiqm7gE19i6Bd0/uwG13bk4IRVPSjo1pzw7NXIi8yATFExrSYloSHDctKJTlL+s29GOf/j+up4dEExt3XIMWtT89KEQuTzHelR7PxvXJSQkIjS411i7s613Dv7aQqZURWNyJFQgLZB6uqidNgeoGoODYRW2p6uAJeeh6ZqPUiNORloPyw4egv/8M0w8CKbRGJqnxhpzZR01MKKSnSmhIcHJVmSx/sU2XPDZVVhy7Sq0dir/oHNjhLE9G94AWWxCEnpsfYoOkCZSonEiRRCHx4MiGPkqqwj80bglItsj80Er1UePO7g9Gs9iuQRZa0ozLBepk6egPU+zSfF85YYoZC20NjSi5rL3ojBqCpBPwasbTw+jFFUHXV6xOGbDJXoCSt+NiDavHzjJns6cWI8tu9tw7r+swuoXjqDIA6LNzJjnaTkbFAse/riZAgyoNaIQZ0+tQ4FRJXC0c+UkxfDtPAr0B3sO58h03ECydWYChZZAUinZHudzqugjVKQ45KHAoGBkDCW4oh0dLfkrjj0ZjW97J+wpM5AbOc5EVWmOKUYjdTzRb1/moyATUXx8MFFHhddNDRX41Dtm4pEvLOV11jjWiEJzfOigJtzz5D7M/+hK/Pz3O/pP3yOkhTedOZo+hxm1lYrrRNQEMuhx911q4JPrjqClg0eBHqIWcBOkXZFlyV8xd+LBMqxihltTz/yJ83ndyHQz8SvjgHlW3jeRr6WmDu6l76RGcawxw2geleikrw2TeSXjE8b1G9WVac6Fc8dgx48uw4cvnQwnleOuRj5FAgu8ts4iLvjkClz2jSew+zCzUdMaUQKKNlrXOqTOnZBBhZeBS58TzaER8mLaY+UeNfji7c+zLh4c//qU3SX/cqQhD6GUjiVAPk2zYsJn8QgjBS4e2AfXCBsvyvEOVSnNYwWKlShkxiJMsaPRPs0RFwOSZEs2PhoeycD2mAw4Sayfekol8rR1X3k6B/qx1jTVZ/DfH1+ExbMb8dyLzF3MGNPUQ6X3WuR9y08hwBTGll8q72yzc4bmdKBrH1ZvaiGvWl8tZmYKJk3RlXY4LjSbPOeqnTIdXpv8TAXadmyj72J/M1bJKE2B12lqZFUuw2CgJ4nRnEkUFckDyUHEAw0lGJT2K9OcWqqr1cZdK3K3vSyaaipwy/vOwIavn4dzZtUgKIrJqG9pIldKqr5o7mi8f9kULkRwzFql6kuSBvFUfefDe1DkBpS0kHhHvpUaRVqjB2bRb5HOo3ryLJrWGN5XIzy0H+G2zXAElsdDJp28jr9F7keBqufY7dGTQj3cJ0hJ0RKWHFH5wv2oDJwUbd22PbS0d+OTv1iHWROrcdnCJmR54JRJ5LkIpzX4yGymjasx40SqEzDLTh+FH/z9GWRMUyfTl3Mhuz/IjPZff72N13FlD3ESjnWoJTrpyz9E4ZfXzLaPuGnUXPgmXnOgx8Cw8r8xnlZUyeyTsBgnryzYnPA4zjhellKtEK99RB+Qynp4VN0frNiK6R98CN+4dwt3iqFUh8M4i9Iu11Y6uOKS8Xjq28tw9rSRBhBpUW2liw+94yTc+vF5qK12TV1pMQBxfpWQ9zc+uA9H6MN62Y1YNmjR1wXUmsh5crfjVm1LnvmNM3UO3KaxbGP2fXALDtz1E1S174Cb62SiSICoLUkxp3qjeVEJi2wvEjxG28jkSkh8Gl4jKgPnul9txgdu3oACbV6UYv5geOWkmmfuSTV49ltL8bWrpqKBZhF6RSP4m89qwp6bluPzfzUb6QIdLessAWqAkH33MqG5mre149/u2BLX9DJjiAKBuUsUrcrbskWbDt5GZzqDurdezrDOWEX/mNuxGgd/czOamHSioIfysaYYgFmnIkp+SX1WjXDRRW+XgXUrabddi6acwm/XH8a8D6/E5r2daEg7dKZZqquLhdNG4PEvLcRPPnA67T2HsItJoknHBW5vCXnY9Fl0WPRSaVzz3eaSDSrhRkTA7a0bGeo1Ug/TlFcRBGptkUAXqck+B7emR6D20vdwOE0+x8le3INdP/0q3N/fhqY9WzHBP4oJbjeyPG+5PgtN0FFJ3GaybMxHdFvOi+Pa2c+Uq79QjH5nTKilNm3Cl369mX6oiAtnNWDhlFGcT08DbcybVIdRNRmeuqUpZiSB4E/yEDyahgzRUfK6m+esd3/paazeeLh0E/uRtY0n74Wvp9w0T64T9aUmSAvjQ2zIDDnkwbFu7Dh079jFKEUXUOBZrnUv2jc1o21jM9q3bwZOOY28MaPnHGIxYpPM0BSs5odh0akbMrwKA/3wD4vpm5Dq9YJu+tgq3Pqh+Vj53AGsotYkgmQrldCplyo4uZlD930pajd9TL8CCvRfH7t5PR54ihEmnm8wstoOAb/8BgMao5D6GgWM1+XgxGwK3JGOSTNRe/kVCE46hV1StMoOjjsI58AuhJvWUvMYfs3j2V6eBqTYhEtby8AZWZ3CF/5iClZ/cTHezCilqKHTeEL6MECCmRxB0WIYJMfaSQf7iR8144cP7DkmMAnZz66B851P0tG20KzkPGmeJVFH5y3dF+hc2xrGoO6yq1GpKJZpYHtFlKMRqHT7LiaGSSoRFW1Yf2Jdn2rHRuYz8TV++MEz8M4lNbCyaQrl49YVe5gJ54wznjepFp9ePh1VWcZNQlquMewQ32ppPdhW5loM6Ye4u5de9yTueIwaE3XpT/RHZZwZG+VM7UfhP3IXrD07YE0/i86X/RTxyJva9YDfgM30I6yqQq5iBBrnLQbqx9E/sW+xC9aIJliNJzGN1HEzXoUsyllbzY/AaonNagAqe4b8q3+ezyPEKCqMEigXSz/1mIlc1181B/PpX1z6Er3t7KWe5XpIvshHDTLFVjQfeBF/+dXN2Lqve2CNEcB6m3HOMgQTp9Fu00DbUdgbnoC18WlORiA0UP0qahG+dhm886kdDMc6iad4RAiMD5Im019oShYTKMmJr5RANTpulJAe3gVFcvrz62C98GwsQn8Gy8C565NnYtHMGri03Y27O7F+ZzuWLxhHc1ISqGWlNGImsUYN7Z00CpsBugjo15knXX/ndhT6ZcAizpXJUNg3wL34SkZfPb6kwPFjBDdNzd2xCdYDP4fdvKZniIAKR/GU/frLEMw4m6k8nbBezXCBhD/DQ0yqS8yQLVElSQ46NOB8EdamBBxRbx9RDzia6IHPnYNTRtfixns24DsP7MZDnz0Hp02oM9pSDk5/EgN6Erii+QCuvW0znt3RNgAoJO5aOG0u/Le9G2HjGazgfE4HJ+BvGO+wAYLJp9qa18O573sAtdD0SUCYPAPW8mvgNYxmFU3QnOHUEPmiBBjzaYzyrVLQdKoXOL/4Uh9wRLqJ1jDgJIJfuXQ0fvS7/SYSa67Hv7wUU8dXRAuY5zl6P1kKTsSAQNl3pICrvvU01jx/xMxdwguJFWK2pgHBX30C1mmvYYcj9LEjqCyMJjoeKJ9JiAwo7a9hFtuFCjjVzI/uug0WcxgUGcHkBMUzFwnPWIpgGRPCLE2MHlSO25ylYpnEu96fllJ/cMqYJUVjy8wqXq+H1l5/EUaPD1DB/OTme/Zh7rQqvO5UahLR1csCKzsKbUe68bffeQr3rz1AG48y6TLSpCn6lbe/F+GZF0UHSvOSP88mfaXDVD4WRMcGvZ1wzVtMKhQFLdJmikE375mr5Gl6D/wY1poHOZ5AJJrEjNlfcimCc9/A7LpAjdMjEuVWBIoThSZasXu8jMCxEnA2rxsAnIjKwBEliEsjNv7HxXhi215cxyTw+V3duPNT87F4Rh0yzDm60lX42Peacfuju6KXcZwlmciotC5YGSx+O9wL3oWgNsP9iOr1SYo4VSRTxqv3S3ryZ17fkGmL5qVTs4TSITLUydr805zUqv07Yd39I0CCmVoW/YwaC3/xWxDOoLkGdOCc23JlstJKrccfXXFTLGbL5eDEjYYiSQYEJ7HPs6bW44lNR3sAu/dz52JuUwq3rNiP6+95gVlz9PizbAItohP59AUIl14GTJ7HiKJXO3rap4Mge+jzEh0gOa8fdtKndcM9vA3ta1aiegbHjZ2OvFvFUwM1xahaxHrCR3IdPPMI7N/fyVBPf2SIZqa/U2YTpHcCY8cgVeGhwPOWcfbRcP5G4Di//HI/cLREIn8/cEop6hjfkK59+3Se2neYZ76aq7TNEAeEjROBS65AOGsh5QrgZWiE7GvR5MS5Frap8hmG13ShE5Xt+9HSvBqFP/6WU3Zyk2uACdNQd+a5yI2fCj8Owz0MxwDpK1M58ywn9+7/NR3k/TyfdLKjomPcZ+F5CM48H2H1GA6k9igYiri+Aee2fx/ErKLxQ4LTlzTE7FjfyaQpeqN4ydXILH4Xcv5R85xTZyoDGLtIloRpgZWl0/X3bkTxZ4xEeao+6Fd4yg4K3fQhHCG/NPONqD1rCcJsLc9lFI5mJwPR+p5e93IeuxDClT+iafq3fo15y9P073LwnENAcoy/7CrYc18HPx1FLdvJIsgHcG/7Cs9xzw0KjuNYvRnycKhsGi4sCs+5CM7ffRbeyVN4mubuKf9gvR3wUOpV8Ja7L3DM4wu2UCq9dXTsDvgvPAN0tSJdkYEnaZldUwr2JzgHX0R+3VqCF6Bm9FjzPj1N86BnMpojmXQAlVYEGjv7tbBmLwR2bWMyqQ81xRxTgi1rYa97FBg3CWHdCGbvHJMnSA/dCnj934wk4AzpkEtJ9T116iPGpp8Bn0lcatIkZtJ67qy26N2QwYCnd4YqbbUBx5ABgPdM+lJugLq9O3Hop9+jorVBGJq+6iLnxItM3qGWZOFPaET1gsWwJsxEkK5AQV+Tsl1OXY9RxZ+Zmc7bPDvf3Azr/ptgHTlolov+sD/zo/Dk2bD37gA2Pq6GPhTzp6vBwBH1BciQQGqawNziHbBmXEgh9Cqly9RH7QSGTlSHiDRP4q6nT/nld5j1cofzcrBKKo3sNrOYPNxnHkPbKobnYrsq+V+AEdV1ONLKCMbxIVOJMMMQ7fHcN2oasotfh3DcZEZ+pgLmk9xobXJGpuX0o8fnsLpgP3I3nFUrgE7NHQGUCH8s6mdWpeD0o8pqhOdfCu/q9yMcfyqZ1s5RLUs1Sos7IbJ+AdmDB+Bs3YTwhRdRSx+e1ZeVFRzDdreYRRX7FCqpaSNGI2htRXhoF4HTRAHGTpmK7JxF6D7ayTuCr5BMM0wVO9D99DOwu7tQ2zQSRfkPbVj8zzg35k6h3u2kuCmTZyGYfw6sA/thHT0Utw+PjOYMBkip5qiP95Fvwx5Rr9fUDMG0AamzzMCYivpEn8FVUnuc7U/h6IOMInom48uNUmoJXplG/QyaxoTTYDWNQUea2hBUoyG3Ewfv/S6wrwVZRhLfSaNy0dtRPWsG9mx6CuFjf2DeeJiKQZ+mF1vURKQqUTlvERqWLMJun9pYrKJ2kTnpkDZOTOkcZZGHAhPMA1vh3vRlYq+8aiDiHBQlkdtozpDaIqL6B7PPRnD2MkYFOjKOTZ7qa8Ko8C/7pZm4dd99K3LProZTaONO60ApJ8A8x2dWzGjk79+P7i2bkF/7DKPLBtht+80pfvJJY3Fg8zYKw8hDf1Q4cAiF6VNoxhNRP+9M+F0O/CPyLykGRx+23w5vz060bX8BmclTCTKPOibhc/iPkY2bpjuRTuJubRPC9X+E1dEa15ZSfwyGBw73wKLNhguWGlWNoTA7Izeof4lGW/QzlS5DbUc7gpYWVBIU1XncQTGoTTGZSAWZ7TwK//B+BHu2oItCtuzluY7Rw9eXoox4dncR3uEupGbMQwc1ZQS1raZpKjxm0cV25kTIMCeah1rmMlblCHIjj66QH8vDX7pnrukzQoWo5WYWf38HfVvp6+dSKsdh2D7HItP2+sdh1TcCjU2soaBRS1SM1BKbmlVbg+rJp8GuyKKzZTczYWoCd7FnbqreiJMnoG7KqbBHjmPkyVKxigiZxIX6wkKPL5i3hG6Wc41DduJUAm+hQIBydSNRdcoUFDI1qJo+F5nZixA0NKFA4D19WKDopc/PxBPXMxtBM3K3NyN/yxcRtpd/0dHD/wB0nNFKC/KHzti+/EPwamjjKcYljun5OMmoj5y0g1QhjxHeUbQ+vgL5LZspfBcPkzmmMITQpwA1IzDxgkuQYVad7+xA14F9OPriDgSHeHZyc8jMPRdphl09PDMHVDeDolXBPaDPCAgg13YL+h9KeODliTzkAddmjuQQHM/OI618qZ1+6t4fINzMfGkAkryRmH1lZdtxh3JD7KPz0pyz4V/6bgQZRgx9vqoX+Bwipyyf5CtTpTZl/RxGex3Y+V93MbHbTp3rojgER9GrqoI5HDXptW8GmubhMEHLpJlEFg8RiFHsx3OQMnCNUBogKGgm0VdirCWPEc/UGGqk4xM8Hlb9dDvSd9yGsHkVO5GPoWQx1L/9uMEpb+efmjo66osRLH0rUxwmdqyTUigTjt42imHuKsN22smhaudOdD/+BJPiTUyGeVQANUAP0MNqZCbMZuR5PVqdSqZCGeQYEWmkFFprSiN1Oo/AERiiUnA4Ec3Khf3ECtir7obVQRPqkaGXb3NpqkvlK2mP6/uBI0oAODY4ao9WshlRUhddjq4pcyhM5BSl/qYLTUxfUrm8T9E8MkEehS1r0LnuSap9C9vbiJHeMNDBputQPX8JijMZnVI1mllLkeQ99GhEIAn6qN5Mz0VsOfzNz8Je+RtgN48PsYD9qAeYngtS6XUvDXi2KgWgLw0GXNjVDp8qrG+EMZon8yqerqMWrkKBWMwnIvIHOg81jMLIaTMRdnQxsuWYFFK7zOdu3SgcYvKYqoY9OvkqS2upyKwi0glLJH9jH94H647vm2xYD+ijvidOQ2pOQqVAlILTX4vYruSLMoSvuQDeouWoqmtALkjT1LLcnzxFYkJmHosSLD/Q627zqKHjsd/B37YOzvx5qD5tLgq1o5m3ZTmvmdaQ+R9DpJV0tOm8ngVxrsd/Q225RwubOclU3HsA6pmrn8jlFM/xksHpS301ySwgR01fFJx1CfFQnkPmGUWU9+hrb0vOSV3JbJoJY0YfULsp5Jn5mnM91UbBuGdDeNiUg1diZz21BvjDLwmsHneUrj0wf+V0LHDin4HAefkoFqppPILzlsOdeyYK5hmvIhtz2MhmDK/GiQtgASEtkAnp/TcbBY7aUgzV3qbn4Dx0O7Cf5zCzIa8A+4YtbswrC04JMRwHp56GgAfXcNTJ1B6l+OKCwvOwZt5ICgSTACqDVQQTiMKLjB7aC+vR+2CveyIG5ZUkbRD/S9t13JRXBx+jFVrrtZcgWLAMqepGeHTAFg+ZAiKguVkEx3OZRNLEpGFhWw720w8zNP+X+TxFYA6PzPaTXops0VijOYnavnrExV0XwUVXI/2aBcjl8zwqVLC6lwdLr1U28PB6508iQOVsTb356VUe3Z8Q64OD+OqZVT8iU/QtYV09UgvOhz/pdB5HanmAz0X5yh9/Z0wpASWh/zVwXk0N6olAWk/X+lWYVqqf3A9ALzs4Zi1d9J+kn+aUMT0IDaeP6FUBe0hwIj4jOn4+okRjAEoA6EuD1Q9ErwowryANCs5ggr3iAv8fon7gSPiBAJDGlJrTYCAdj2YNRsqLB6OIj/hGLAy5V0mHITsNSoNqzkulE9cs+qn4ajA60RWGR8D/AK9CSS2ewmVCAAAAAElFTkSuQmCC;" parent="UTq4Cvs2oS6bTvA7Witd-6" vertex="1">
                    <mxGeometry x="-10.089473684210503" y="7" width="14.902105263157896" height="15.736842105263158" as="geometry"/>
                </mxCell>
                <mxCell id="UTq4Cvs2oS6bTvA7Witd-8" value="Copys: 2" style="text;html=1;strokeColor=none;fillColor=none;align=center;verticalAlign=middle;whiteSpace=wrap;rounded=0;" parent="1" vertex="1">
                    <mxGeometry x="1215" y="498.5" width="60" height="30" as="geometry"/>
                </mxCell>
                <mxCell id="UTq4Cvs2oS6bTvA7Witd-9" value="this backup target is sector target, you can&#39;t view file in backup online!" style="text;html=1;strokeColor=none;fillColor=none;align=center;verticalAlign=middle;whiteSpace=wrap;rounded=0;" parent="1" vertex="1">
                    <mxGeometry x="1030" y="650" width="237" height="30" as="geometry"/>
                </mxCell>
                <mxCell id="okZFB22x0YjCoGDTgbqk-1" value="Detail info&amp;nbsp;" style="rounded=0;whiteSpace=wrap;html=1;" parent="1" vertex="1">
                    <mxGeometry x="263" y="890" width="517" height="60" as="geometry"/>
                </mxCell>
                <mxCell id="okZFB22x0YjCoGDTgbqk-2" value="Runing Log (有树状结构）&lt;br&gt;注意已经完成的任务也有Running Log，因为有挑战" style="rounded=0;whiteSpace=wrap;html=1;" parent="1" vertex="1">
                    <mxGeometry x="263" y="960" width="517" height="100" as="geometry"/>
                </mxCell>
                <mxCell id="okZFB22x0YjCoGDTgbqk-3" value="暂停" style="text;html=1;strokeColor=none;fillColor=none;align=center;verticalAlign=middle;whiteSpace=wrap;rounded=0;" parent="1" vertex="1">
                    <mxGeometry x="695" y="860" width="60" height="30" as="geometry"/>
                </mxCell>
                <mxCell id="okZFB22x0YjCoGDTgbqk-4" value="删除" style="text;html=1;strokeColor=none;fillColor=none;align=center;verticalAlign=middle;whiteSpace=wrap;rounded=0;" parent="1" vertex="1">
                    <mxGeometry x="731" y="860" width="60" height="30" as="geometry"/>
                </mxCell>
                <mxCell id="okZFB22x0YjCoGDTgbqk-5" value="展示详细的Files / Sector 信息&lt;br&gt;这个列表可能会很大" style="rounded=0;whiteSpace=wrap;html=1;" parent="1" vertex="1">
                    <mxGeometry x="261.5" y="1100" width="517" height="150" as="geometry"/>
                </mxCell>
                <mxCell id="okZFB22x0YjCoGDTgbqk-6" value="Files" style="text;html=1;strokeColor=none;fillColor=none;align=left;verticalAlign=middle;whiteSpace=wrap;rounded=0;" parent="1" vertex="1">
                    <mxGeometry x="262.5" y="1070" width="60" height="30" as="geometry"/>
                </mxCell>
                <mxCell id="okZFB22x0YjCoGDTgbqk-7" value="Sectors" style="text;html=1;strokeColor=none;fillColor=none;align=left;verticalAlign=middle;whiteSpace=wrap;rounded=0;" parent="1" vertex="1">
                    <mxGeometry x="303.5" y="1070" width="60" height="30" as="geometry"/>
                </mxCell>
                <mxCell id="okZFB22x0YjCoGDTgbqk-8" value="还原" style="rounded=0;whiteSpace=wrap;html=1;" parent="1" vertex="1">
                    <mxGeometry x="718.5" y="899.5" width="52.5" height="40.5" as="geometry"/>
                </mxCell>
                <mxCell id="okZFB22x0YjCoGDTgbqk-10" value="正还原到 /rbackup_out..." style="rounded=0;whiteSpace=wrap;html=1;align=left;" parent="1" vertex="1">
                    <mxGeometry x="290" y="548" width="480" height="42" as="geometry"/>
                </mxCell>
                <mxCell id="okZFB22x0YjCoGDTgbqk-11" value="" style="verticalLabelPosition=bottom;verticalAlign=top;html=1;shadow=0;dashed=0;strokeWidth=1;shape=mxgraph.android.progressBar;strokeColor=#33b5e5;dx1=0.8;dx2=0.6;strokeWidth=2;" parent="1" vertex="1">
                    <mxGeometry x="296" y="580" width="464" height="5" as="geometry"/>
                </mxCell>
                <mxCell id="okZFB22x0YjCoGDTgbqk-12" value="2.32 GB / 23 GB eta: 3 hours" style="text;html=1;strokeColor=none;fillColor=none;align=right;verticalAlign=middle;whiteSpace=wrap;rounded=0;" parent="1" vertex="1">
                    <mxGeometry x="559.5" y="554" width="203" height="30" as="geometry"/>
                </mxCell>
                <mxCell id="WPKbjmoSeKdulB0jTDgJ-1" value="" style="rounded=0;whiteSpace=wrap;html=1;" parent="1" vertex="1">
                    <mxGeometry x="245" y="415" width="540" height="20" as="geometry"/>
                </mxCell>
                <mxCell id="WPKbjmoSeKdulB0jTDgJ-2" value="Bucky Backup Suite, 1 Backup Running, 23.2 MB/S, eta 12 min." style="text;html=1;strokeColor=none;fillColor=none;align=left;verticalAlign=middle;whiteSpace=wrap;rounded=0;" parent="1" vertex="1">
                    <mxGeometry x="249.88" y="410" width="365.25" height="30" as="geometry"/>
                </mxCell>
                <mxCell id="WPKbjmoSeKdulB0jTDgJ-4" value="Home&lt;br&gt;" style="rounded=1;fillColor=#F1F2F4;strokeColor=none;html=1;whiteSpace=wrap;fontColor=#596780;align=left;fontSize=12;spacingLeft=10;sketch=0;" parent="1" vertex="1">
                    <mxGeometry x="458" y="23" width="129" height="20" as="geometry"/>
                </mxCell>
                <mxCell id="WPKbjmoSeKdulB0jTDgJ-5" value="" style="shape=triangle;direction=south;fillColor=#596780;strokeColor=none;html=1;sketch=0;" parent="WPKbjmoSeKdulB0jTDgJ-4" vertex="1">
                    <mxGeometry x="1" y="0.5" width="12" height="6" relative="1" as="geometry">
                        <mxPoint x="-20" y="-3" as="offset"/>
                    </mxGeometry>
                </mxCell>
                <mxCell id="WPKbjmoSeKdulB0jTDgJ-7" value="" style="html=1;verticalLabelPosition=bottom;align=center;labelBackgroundColor=#ffffff;verticalAlign=top;strokeWidth=2;strokeColor=#0080F0;shadow=0;dashed=0;shape=mxgraph.ios7.icons.play;" parent="1" vertex="1">
                    <mxGeometry x="364.5" y="26" width="14.88" height="17" as="geometry"/>
                </mxCell>
                <mxCell id="WPKbjmoSeKdulB0jTDgJ-8" value="" style="html=1;verticalLabelPosition=bottom;align=center;labelBackgroundColor=#ffffff;verticalAlign=top;strokeWidth=2;strokeColor=#0080F0;shadow=0;dashed=0;shape=mxgraph.ios7.icons.pause;pointerEvents=1" parent="1" vertex="1">
                    <mxGeometry x="393.5" y="25" width="11.25" height="18" as="geometry"/>
                </mxCell>
                <mxCell id="WPKbjmoSeKdulB0jTDgJ-9" value="Backup Now!" style="rounded=0;whiteSpace=wrap;html=1;" parent="1" vertex="1">
                    <mxGeometry x="265" y="24" width="84" height="20" as="geometry"/>
                </mxCell>
                <mxCell id="kLlPO2PXbXHwxWhaiylL-3" value="" style="html=1;verticalLabelPosition=bottom;align=center;labelBackgroundColor=#ffffff;verticalAlign=top;strokeWidth=2;strokeColor=#0080F0;shadow=0;dashed=0;shape=mxgraph.ios7.icons.settings;" parent="1" vertex="1">
                    <mxGeometry x="750" y="21" width="20" height="20" as="geometry"/>
                </mxCell>
                <mxCell id="kLlPO2PXbXHwxWhaiylL-5" value="（悬浮在底部的状态栏））" style="text;html=1;strokeColor=none;fillColor=none;align=center;verticalAlign=middle;whiteSpace=wrap;rounded=0;" parent="1" vertex="1">
                    <mxGeometry x="740.72" y="410" width="155" height="30" as="geometry"/>
                </mxCell>
                <mxCell id="kLlPO2PXbXHwxWhaiylL-6" value="" style="rounded=1;whiteSpace=wrap;html=1;" parent="1" vertex="1">
                    <mxGeometry x="1360" y="240" width="280" height="511" as="geometry"/>
                </mxCell>
                <mxCell id="kLlPO2PXbXHwxWhaiylL-7" value="Create Backup Plan" style="text;html=1;strokeColor=none;fillColor=none;align=center;verticalAlign=middle;whiteSpace=wrap;rounded=0;fontStyle=1" parent="1" vertex="1">
                    <mxGeometry x="1436" y="255" width="130" height="30" as="geometry"/>
                </mxCell>
                <mxCell id="kLlPO2PXbXHwxWhaiylL-8" value="How descrption the data you will backup" style="rounded=0;whiteSpace=wrap;html=1;align=left;" parent="1" vertex="1">
                    <mxGeometry x="1385" y="323" width="232" height="30" as="geometry"/>
                </mxCell>
                <mxCell id="kLlPO2PXbXHwxWhaiylL-9" value="Backup Descrption" style="text;html=1;strokeColor=none;fillColor=none;align=left;verticalAlign=middle;whiteSpace=wrap;rounded=0;fontStyle=1" parent="1" vertex="1">
                    <mxGeometry x="1385" y="290" width="115" height="30" as="geometry"/>
                </mxCell>
                <mxCell id="kLlPO2PXbXHwxWhaiylL-10" value="What data should be backed up?" style="text;html=1;strokeColor=none;fillColor=none;align=left;verticalAlign=middle;whiteSpace=wrap;rounded=0;fontStyle=1" parent="1" vertex="1">
                    <mxGeometry x="1385" y="360" width="205" height="30" as="geometry"/>
                </mxCell>
                <mxCell id="kLlPO2PXbXHwxWhaiylL-15" value="Backup local folders" style="rounded=1;fillColor=#F1F2F4;strokeColor=none;html=1;whiteSpace=wrap;fontColor=#596780;align=left;fontSize=12;spacingLeft=10;sketch=0;" parent="1" vertex="1">
                    <mxGeometry x="1385" y="402" width="235" height="33" as="geometry"/>
                </mxCell>
                <mxCell id="kLlPO2PXbXHwxWhaiylL-16" value="" style="shape=triangle;direction=south;fillColor=#596780;strokeColor=none;html=1;sketch=0;" parent="kLlPO2PXbXHwxWhaiylL-15" vertex="1">
                    <mxGeometry x="1" y="0.5" width="12" height="6" relative="1" as="geometry">
                        <mxPoint x="-20" y="-3" as="offset"/>
                    </mxGeometry>
                </mxCell>
                <mxCell id="kLlPO2PXbXHwxWhaiylL-19" value="Select&amp;nbsp;" style="rounded=0;whiteSpace=wrap;html=1;" parent="1" vertex="1">
                    <mxGeometry x="1383.5" y="450" width="235" height="31" as="geometry"/>
                </mxCell>
                <mxCell id="kLlPO2PXbXHwxWhaiylL-20" value="H:\Photo" style="text;html=1;strokeColor=none;fillColor=none;align=center;verticalAlign=middle;whiteSpace=wrap;rounded=0;" parent="1" vertex="1">
                    <mxGeometry x="1383.5" y="485" width="60" height="30" as="geometry"/>
                </mxCell>
                <mxCell id="kLlPO2PXbXHwxWhaiylL-21" value="Next" style="rounded=0;whiteSpace=wrap;html=1;" parent="1" vertex="1">
                    <mxGeometry x="1397.5" y="680" width="210" height="40" as="geometry"/>
                </mxCell>
                <mxCell id="kLlPO2PXbXHwxWhaiylL-22" value="" style="rounded=1;whiteSpace=wrap;html=1;" parent="1" vertex="1">
                    <mxGeometry x="1680" y="244.5" width="280" height="511" as="geometry"/>
                </mxCell>
                <mxCell id="kLlPO2PXbXHwxWhaiylL-23" value="Configuration backup" style="text;html=1;strokeColor=none;fillColor=none;align=center;verticalAlign=middle;whiteSpace=wrap;rounded=0;fontStyle=1" parent="1" vertex="1">
                    <mxGeometry x="1756" y="259.5" width="130" height="30" as="geometry"/>
                </mxCell>
                <mxCell id="kLlPO2PXbXHwxWhaiylL-26" value="Where to backup?" style="text;html=1;strokeColor=none;fillColor=none;align=left;verticalAlign=middle;whiteSpace=wrap;rounded=0;fontStyle=1" parent="1" vertex="1">
                    <mxGeometry x="1703.5" y="300" width="205" height="30" as="geometry"/>
                </mxCell>
                <mxCell id="kLlPO2PXbXHwxWhaiylL-29" value="Select&amp;nbsp;" style="rounded=0;whiteSpace=wrap;html=1;" parent="1" vertex="1">
                    <mxGeometry x="1707" y="409" width="235" height="31" as="geometry"/>
                </mxCell>
                <mxCell id="kLlPO2PXbXHwxWhaiylL-30" value="H:\Photo" style="text;html=1;strokeColor=none;fillColor=none;align=center;verticalAlign=middle;whiteSpace=wrap;rounded=0;" parent="1" vertex="1">
                    <mxGeometry x="1703.5" y="373" width="60" height="30" as="geometry"/>
                </mxCell>
                <mxCell id="kLlPO2PXbXHwxWhaiylL-31" value="Next" style="rounded=0;whiteSpace=wrap;html=1;" parent="1" vertex="1">
                    <mxGeometry x="1717.5" y="684.5" width="210" height="40" as="geometry"/>
                </mxCell>
                <mxCell id="kLlPO2PXbXHwxWhaiylL-32" value="Specify a directory" style="rounded=1;fillColor=#F1F2F4;strokeColor=none;html=1;whiteSpace=wrap;fontColor=#596780;align=left;fontSize=12;spacingLeft=10;sketch=0;" parent="1" vertex="1">
                    <mxGeometry x="1703.5" y="334" width="240" height="33" as="geometry"/>
                </mxCell>
                <mxCell id="kLlPO2PXbXHwxWhaiylL-33" value="" style="shape=triangle;direction=south;fillColor=#596780;strokeColor=none;html=1;sketch=0;" parent="kLlPO2PXbXHwxWhaiylL-32" vertex="1">
                    <mxGeometry x="1" y="0.5" width="12" height="6" relative="1" as="geometry">
                        <mxPoint x="-20" y="-3" as="offset"/>
                    </mxGeometry>
                </mxCell>
                <mxCell id="kLlPO2PXbXHwxWhaiylL-35" value="Encrypto Model:" style="text;html=1;strokeColor=none;fillColor=none;align=left;verticalAlign=middle;whiteSpace=wrap;rounded=0;" parent="1" vertex="1">
                    <mxGeometry x="1705" y="521" width="126.5" height="30" as="geometry"/>
                </mxCell>
                <mxCell id="kLlPO2PXbXHwxWhaiylL-36" value="None" style="rounded=1;fillColor=#F1F2F4;strokeColor=none;html=1;whiteSpace=wrap;fontColor=#596780;align=left;fontSize=12;spacingLeft=10;sketch=0;" parent="1" vertex="1">
                    <mxGeometry x="1868.5" y="519.5" width="75" height="33" as="geometry"/>
                </mxCell>
                <mxCell id="kLlPO2PXbXHwxWhaiylL-37" value="" style="shape=triangle;direction=south;fillColor=#596780;strokeColor=none;html=1;sketch=0;" parent="kLlPO2PXbXHwxWhaiylL-36" vertex="1">
                    <mxGeometry x="1" y="0.5" width="12" height="6" relative="1" as="geometry">
                        <mxPoint x="-20" y="-3" as="offset"/>
                    </mxGeometry>
                </mxCell>
                <mxCell id="kLlPO2PXbXHwxWhaiylL-38" value="" style="rounded=1;whiteSpace=wrap;html=1;" parent="1" vertex="1">
                    <mxGeometry x="1990" y="244.5" width="280" height="511" as="geometry"/>
                </mxCell>
                <mxCell id="kLlPO2PXbXHwxWhaiylL-39" value="Almost Done" style="text;html=1;strokeColor=none;fillColor=none;align=center;verticalAlign=middle;whiteSpace=wrap;rounded=0;fontStyle=1" parent="1" vertex="1">
                    <mxGeometry x="2066" y="259.5" width="130" height="30" as="geometry"/>
                </mxCell>
                <mxCell id="kLlPO2PXbXHwxWhaiylL-43" value="Create Backup Plan" style="rounded=0;whiteSpace=wrap;html=1;" parent="1" vertex="1">
                    <mxGeometry x="2020" y="684.5" width="220" height="40" as="geometry"/>
                </mxCell>
                <mxCell id="kLlPO2PXbXHwxWhaiylL-49" value="this backup target is sector target, you can&#39;t view file in backup online!" style="text;html=1;strokeColor=none;fillColor=none;align=center;verticalAlign=middle;whiteSpace=wrap;rounded=0;" parent="1" vertex="1">
                    <mxGeometry x="1701.5" y="646" width="237" height="30" as="geometry"/>
                </mxCell>
                <mxCell id="kLlPO2PXbXHwxWhaiylL-50" value="When to run backups?" style="text;html=1;strokeColor=none;fillColor=none;align=left;verticalAlign=middle;whiteSpace=wrap;rounded=0;fontStyle=1" parent="1" vertex="1">
                    <mxGeometry x="2007" y="300" width="189" height="30" as="geometry"/>
                </mxCell>
                <mxCell id="kLlPO2PXbXHwxWhaiylL-51" value="Manual" style="rounded=1;fillColor=#F1F2F4;strokeColor=none;html=1;whiteSpace=wrap;fontColor=#596780;align=left;fontSize=12;spacingLeft=10;sketch=0;" parent="1" vertex="1">
                    <mxGeometry x="2007" y="332" width="235" height="33" as="geometry"/>
                </mxCell>
                <mxCell id="kLlPO2PXbXHwxWhaiylL-52" value="" style="shape=triangle;direction=south;fillColor=#596780;strokeColor=none;html=1;sketch=0;" parent="kLlPO2PXbXHwxWhaiylL-51" vertex="1">
                    <mxGeometry x="1" y="0.5" width="12" height="6" relative="1" as="geometry">
                        <mxPoint x="-20" y="-3" as="offset"/>
                    </mxGeometry>
                </mxCell>
                <mxCell id="kLlPO2PXbXHwxWhaiylL-53" value="Back up immediately after creation" style="rounded=1;fillColor=#F0F2F5;strokeColor=#D8DCE3;align=left;verticalAlign=middle;fontStyle=0;fontSize=12;labelPosition=right;verticalLabelPosition=middle;spacingLeft=10;html=1;shadow=0;dashed=0;arcSize=0;" parent="1" vertex="1">
                    <mxGeometry x="2020" y="659" width="12" height="12" as="geometry"/>
                </mxCell>
                <mxCell id="kLlPO2PXbXHwxWhaiylL-55" value="Privacy Configuration" style="text;html=1;strokeColor=none;fillColor=none;align=left;verticalAlign=middle;whiteSpace=wrap;rounded=0;fontStyle=1" parent="1" vertex="1">
                    <mxGeometry x="1701.5" y="489.5" width="250" height="30" as="geometry"/>
                </mxCell>
                <mxCell id="kLlPO2PXbXHwxWhaiylL-65" value="1.手工&lt;br&gt;2.自动&lt;br&gt;3.定时" style="text;html=1;strokeColor=none;fillColor=none;align=left;verticalAlign=middle;whiteSpace=wrap;rounded=0;" parent="1" vertex="1">
                    <mxGeometry x="2300" y="323" width="130" height="66" as="geometry"/>
                </mxCell>
                <mxCell id="kLlPO2PXbXHwxWhaiylL-66" value="Running a backup manually" style="text;html=1;strokeColor=none;fillColor=none;align=center;verticalAlign=middle;whiteSpace=wrap;rounded=0;" parent="1" vertex="1">
                    <mxGeometry x="2008" y="379" width="234" height="30" as="geometry"/>
                </mxCell>
                <mxCell id="kLlPO2PXbXHwxWhaiylL-67" value="Do not use incremental backups" style="rounded=1;fillColor=#F0F2F5;strokeColor=#D8DCE3;align=left;verticalAlign=middle;fontStyle=0;fontSize=12;labelPosition=right;verticalLabelPosition=middle;spacingLeft=10;html=1;shadow=0;dashed=0;arcSize=0;" parent="1" vertex="1">
                    <mxGeometry x="1706" y="449.5" width="12" height="12" as="geometry"/>
                </mxCell>
                <mxCell id="kLlPO2PXbXHwxWhaiylL-68" value="Run" style="rounded=0;whiteSpace=wrap;html=1;" parent="1" vertex="1">
                    <mxGeometry x="713.5" y="334" width="50" height="27" as="geometry"/>
                </mxCell>
                <mxCell id="kLlPO2PXbXHwxWhaiylL-69" value="C2C Plan&amp;nbsp;" style="text;html=1;strokeColor=none;fillColor=none;align=right;verticalAlign=middle;whiteSpace=wrap;rounded=0;fontStyle=1" parent="1" vertex="1">
                    <mxGeometry x="710" y="300" width="60" height="30" as="geometry"/>
                </mxCell>
                <mxCell id="kLlPO2PXbXHwxWhaiylL-70" value="" style="rounded=1;whiteSpace=wrap;html=1;" parent="1" vertex="1">
                    <mxGeometry x="875" y="65" width="295" height="75" as="geometry"/>
                </mxCell>
                <mxCell id="kLlPO2PXbXHwxWhaiylL-72" value="" style="html=1;verticalLabelPosition=bottom;labelBackgroundColor=#ffffff;verticalAlign=top;shadow=0;dashed=0;strokeWidth=2;shape=mxgraph.ios7.misc.loading_circle;" parent="1" vertex="1">
                    <mxGeometry x="883" y="68.5" width="30" height="30" as="geometry"/>
                </mxCell>
                <mxCell id="kLlPO2PXbXHwxWhaiylL-73" value="" style="rounded=0;whiteSpace=wrap;html=1;strokeWidth=0;fillColor=#d5e8d4;strokeColor=#82b366;spacing=2;" parent="1" vertex="1">
                    <mxGeometry x="922.5" y="90.5" width="80" height="5" as="geometry"/>
                </mxCell>
                <mxCell id="kLlPO2PXbXHwxWhaiylL-74" value="" style="rounded=0;whiteSpace=wrap;html=1;strokeWidth=0;spacing=2;" parent="1" vertex="1">
                    <mxGeometry x="1002.5" y="90.5" width="157.5" height="5" as="geometry"/>
                </mxCell>
                <mxCell id="kLlPO2PXbXHwxWhaiylL-75" value="Backup Whole System" style="text;html=1;strokeColor=none;fillColor=none;align=left;verticalAlign=middle;whiteSpace=wrap;rounded=0;fontStyle=1" parent="1" vertex="1">
                    <mxGeometry x="920.5" y="62.5" width="132.5" height="30" as="geometry"/>
                </mxCell>
                <mxCell id="kLlPO2PXbXHwxWhaiylL-76" value="eta:2 hours" style="text;html=1;strokeColor=none;fillColor=none;align=left;verticalAlign=middle;whiteSpace=wrap;rounded=0;fontSize=10;" parent="1" vertex="1">
                    <mxGeometry x="885" y="110" width="73" height="30" as="geometry"/>
                </mxCell>
                <mxCell id="kLlPO2PXbXHwxWhaiylL-77" value="Upload to DMCX Network..." style="text;html=1;strokeColor=none;fillColor=none;align=left;verticalAlign=middle;whiteSpace=wrap;rounded=0;fontSize=11;" parent="1" vertex="1">
                    <mxGeometry x="885" y="94.5" width="140" height="30" as="geometry"/>
                </mxCell>
                <mxCell id="kLlPO2PXbXHwxWhaiylL-78" value="2.32 GB / 4GB" style="text;html=1;strokeColor=none;fillColor=none;align=center;verticalAlign=middle;whiteSpace=wrap;rounded=0;fontSize=10;" parent="1" vertex="1">
                    <mxGeometry x="1087" y="111" width="73" height="30" as="geometry"/>
                </mxCell>
                <mxCell id="kLlPO2PXbXHwxWhaiylL-79" value="" style="rounded=1;whiteSpace=wrap;html=1;" parent="1" vertex="1">
                    <mxGeometry x="1200" y="65.75" width="295" height="44.25" as="geometry"/>
                </mxCell>
                <mxCell id="kLlPO2PXbXHwxWhaiylL-80" value="" style="html=1;verticalLabelPosition=bottom;labelBackgroundColor=#ffffff;verticalAlign=top;shadow=0;dashed=0;strokeWidth=2;shape=mxgraph.ios7.misc.loading_circle;" parent="1" vertex="1">
                    <mxGeometry x="1208" y="69.25" width="30" height="30" as="geometry"/>
                </mxCell>
                <mxCell id="kLlPO2PXbXHwxWhaiylL-83" value="Backup Whole System" style="text;html=1;strokeColor=none;fillColor=none;align=left;verticalAlign=middle;whiteSpace=wrap;rounded=0;fontStyle=1" parent="1" vertex="1">
                    <mxGeometry x="1248" y="65.75" width="132.5" height="30" as="geometry"/>
                </mxCell>
                <mxCell id="kLlPO2PXbXHwxWhaiylL-84" value="eta:2 hours" style="text;html=1;strokeColor=none;fillColor=none;align=left;verticalAlign=middle;whiteSpace=wrap;rounded=0;fontSize=10;" parent="1" vertex="1">
                    <mxGeometry x="1248" y="80" width="73" height="30" as="geometry"/>
                </mxCell>
                <mxCell id="kLlPO2PXbXHwxWhaiylL-86" value="2.32 GB / 4GB" style="text;html=1;strokeColor=none;fillColor=none;align=center;verticalAlign=middle;whiteSpace=wrap;rounded=0;fontSize=10;" parent="1" vertex="1">
                    <mxGeometry x="1412" y="80" width="73" height="30" as="geometry"/>
                </mxCell>
            </root>
        </mxGraphModel>
    </diagram>
    <diagram id="QGCPplaD-6oVT3l53Kd5" name="System Restore">
        <mxGraphModel dx="946" dy="815" grid="1" gridSize="10" guides="1" tooltips="1" connect="1" arrows="1" fold="1" page="1" pageScale="1" pageWidth="850" pageHeight="1100" math="0" shadow="0">
            <root>
                <mxCell id="0"/>
                <mxCell id="1" parent="0"/>
                <mxCell id="ALfkWXB3rMzIxMcoWKgS-1" value="Acitve Brand New Device" style="rounded=0;whiteSpace=wrap;html=1;" parent="1" vertex="1">
                    <mxGeometry x="135" y="70" width="120" height="60" as="geometry"/>
                </mxCell>
                <mxCell id="ALfkWXB3rMzIxMcoWKgS-2" value="Try Automatic Restore" style="rounded=0;whiteSpace=wrap;html=1;" parent="1" vertex="1">
                    <mxGeometry x="135" y="340" width="120" height="60" as="geometry"/>
                </mxCell>
                <mxCell id="ALfkWXB3rMzIxMcoWKgS-3" value="Manual Restore to Checkpoint" style="rounded=0;whiteSpace=wrap;html=1;" parent="1" vertex="1">
                    <mxGeometry x="470" y="220" width="120" height="60" as="geometry"/>
                </mxCell>
                <mxCell id="ALfkWXB3rMzIxMcoWKgS-8" value="Yes" style="edgeStyle=orthogonalEdgeStyle;rounded=0;orthogonalLoop=1;jettySize=auto;html=1;" parent="1" source="ALfkWXB3rMzIxMcoWKgS-6" target="ALfkWXB3rMzIxMcoWKgS-2" edge="1">
                    <mxGeometry relative="1" as="geometry"/>
                </mxCell>
                <mxCell id="ALfkWXB3rMzIxMcoWKgS-6" value="Zone Broken?" style="strokeWidth=2;html=1;shape=mxgraph.flowchart.decision;whiteSpace=wrap;" parent="1" vertex="1">
                    <mxGeometry x="130" y="190" width="130" height="80" as="geometry"/>
                </mxCell>
                <mxCell id="ALfkWXB3rMzIxMcoWKgS-7" style="edgeStyle=orthogonalEdgeStyle;rounded=0;orthogonalLoop=1;jettySize=auto;html=1;entryX=0.5;entryY=0;entryDx=0;entryDy=0;entryPerimeter=0;" parent="1" source="ALfkWXB3rMzIxMcoWKgS-1" target="ALfkWXB3rMzIxMcoWKgS-6" edge="1">
                    <mxGeometry relative="1" as="geometry"/>
                </mxCell>
                <mxCell id="ALfkWXB3rMzIxMcoWKgS-9" value="Restore System Boot Sector" style="rounded=0;whiteSpace=wrap;html=1;" parent="1" vertex="1">
                    <mxGeometry x="250" y="470" width="120" height="60" as="geometry"/>
                </mxCell>
                <mxCell id="ALfkWXB3rMzIxMcoWKgS-10" value="Restore System Data" style="rounded=0;whiteSpace=wrap;html=1;" parent="1" vertex="1">
                    <mxGeometry x="250" y="570" width="120" height="60" as="geometry"/>
                </mxCell>
                <mxCell id="ALfkWXB3rMzIxMcoWKgS-11" value="Restore User Datas" style="rounded=0;whiteSpace=wrap;html=1;" parent="1" vertex="1">
                    <mxGeometry x="250" y="680" width="120" height="60" as="geometry"/>
                </mxCell>
                <mxCell id="ALfkWXB3rMzIxMcoWKgS-12" value="Restore App Datas" style="rounded=0;whiteSpace=wrap;html=1;" parent="1" vertex="1">
                    <mxGeometry x="250" y="800" width="120" height="60" as="geometry"/>
                </mxCell>
            </root>
        </mxGraphModel>
    </diagram>
</mxfile>